<?xml version="1.0" encoding="utf-8" ?><svg version="1.1" xmlns = 'http://www.w3.org/2000/svg'><defs><font id='web' horiz-adv-x="1000">
<font-face font-family="web" descent="-436" cap-height="1516" units-per-em="2048" bbox="-188,-555,2933,2005" x-height="1087" ascent="1612" />
<missing-glyph horiz-adv-x="1024" d="M 0 1434 L 1024 1434 L 1024 0 L 0 0 L 0 1434 Z M 102 102 L 922 102 L 922 1331 L 102 1331 L 102 102 Z" /><glyph horiz-adv-x="514" d="" unicode=" " />
<glyph horiz-adv-x="694" d="M 262 453 L 195 1516 L 510 1516 L 442 453 L 262 453 Z M 211 0 L 211 256 L 494 256 L 494 0 L 211 0 Z" unicode="!" />
<glyph horiz-adv-x="895" d="M 561 979 L 526 1380 L 526 1516 L 750 1516 L 750 1380 L 715 979 L 561 979 Z M 180 979 L 145 1380 L 145 1516 L 369 1516 L 369 1380 L 334 979 L 180 979 Z" unicode="&#x22;" />
<glyph horiz-adv-x="1516" d="M 213 0 L 297 408 L 68 408 L 68 598 L 338 598 L 403 918 L 156 918 L 156 1108 L 444 1108 L 530 1516 L 758 1516 L 674 1108 L 969 1108 L 1055 1516 L 1282 1516 L 1196 1108 L 1448 1108 L 1448 918 L 1157 918 L 1090 598 L 1360 598 L 1360 408 L 1051 408 L 965 0 L 737 0 L 821 408 L 526 408 L 440 0 L 213 0 Z M 565 598 L 862 598 L 928 918 L 633 918 L 565 598 Z" unicode="#" />
<glyph horiz-adv-x="1368" d="M 602 -14 C 535 -8 475 4 423 24 C 371 44 324 68 284 97 C 243 125 208 156 178 191 C 148 225 122 261 100 297 L 279 418 C 300 387 322 358 345 332 C 367 305 392 282 419 262 C 445 241 473 224 505 210 C 536 196 571 186 610 180 L 610 684 C 550 699 493 717 437 737 C 381 757 331 783 288 816 C 244 848 208 887 182 935 C 156 983 143 1042 143 1112 C 143 1170 153 1224 175 1274 C 196 1324 227 1367 267 1404 C 306 1440 354 1469 411 1491 C 467 1513 531 1527 602 1532 L 602 1677 L 766 1677 L 766 1528 C 822 1521 873 1509 917 1493 C 961 1476 1000 1456 1035 1433 C 1069 1409 1098 1382 1124 1354 C 1150 1325 1173 1295 1194 1264 L 1020 1128 C 1003 1153 986 1176 969 1198 C 952 1220 933 1239 913 1257 C 892 1273 869 1287 845 1299 C 820 1311 792 1319 760 1325 L 760 870 C 826 852 890 833 950 811 C 1010 789 1062 761 1107 727 C 1151 692 1187 650 1213 600 C 1239 550 1253 490 1253 418 C 1253 360 1243 307 1223 257 C 1203 207 1174 164 1134 126 C 1093 87 1042 55 981 31 C 920 7 848 -8 766 -14 L 766 -190 L 602 -190 L 602 -14 Z M 760 178 C 798 182 833 188 865 198 C 897 207 924 220 947 238 C 969 254 986 276 998 302 C 1010 328 1016 359 1016 395 C 1016 429 1010 460 998 486 C 986 512 969 534 947 554 C 925 573 898 590 866 604 C 834 618 799 631 760 643 L 760 178 Z M 610 1333 C 570 1329 536 1322 508 1311 C 479 1300 455 1286 437 1269 C 417 1251 403 1231 394 1209 C 385 1186 381 1161 381 1135 C 381 1103 386 1075 397 1052 C 407 1029 423 1009 443 992 C 462 974 486 958 514 946 C 542 933 574 921 610 911 L 610 1333 Z" unicode="$" />
<glyph horiz-adv-x="2154" d="M 485 580 C 425 580 371 591 324 614 C 276 637 236 670 204 712 C 171 753 146 803 129 862 C 112 920 104 985 104 1057 C 104 1130 113 1196 131 1256 C 149 1315 174 1366 208 1408 C 240 1450 280 1482 328 1505 C 375 1528 428 1540 487 1540 C 545 1540 598 1528 645 1506 C 692 1483 732 1451 765 1410 C 797 1368 822 1317 840 1258 C 857 1199 866 1133 866 1061 C 866 989 857 924 840 865 C 822 806 798 756 766 714 C 733 671 693 638 646 615 C 598 591 545 580 485 580 Z M 1669 -20 C 1608 -20 1554 -8 1507 14 C 1459 37 1420 70 1388 112 C 1355 153 1330 203 1313 262 C 1296 320 1288 385 1288 457 C 1288 530 1297 596 1315 656 C 1333 715 1358 766 1392 808 C 1424 849 1464 881 1512 904 C 1559 926 1612 938 1671 938 C 1729 938 1782 926 1829 904 C 1875 882 1915 850 1948 809 C 1980 767 2005 716 2023 658 C 2041 599 2050 533 2050 461 C 2050 389 2041 324 2024 265 C 2006 206 1981 156 1949 114 C 1916 71 1876 38 1829 15 C 1781 -8 1728 -20 1669 -20 Z M 514 0 L 1419 1516 L 1640 1516 L 735 0 L 514 0 Z M 1669 158 C 1697 158 1722 165 1743 179 C 1764 193 1782 214 1796 240 C 1810 266 1820 297 1827 334 C 1833 371 1837 413 1837 459 C 1837 554 1823 628 1795 680 C 1767 732 1725 758 1669 758 C 1639 758 1614 751 1593 737 C 1571 723 1554 703 1540 678 C 1526 652 1515 620 1509 584 C 1502 547 1499 506 1499 461 C 1499 365 1513 291 1541 238 C 1569 184 1611 158 1669 158 Z M 487 760 C 515 760 539 767 560 781 C 581 795 599 815 613 841 C 626 867 636 898 643 935 C 649 972 653 1013 653 1059 C 653 1154 639 1228 611 1280 C 583 1332 541 1358 485 1358 C 456 1358 431 1351 410 1337 C 389 1323 372 1303 358 1278 C 344 1252 333 1220 327 1184 C 320 1147 317 1106 317 1061 C 317 965 331 890 359 838 C 387 786 429 760 487 760 Z" unicode="%" />
<glyph horiz-adv-x="1503" d="M 578 -29 C 494 -29 420 -19 355 1 C 290 21 235 49 191 85 C 146 121 112 163 88 213 C 64 262 53 316 53 375 C 53 433 62 486 81 532 C 99 578 125 619 157 656 C 189 692 226 725 268 753 C 310 781 355 807 403 831 C 371 889 346 946 330 1002 C 313 1058 305 1114 305 1171 C 305 1219 313 1265 329 1310 C 345 1355 369 1395 402 1430 C 434 1464 476 1492 526 1513 C 576 1533 634 1544 702 1544 C 764 1544 818 1535 864 1518 C 910 1500 948 1477 978 1449 C 1007 1419 1029 1386 1043 1348 C 1057 1310 1065 1270 1065 1229 C 1065 1174 1055 1125 1035 1082 C 1015 1038 989 999 957 965 C 923 929 885 898 841 870 C 797 842 750 815 702 791 C 717 767 734 743 753 719 C 771 695 791 669 813 643 C 851 595 886 551 920 512 C 954 473 986 438 1018 408 C 1050 456 1076 510 1096 572 C 1116 633 1131 699 1141 770 L 1364 770 C 1351 681 1330 595 1302 512 C 1273 429 1235 353 1188 285 C 1237 251 1285 227 1332 212 C 1379 197 1428 190 1479 190 L 1479 -20 C 1434 -19 1392 -16 1352 -11 C 1312 -5 1274 2 1238 13 C 1201 23 1166 37 1132 53 C 1098 69 1064 89 1030 113 C 972 69 907 34 834 9 C 761 -16 676 -29 578 -29 Z M 616 930 C 648 948 678 966 706 985 C 734 1003 759 1024 781 1046 C 801 1068 818 1092 830 1118 C 842 1144 848 1174 848 1208 C 848 1226 844 1244 838 1262 C 832 1279 823 1294 811 1308 C 799 1320 784 1330 767 1338 C 749 1346 729 1350 707 1350 C 656 1350 616 1337 586 1311 C 556 1285 541 1243 541 1186 C 541 1144 547 1102 559 1061 C 571 1019 590 976 616 930 Z M 600 176 C 650 176 696 181 739 191 C 781 201 822 218 862 244 C 824 278 786 318 748 362 C 710 406 668 457 623 514 C 599 544 576 572 556 599 C 536 626 516 653 498 680 C 441 644 395 603 361 558 C 326 513 309 463 309 408 C 309 368 315 334 329 305 C 342 275 361 251 387 233 C 411 213 442 199 478 190 C 514 180 554 176 600 176 Z" unicode="&#x26;" />
<glyph horiz-adv-x="514" d="M 180 979 L 145 1380 L 145 1516 L 369 1516 L 369 1380 L 334 979 L 180 979 Z" unicode="'" />
<glyph horiz-adv-x="821" d="M 625 -420 C 541 -350 467 -277 403 -203 C 338 -128 284 -50 240 32 C 196 113 162 198 140 288 C 117 378 106 473 106 573 C 106 673 117 769 140 859 C 162 949 196 1034 240 1116 C 284 1197 338 1275 403 1350 C 467 1424 541 1497 625 1567 L 741 1442 C 685 1386 634 1325 589 1260 C 543 1195 505 1126 473 1054 C 441 981 416 904 399 824 C 381 744 373 660 373 573 C 373 485 381 401 399 320 C 417 239 442 162 475 89 C 507 15 547 -53 593 -119 C 639 -185 690 -246 748 -303 L 625 -420 Z" unicode="(" />
<glyph horiz-adv-x="821" d="M 74 -303 C 130 -246 182 -185 228 -119 C 274 -53 314 15 347 89 C 379 162 404 239 422 320 C 440 401 449 485 449 573 C 449 660 440 744 422 824 C 404 904 380 981 348 1054 C 316 1126 277 1195 232 1260 C 186 1325 136 1386 80 1442 L 197 1567 C 280 1497 354 1424 418 1350 C 482 1275 537 1197 581 1116 C 625 1034 658 949 681 859 C 703 769 715 673 715 573 C 715 473 703 378 681 288 C 658 198 625 113 581 32 C 537 -50 482 -128 418 -203 C 354 -277 280 -350 197 -420 L 74 -303 Z" unicode=")" />
<glyph horiz-adv-x="1040" d="M 369 662 L 223 745 L 424 1036 L 72 1012 L 72 1171 L 426 1147 L 223 1438 L 369 1524 L 520 1202 L 672 1524 L 817 1438 L 616 1147 L 969 1171 L 969 1012 L 616 1036 L 817 745 L 674 662 L 520 981 L 369 662 Z" unicode="*" />
<glyph horiz-adv-x="1315" d="M 553 168 L 553 598 L 137 598 L 137 801 L 553 801 L 553 1231 L 762 1231 L 762 801 L 1180 801 L 1180 598 L 762 598 L 762 168 L 553 168 Z" unicode="+" />
<glyph horiz-adv-x="565" d="M 178 -229 L 250 0 L 141 0 L 141 266 L 424 266 L 424 35 L 295 -229 L 178 -229 Z" unicode="," />
<glyph horiz-adv-x="731" d="M 113 553 L 113 733 L 618 733 L 618 553 L 113 553 Z" unicode="-" />
<glyph horiz-adv-x="565" d="M 141 0 L 141 266 L 424 266 L 424 0 L 141 0 Z" unicode="." />
<glyph horiz-adv-x="1235" d="M 47 0 L 928 1516 L 1188 1516 L 307 0 L 47 0 Z" unicode="/" />
<glyph horiz-adv-x="1389" d="M 696 -29 C 600 -29 515 -10 441 27 C 366 65 303 118 252 187 C 200 255 161 338 134 435 C 107 532 94 640 94 758 C 94 876 107 983 134 1080 C 161 1176 200 1259 252 1328 C 303 1396 366 1449 441 1487 C 515 1525 600 1544 696 1544 C 791 1544 876 1525 950 1487 C 1024 1449 1086 1396 1138 1328 C 1188 1259 1227 1176 1254 1080 C 1280 983 1294 876 1294 758 C 1294 640 1280 532 1254 435 C 1227 338 1188 255 1138 187 C 1086 118 1024 65 950 27 C 876 -10 791 -29 696 -29 Z M 696 197 C 805 197 889 243 949 335 C 1008 427 1038 568 1038 758 C 1038 852 1030 935 1014 1005 C 998 1075 976 1133 947 1179 C 917 1225 881 1259 839 1281 C 797 1303 749 1315 696 1315 C 584 1315 499 1269 439 1178 C 379 1087 350 947 350 758 C 350 663 358 580 374 510 C 390 440 413 382 443 336 C 472 289 508 254 551 231 C 593 208 642 197 696 197 Z" unicode="0" />
<glyph horiz-adv-x="918" d="M 88 0 L 88 225 L 367 225 L 367 1255 C 348 1245 327 1236 305 1228 C 282 1220 259 1213 235 1207 C 210 1200 185 1195 161 1191 C 137 1187 114 1186 92 1186 L 92 1417 C 150 1419 204 1428 252 1444 C 300 1460 341 1484 375 1516 L 616 1516 L 616 225 L 864 225 L 864 0 L 88 0 Z" unicode="1" />
<glyph horiz-adv-x="1235" d="M 72 0 L 72 33 C 72 87 78 142 90 196 C 102 250 125 306 160 362 C 194 418 242 475 304 534 C 366 593 447 655 547 719 C 605 756 654 789 695 819 C 735 848 769 877 795 905 C 821 933 840 962 852 992 C 864 1022 870 1056 870 1096 C 870 1131 864 1162 853 1190 C 841 1217 825 1240 805 1259 C 784 1277 759 1290 730 1300 C 701 1310 669 1315 633 1315 C 566 1315 502 1295 440 1256 C 378 1217 324 1162 276 1092 L 86 1223 C 116 1269 150 1312 188 1352 C 226 1391 268 1425 314 1454 C 360 1482 410 1504 465 1520 C 519 1536 579 1544 645 1544 C 719 1544 785 1533 844 1513 C 903 1492 953 1463 994 1426 C 1034 1388 1065 1342 1087 1290 C 1109 1237 1120 1178 1120 1114 C 1120 1068 1115 1024 1105 983 C 1095 941 1076 901 1050 861 C 1023 820 986 779 940 737 C 894 695 834 652 762 606 C 701 568 648 531 602 497 C 556 463 518 430 486 399 C 453 367 427 337 409 309 C 390 280 377 252 371 225 L 1128 225 L 1128 0 L 72 0 Z" unicode="2" />
<glyph horiz-adv-x="1249" d="M 600 -29 C 479 -29 371 -6 276 38 C 181 83 101 150 37 238 L 215 381 C 241 347 268 318 298 294 C 327 270 358 252 390 238 C 422 223 455 212 490 206 C 524 200 560 197 596 197 C 642 197 684 201 722 210 C 760 219 792 233 819 253 C 845 271 866 295 881 325 C 895 354 903 389 903 430 C 903 478 894 518 877 551 C 859 584 833 611 799 633 C 763 653 719 668 667 678 C 614 687 552 692 481 692 L 412 692 L 412 901 L 487 901 C 561 901 622 906 670 917 C 718 927 757 942 786 962 C 814 981 833 1004 845 1031 C 856 1058 862 1088 862 1122 C 862 1152 857 1178 848 1202 C 838 1226 823 1246 803 1263 C 782 1279 755 1291 722 1300 C 689 1308 649 1313 602 1313 C 537 1313 474 1300 412 1275 C 350 1249 297 1213 252 1167 L 102 1327 C 133 1359 168 1389 207 1416 C 246 1442 288 1465 333 1484 C 377 1502 424 1517 474 1527 C 524 1537 575 1542 627 1542 C 708 1542 779 1532 840 1514 C 901 1495 952 1469 993 1435 C 1033 1401 1063 1360 1083 1313 C 1103 1266 1114 1215 1114 1159 C 1114 1067 1089 991 1041 931 C 993 870 924 828 836 805 C 947 782 1028 737 1080 671 C 1131 605 1157 521 1157 420 C 1157 352 1143 290 1117 235 C 1091 179 1053 132 1005 94 C 956 54 897 24 829 3 C 761 -18 684 -29 600 -29 Z" unicode="3" />
<glyph horiz-adv-x="1325" d="M 786 0 L 786 311 L 49 311 L 49 512 L 739 1516 L 1034 1516 L 1034 532 L 1290 532 L 1290 311 L 1034 311 L 1034 0 L 786 0 Z M 326 532 L 786 532 L 786 1210 L 782 1210 L 326 532 Z" unicode="4" />
<glyph horiz-adv-x="1225" d="M 592 -29 C 533 -29 477 -23 425 -12 C 373 -1 324 14 278 34 C 232 54 189 78 151 106 C 112 134 77 166 47 201 L 205 369 C 230 345 256 322 284 301 C 312 280 341 262 372 247 C 402 231 434 218 469 210 C 503 201 540 197 580 197 C 636 197 684 204 725 220 C 765 235 799 256 826 284 C 852 310 872 342 885 380 C 898 417 905 458 905 502 C 905 552 898 595 884 633 C 870 670 851 701 826 726 C 800 750 768 768 732 780 C 695 792 654 799 608 799 C 545 799 488 788 438 766 C 387 744 341 706 301 653 L 131 709 L 190 1516 L 1063 1516 L 1044 1290 L 389 1290 L 358 899 C 372 915 390 929 410 943 C 430 957 454 969 480 980 C 506 990 535 997 568 1003 C 600 1009 636 1012 676 1012 C 752 1012 819 999 879 975 C 939 951 989 917 1031 873 C 1072 829 1104 776 1126 714 C 1148 652 1159 584 1159 510 C 1159 431 1146 359 1120 293 C 1094 227 1056 170 1008 123 C 958 75 899 37 829 11 C 759 -15 680 -29 592 -29 Z" unicode="5" />
<glyph horiz-adv-x="1303" d="M 680 -29 C 592 -29 513 -13 441 18 C 369 50 308 97 257 161 C 205 224 164 303 136 398 C 108 493 94 604 94 731 C 94 865 111 982 146 1084 C 181 1185 229 1270 289 1338 C 348 1406 417 1457 497 1492 C 576 1526 660 1544 750 1544 C 792 1544 833 1540 871 1534 C 909 1527 945 1518 979 1507 C 1011 1495 1041 1481 1069 1467 C 1096 1452 1120 1437 1141 1421 L 1018 1233 C 982 1257 942 1278 897 1295 C 851 1312 799 1321 739 1321 C 681 1321 629 1308 582 1284 C 535 1260 495 1225 461 1181 C 427 1135 400 1081 380 1017 C 360 953 348 881 346 801 C 372 823 399 845 429 865 C 458 885 489 902 523 918 C 555 932 590 944 627 952 C 664 960 703 965 745 965 C 817 965 882 954 942 934 C 1002 913 1053 883 1096 843 C 1138 803 1170 753 1194 693 C 1217 633 1229 565 1229 487 C 1229 411 1214 341 1185 278 C 1156 214 1117 160 1068 115 C 1018 69 959 33 893 8 C 826 -16 755 -29 680 -29 Z M 692 188 C 738 188 779 194 815 208 C 851 221 882 240 908 266 C 932 291 951 321 965 357 C 978 393 985 433 985 479 C 985 518 980 554 970 588 C 960 621 944 650 922 675 C 899 699 869 717 833 731 C 796 745 751 752 698 752 C 662 752 626 747 592 739 C 557 731 524 720 494 706 C 463 692 435 676 410 658 C 385 640 364 621 348 602 C 353 528 365 465 384 413 C 402 361 427 318 457 285 C 486 251 521 227 561 211 C 601 195 644 188 692 188 Z" unicode="6" />
<glyph horiz-adv-x="1112" d="M 197 0 L 801 1290 L 55 1290 L 55 1516 L 1065 1516 L 1065 1307 L 459 0 L 197 0 Z" unicode="7" />
<glyph horiz-adv-x="1280" d="M 641 -35 C 549 -35 467 -24 395 -4 C 323 15 262 44 213 82 C 163 118 124 162 98 213 C 72 263 59 319 59 381 C 59 431 68 476 86 518 C 104 559 129 597 162 631 C 194 664 232 694 276 722 C 320 749 369 774 422 797 C 376 819 335 841 299 865 C 263 889 232 915 207 945 C 181 973 162 1006 149 1042 C 135 1078 129 1119 129 1167 C 129 1215 140 1261 162 1307 C 184 1353 216 1394 260 1430 C 302 1466 356 1495 420 1517 C 484 1539 557 1550 641 1550 C 726 1550 801 1539 865 1517 C 929 1495 982 1466 1025 1430 C 1067 1394 1098 1353 1119 1307 C 1140 1261 1151 1215 1151 1167 C 1151 1083 1125 1012 1074 954 C 1022 895 950 845 858 803 C 913 779 963 754 1008 728 C 1052 702 1091 672 1123 640 C 1154 607 1178 570 1195 528 C 1212 486 1221 437 1221 381 C 1221 320 1207 264 1181 214 C 1155 163 1117 119 1068 83 C 1018 45 957 16 885 -4 C 813 -24 732 -35 641 -35 Z M 657 891 C 699 911 736 930 767 949 C 798 967 824 987 844 1007 C 864 1027 878 1048 888 1071 C 898 1094 903 1120 903 1149 C 903 1173 898 1196 888 1219 C 878 1242 862 1263 842 1281 C 820 1299 793 1313 760 1324 C 727 1335 687 1341 641 1341 C 595 1341 556 1335 523 1325 C 490 1315 463 1301 442 1285 C 420 1267 403 1247 393 1224 C 382 1201 377 1177 377 1153 C 377 1121 383 1094 395 1070 C 407 1046 424 1024 448 1004 C 471 983 500 964 535 946 C 570 928 611 909 657 891 Z M 641 172 C 690 172 735 177 775 187 C 815 197 849 212 877 232 C 905 250 926 273 942 301 C 957 329 965 360 965 395 C 965 429 958 459 944 487 C 930 515 908 541 880 565 C 851 589 815 612 773 634 C 730 656 680 678 623 702 C 573 678 528 655 490 633 C 452 611 420 587 394 563 C 368 538 348 512 335 485 C 321 457 315 427 315 395 C 315 361 322 330 338 303 C 353 275 375 252 404 233 C 432 213 466 198 506 188 C 546 177 591 172 641 172 Z" unicode="8" />
<glyph horiz-adv-x="1303" d="M 553 -29 C 510 -29 469 -25 431 -18 C 393 -11 357 -2 325 9 C 291 20 261 33 234 48 C 206 62 182 78 162 94 L 285 283 C 319 257 359 235 405 217 C 451 199 503 190 563 190 C 620 190 672 202 719 227 C 766 251 807 287 841 333 C 875 378 901 433 921 498 C 941 562 952 635 956 715 C 930 691 903 670 874 650 C 844 630 813 613 781 599 C 747 583 712 571 675 563 C 637 555 598 551 557 551 C 485 551 419 561 360 582 C 300 602 250 633 208 673 C 165 713 132 762 109 822 C 85 881 74 950 74 1028 C 74 1104 88 1173 117 1237 C 146 1300 186 1355 236 1401 C 285 1446 343 1481 410 1506 C 476 1531 547 1544 623 1544 C 709 1544 789 1528 861 1496 C 933 1464 994 1417 1046 1354 C 1097 1290 1137 1211 1165 1116 C 1193 1021 1208 910 1208 784 C 1208 650 1190 533 1155 432 C 1120 330 1073 246 1014 178 C 954 109 885 57 805 23 C 725 -11 641 -29 553 -29 Z M 604 764 C 640 764 675 768 710 776 C 745 784 778 796 809 810 C 839 823 867 839 892 857 C 917 875 938 893 954 913 C 948 986 936 1048 918 1100 C 900 1152 876 1194 846 1228 C 816 1260 781 1284 741 1300 C 701 1315 658 1323 610 1323 C 517 1323 445 1298 394 1248 C 342 1198 317 1127 317 1036 C 317 996 322 960 332 927 C 342 893 358 865 381 841 C 403 817 432 798 469 784 C 505 770 550 764 604 764 Z" unicode="9" />
<glyph horiz-adv-x="584" d="M 152 819 L 152 1087 L 432 1087 L 432 819 L 152 819 Z M 152 0 L 152 266 L 432 266 L 432 0 L 152 0 Z" unicode=":" />
<glyph horiz-adv-x="584" d="M 184 -229 L 256 0 L 152 0 L 152 266 L 432 266 L 432 39 L 301 -229 L 184 -229 Z M 152 819 L 152 1087 L 432 1087 L 432 819 L 152 819 Z" unicode=";" />
<glyph horiz-adv-x="1315" d="M 1200 119 L 117 590 L 117 737 L 1200 1208 L 1200 995 L 391 664 L 1200 332 L 1200 119 Z" unicode="&#x3C;" />
<glyph horiz-adv-x="1315" d="M 139 809 L 139 995 L 1174 995 L 1174 809 L 139 809 Z M 139 342 L 139 528 L 1174 528 L 1174 342 L 139 342 Z" unicode="=" />
<glyph horiz-adv-x="1315" d="M 123 119 L 123 332 L 932 664 L 123 995 L 123 1208 L 1206 737 L 1206 590 L 123 119 Z" unicode="&#x3E;" />
<glyph horiz-adv-x="1171" d="M 434 449 C 430 473 428 497 428 520 C 428 543 428 567 428 592 C 428 666 445 729 480 780 C 515 831 565 875 629 911 C 662 930 691 948 715 964 C 739 980 760 998 776 1016 C 792 1034 803 1053 811 1075 C 819 1097 823 1123 823 1153 C 823 1204 802 1244 761 1274 C 720 1304 662 1319 588 1319 C 550 1319 513 1314 479 1304 C 444 1294 411 1280 381 1264 C 350 1247 322 1228 297 1207 C 271 1186 249 1165 231 1143 L 70 1288 C 99 1324 132 1357 168 1388 C 204 1419 245 1446 290 1470 C 334 1492 382 1510 435 1524 C 488 1537 546 1544 610 1544 C 686 1544 753 1534 811 1516 C 869 1498 917 1472 957 1440 C 995 1406 1025 1367 1045 1321 C 1065 1275 1075 1225 1075 1171 C 1075 1122 1068 1079 1055 1043 C 1042 1006 1025 974 1003 946 C 980 917 953 892 923 870 C 892 848 859 827 825 809 C 795 792 769 777 749 763 C 728 749 711 734 698 720 C 684 704 673 688 665 672 C 657 655 652 636 649 615 C 645 593 642 569 642 542 C 641 515 641 484 641 449 L 434 449 Z M 397 0 L 397 256 L 678 256 L 678 0 L 397 0 Z" unicode="?" />
<glyph horiz-adv-x="1778" d="M 877 -29 C 758 -29 650 -9 554 29 C 457 67 375 122 307 192 C 238 261 185 344 148 440 C 110 536 92 641 92 756 C 92 870 111 976 151 1072 C 190 1168 245 1252 316 1322 C 386 1392 470 1446 568 1485 C 666 1524 773 1544 891 1544 C 1008 1544 1115 1525 1213 1487 C 1310 1449 1394 1397 1464 1330 C 1534 1262 1588 1181 1627 1087 C 1666 993 1686 890 1686 778 C 1686 708 1677 644 1659 587 C 1641 530 1616 482 1584 442 C 1551 401 1511 370 1464 348 C 1417 326 1365 315 1307 315 C 1231 315 1172 328 1130 354 C 1088 380 1059 419 1044 469 C 1002 427 955 394 903 370 C 851 346 789 334 717 334 C 674 334 635 340 600 354 C 565 367 535 387 510 414 C 484 440 465 474 451 514 C 437 554 430 600 430 653 C 430 734 440 808 461 876 C 482 944 511 1002 548 1051 C 584 1099 627 1136 677 1163 C 727 1190 780 1204 838 1204 C 869 1204 897 1201 922 1195 C 946 1189 969 1182 989 1173 C 1008 1163 1025 1152 1041 1139 C 1057 1126 1071 1112 1085 1098 L 1100 1188 L 1296 1188 L 1200 580 C 1192 533 1200 496 1222 470 C 1244 443 1281 430 1333 430 C 1365 430 1396 437 1424 452 C 1452 466 1477 488 1498 517 C 1518 545 1535 581 1547 624 C 1559 666 1565 716 1565 772 C 1565 868 1548 957 1516 1037 C 1483 1117 1437 1187 1378 1245 C 1318 1302 1247 1347 1165 1379 C 1082 1411 991 1427 891 1427 C 790 1427 698 1410 616 1377 C 534 1344 463 1298 405 1239 C 345 1179 299 1108 267 1026 C 235 944 219 854 219 756 C 219 656 234 565 266 483 C 298 400 343 329 401 270 C 459 210 528 163 610 130 C 692 96 783 80 883 80 C 961 80 1033 88 1097 106 C 1161 123 1223 150 1282 186 L 1337 98 C 1275 58 1205 26 1127 4 C 1049 -17 965 -29 877 -29 Z M 788 487 C 827 487 865 495 901 512 C 937 529 972 554 1006 588 L 1063 950 C 1035 982 1006 1005 976 1019 C 946 1033 911 1040 870 1040 C 832 1040 798 1029 768 1009 C 738 989 713 962 693 928 C 672 894 656 855 645 811 C 634 767 629 721 629 674 C 629 610 642 562 668 532 C 694 502 734 487 788 487 Z" unicode="@" />
<glyph horiz-adv-x="1427" d="M 51 0 L 588 1522 L 840 1522 L 1376 0 L 1114 0 L 991 360 L 416 360 L 291 0 L 51 0 Z M 494 586 L 915 586 L 709 1200 L 705 1200 L 494 586 Z" unicode="A" />
<glyph horiz-adv-x="1438" d="M 172 0 L 172 1516 L 745 1516 C 821 1516 891 1509 956 1496 C 1020 1482 1076 1461 1124 1432 C 1170 1402 1207 1363 1234 1315 C 1260 1267 1274 1208 1274 1139 C 1274 1086 1267 1040 1253 1000 C 1239 960 1221 925 1197 897 C 1173 868 1144 845 1112 828 C 1079 810 1044 798 1006 791 L 1006 786 C 1052 777 1095 764 1133 746 C 1171 728 1204 704 1232 675 C 1259 645 1280 608 1296 566 C 1311 524 1319 474 1319 416 C 1319 346 1305 285 1278 233 C 1251 181 1214 138 1167 104 C 1119 69 1062 43 996 26 C 930 8 859 0 782 0 L 172 0 Z M 424 221 L 756 221 C 864 221 943 239 993 275 C 1042 311 1067 366 1067 442 C 1067 482 1059 517 1044 545 C 1029 573 1007 597 979 615 C 949 633 914 646 872 654 C 830 662 783 666 729 666 L 424 666 L 424 221 Z M 424 883 L 721 883 C 822 883 898 899 950 931 C 1002 963 1028 1016 1028 1090 C 1028 1126 1022 1156 1010 1182 C 998 1207 980 1228 956 1244 C 931 1260 899 1271 861 1279 C 823 1286 777 1290 725 1290 L 424 1290 L 424 883 Z" unicode="B" />
<glyph horiz-adv-x="1468" d="M 764 -29 C 666 -29 577 -12 496 21 C 414 54 344 104 286 171 C 226 237 180 319 147 418 C 114 516 98 631 98 762 C 98 888 114 1000 148 1098 C 182 1195 228 1277 288 1343 C 347 1409 417 1459 499 1493 C 580 1527 668 1544 764 1544 C 852 1544 929 1532 995 1509 C 1061 1486 1117 1454 1165 1413 C 1211 1371 1250 1321 1280 1263 C 1310 1205 1334 1142 1352 1073 L 1108 1004 C 1094 1054 1077 1097 1058 1135 C 1039 1173 1016 1205 989 1231 C 961 1256 929 1275 892 1288 C 855 1300 812 1307 762 1307 C 698 1307 640 1294 590 1270 C 540 1246 497 1211 463 1165 C 428 1118 401 1061 383 994 C 365 926 356 850 356 764 C 356 674 365 594 384 524 C 402 454 429 396 465 349 C 500 301 543 265 594 241 C 644 217 702 205 766 205 C 815 205 859 211 898 224 C 936 236 971 256 1001 283 C 1030 309 1055 342 1077 383 C 1098 424 1116 473 1130 530 L 1374 475 C 1355 399 1329 331 1296 269 C 1263 207 1222 154 1173 110 C 1123 66 1064 31 996 7 C 928 -16 851 -29 764 -29 Z" unicode="C" />
<glyph horiz-adv-x="1491" d="M 172 0 L 172 1516 L 604 1516 C 722 1516 830 1501 927 1473 C 1024 1444 1107 1399 1176 1339 C 1244 1277 1297 1199 1335 1105 C 1372 1010 1391 896 1391 764 C 1391 628 1372 512 1334 416 C 1296 320 1242 241 1174 180 C 1104 118 1021 72 925 43 C 828 14 721 0 604 0 L 172 0 Z M 428 229 L 627 229 C 713 229 788 238 852 258 C 916 278 969 309 1011 353 C 1053 395 1084 450 1104 518 C 1124 586 1135 668 1135 764 C 1135 854 1124 932 1104 997 C 1083 1062 1052 1116 1010 1158 C 967 1199 913 1229 849 1249 C 785 1268 709 1278 623 1278 L 428 1278 L 428 229 Z" unicode="D" />
<glyph horiz-adv-x="1272" d="M 172 0 L 172 1516 L 1151 1516 L 1151 1278 L 428 1278 L 428 901 L 958 901 L 958 674 L 428 674 L 428 233 L 1192 233 L 1192 0 L 172 0 Z" unicode="E" />
<glyph horiz-adv-x="1184" d="M 172 0 L 172 1516 L 1126 1516 L 1126 1278 L 428 1278 L 428 872 L 934 872 L 934 645 L 428 645 L 428 0 L 172 0 Z" unicode="F" />
<glyph horiz-adv-x="1526" d="M 745 -29 C 636 -29 541 -9 460 30 C 379 69 312 124 259 194 C 205 264 164 347 138 444 C 111 541 98 648 98 764 C 98 885 113 994 145 1090 C 177 1186 222 1268 281 1336 C 339 1403 409 1454 491 1490 C 573 1526 664 1544 766 1544 C 838 1544 904 1535 966 1518 C 1028 1500 1084 1473 1134 1435 C 1184 1396 1227 1346 1264 1286 C 1301 1226 1331 1153 1354 1067 L 1116 1004 C 1099 1060 1080 1108 1058 1147 C 1036 1185 1011 1217 983 1241 C 954 1264 921 1281 885 1291 C 849 1301 808 1307 764 1307 C 734 1307 703 1303 671 1297 C 639 1290 609 1279 579 1263 C 548 1246 519 1224 492 1198 C 465 1171 442 1138 422 1099 C 401 1059 385 1011 373 957 C 361 903 356 840 356 770 C 356 664 367 574 391 502 C 414 429 445 371 485 327 C 523 282 568 250 618 230 C 668 210 720 201 774 201 C 824 201 869 208 911 223 C 953 237 989 259 1020 288 C 1050 316 1075 352 1094 395 C 1112 437 1124 487 1128 543 L 823 543 L 823 750 L 1374 750 L 1374 0 L 1163 0 L 1163 219 L 1159 219 C 1147 191 1129 163 1107 134 C 1084 105 1056 79 1022 55 C 988 30 948 10 902 -5 C 856 -21 803 -29 745 -29 Z" unicode="G" />
<glyph horiz-adv-x="1544" d="M 172 0 L 172 1516 L 428 1516 L 428 911 L 1116 911 L 1116 1516 L 1372 1516 L 1372 0 L 1116 0 L 1116 674 L 428 674 L 428 0 L 172 0 Z" unicode="H" />
<glyph horiz-adv-x="635" d="M 188 0 L 188 1516 L 446 1516 L 446 0 L 188 0 Z" unicode="I" />
<glyph horiz-adv-x="1065" d="M 449 -29 C 357 -29 278 -13 212 17 C 146 48 87 91 37 145 L 197 303 C 210 289 225 276 242 263 C 258 250 277 239 297 229 C 316 219 337 210 360 204 C 382 198 406 195 432 195 C 467 195 499 199 527 207 C 555 215 579 229 599 249 C 618 269 633 295 643 329 C 653 362 659 404 659 455 L 659 1516 L 915 1516 L 915 420 C 915 349 904 286 884 230 C 863 174 833 128 793 90 C 753 51 704 21 646 1 C 588 -18 523 -29 449 -29 Z" unicode="J" />
<glyph horiz-adv-x="1430" d="M 172 0 L 172 1516 L 428 1516 L 428 811 L 1024 1516 L 1327 1516 L 811 932 L 1391 0 L 1098 0 L 643 735 L 428 498 L 428 0 L 172 0 Z" unicode="K" />
<glyph horiz-adv-x="1184" d="M 172 0 L 172 1516 L 428 1516 L 428 233 L 1126 233 L 1126 0 L 172 0 Z" unicode="L" />
<glyph horiz-adv-x="1829" d="M 172 0 L 172 1516 L 510 1516 L 915 313 L 920 313 L 1313 1516 L 1657 1516 L 1657 0 L 1409 0 L 1409 1130 L 1405 1130 C 1393 1078 1380 1027 1364 977 C 1348 927 1332 875 1315 821 L 1020 0 L 793 0 L 500 821 C 490 848 482 873 474 896 C 466 919 459 943 452 967 C 444 991 437 1016 430 1044 C 423 1072 416 1104 408 1141 L 403 1141 L 403 0 L 172 0 Z" unicode="M" />
<glyph horiz-adv-x="1563" d="M 172 0 L 172 1516 L 432 1516 L 1149 434 L 1153 434 L 1153 1516 L 1391 1516 L 1391 0 L 1157 0 L 414 1104 L 410 1104 L 410 0 L 172 0 Z" unicode="N" />
<glyph horiz-adv-x="1565" d="M 784 -29 C 688 -29 598 -12 514 22 C 430 56 358 106 297 173 C 235 239 186 322 151 420 C 115 518 98 630 98 758 C 98 885 115 998 151 1096 C 186 1194 235 1276 297 1343 C 358 1409 430 1459 514 1493 C 598 1527 688 1544 784 1544 C 880 1544 969 1527 1052 1493 C 1135 1459 1207 1409 1269 1343 C 1330 1276 1378 1194 1413 1096 C 1448 998 1466 885 1466 758 C 1466 630 1448 518 1413 420 C 1378 322 1330 239 1269 173 C 1207 106 1135 56 1052 22 C 969 -12 880 -29 784 -29 Z M 784 203 C 847 203 905 215 957 239 C 1009 263 1054 299 1092 347 C 1128 393 1157 451 1177 520 C 1197 589 1208 668 1208 758 C 1208 846 1197 925 1177 994 C 1157 1062 1128 1120 1092 1167 C 1054 1213 1009 1249 957 1273 C 905 1297 847 1309 784 1309 C 719 1309 660 1297 608 1273 C 555 1249 510 1213 473 1167 C 435 1120 406 1062 386 994 C 366 925 356 846 356 758 C 356 668 366 589 386 520 C 406 451 435 393 473 347 C 510 299 555 263 608 239 C 660 215 719 203 784 203 Z" unicode="O" />
<glyph horiz-adv-x="1358" d="M 172 0 L 172 1516 L 702 1516 C 784 1516 860 1508 931 1492 C 1002 1476 1064 1451 1117 1415 C 1169 1378 1211 1330 1241 1271 C 1271 1211 1286 1138 1286 1051 C 1286 959 1269 882 1237 821 C 1205 760 1161 712 1107 676 C 1052 639 989 613 918 598 C 846 582 772 575 694 575 L 426 575 L 426 0 L 172 0 Z M 426 799 L 707 799 C 763 799 811 803 853 812 C 894 821 928 835 955 855 C 981 874 1001 899 1014 930 C 1027 961 1034 998 1034 1042 C 1034 1126 1007 1187 954 1225 C 901 1263 818 1282 705 1282 L 426 1282 L 426 799 Z" unicode="P" />
<glyph horiz-adv-x="1565" d="M 1116 -395 C 1036 -395 966 -385 907 -366 C 847 -346 798 -320 759 -286 C 719 -252 689 -211 669 -164 C 649 -117 638 -66 637 -10 C 560 4 489 31 423 71 C 357 111 300 164 252 230 C 203 295 165 372 137 460 C 109 548 96 648 96 758 C 96 885 114 998 151 1096 C 188 1194 238 1276 302 1343 C 364 1409 437 1459 520 1493 C 603 1527 690 1544 782 1544 C 873 1544 960 1527 1042 1493 C 1124 1459 1197 1409 1260 1343 C 1322 1276 1372 1194 1409 1096 C 1445 998 1464 885 1464 758 C 1464 644 1449 542 1420 452 C 1391 362 1351 284 1301 219 C 1249 153 1189 100 1120 61 C 1051 21 977 -4 897 -16 C 905 -53 917 -82 934 -104 C 951 -125 973 -141 1000 -153 C 1026 -163 1058 -170 1095 -173 C 1131 -176 1173 -178 1221 -178 L 1325 -178 L 1325 -395 L 1116 -395 Z M 782 199 C 845 199 903 211 955 236 C 1007 260 1052 297 1090 345 C 1126 392 1155 450 1175 520 C 1195 589 1206 668 1206 758 C 1206 846 1195 925 1175 994 C 1155 1062 1126 1120 1090 1167 C 1052 1213 1007 1249 955 1273 C 903 1297 845 1309 782 1309 C 717 1309 658 1297 606 1273 C 553 1249 508 1213 471 1167 C 433 1120 404 1062 384 994 C 364 925 354 846 354 758 C 354 668 364 589 384 520 C 404 450 433 392 471 345 C 508 297 553 260 606 236 C 658 211 717 199 782 199 Z" unicode="Q" />
<glyph horiz-adv-x="1415" d="M 172 0 L 172 1516 L 715 1516 C 805 1516 885 1506 956 1488 C 1026 1470 1086 1442 1135 1405 C 1183 1367 1219 1319 1245 1262 C 1271 1205 1284 1138 1284 1061 C 1284 1000 1276 946 1261 899 C 1245 851 1223 810 1195 775 C 1166 739 1131 709 1089 685 C 1047 661 1000 643 948 631 L 1305 0 L 1030 0 L 690 598 L 424 598 L 424 0 L 172 0 Z M 424 821 L 705 821 C 758 821 805 824 846 832 C 886 839 921 852 949 870 C 976 888 997 912 1011 942 C 1025 972 1032 1009 1032 1055 C 1032 1098 1025 1134 1011 1163 C 997 1192 976 1216 949 1234 C 921 1251 886 1263 845 1271 C 804 1278 756 1282 702 1282 L 424 1282 L 424 821 Z" unicode="R" />
<glyph horiz-adv-x="1380" d="M 702 -29 C 626 -29 557 -19 493 -1 C 429 17 371 44 320 78 C 268 111 223 151 185 199 C 147 246 116 298 92 356 L 295 463 C 340 373 397 307 466 264 C 535 220 617 199 713 199 C 759 199 801 202 839 210 C 877 218 909 230 937 246 C 963 262 984 282 999 307 C 1014 331 1022 361 1022 395 C 1022 427 1015 456 1003 481 C 991 506 971 529 944 550 C 916 570 881 589 837 607 C 793 625 740 643 678 662 C 629 676 582 690 537 705 C 492 719 450 736 411 754 C 371 771 336 791 304 813 C 272 835 244 860 222 889 C 199 917 181 950 169 988 C 156 1025 150 1068 150 1116 C 150 1180 162 1239 187 1292 C 212 1344 248 1389 294 1427 C 339 1464 393 1493 457 1513 C 520 1533 590 1544 668 1544 C 742 1544 809 1535 869 1518 C 929 1500 982 1477 1029 1448 C 1075 1418 1115 1384 1149 1345 C 1183 1305 1211 1263 1235 1219 L 1049 1090 C 1003 1166 948 1221 884 1257 C 820 1293 748 1311 666 1311 C 581 1311 516 1296 470 1266 C 424 1236 401 1194 401 1139 C 401 1103 408 1073 422 1048 C 436 1023 457 1001 487 982 C 515 962 552 944 597 928 C 642 912 696 895 758 877 C 829 855 896 833 959 809 C 1021 785 1076 755 1123 721 C 1169 685 1206 643 1233 594 C 1260 544 1274 484 1274 414 C 1274 352 1261 294 1235 240 C 1209 186 1172 139 1124 100 C 1074 60 1014 28 943 5 C 872 -17 792 -29 702 -29 Z" unicode="S" />
<glyph horiz-adv-x="1300" d="M 522 0 L 522 1278 L 55 1278 L 55 1516 L 1245 1516 L 1245 1278 L 778 1278 L 778 0 L 522 0 Z" unicode="T" />
<glyph horiz-adv-x="1477" d="M 739 -25 C 635 -25 545 -11 471 17 C 397 45 336 84 289 135 C 241 185 207 246 185 317 C 163 388 152 467 152 553 L 152 1516 L 408 1516 L 408 575 C 408 517 414 465 427 420 C 440 374 460 336 488 305 C 514 273 549 248 591 232 C 633 215 683 207 741 207 C 799 207 848 215 890 231 C 932 247 966 271 994 303 C 1020 333 1040 371 1053 417 C 1066 463 1073 515 1073 573 L 1073 1516 L 1325 1516 L 1325 555 C 1325 469 1312 390 1288 319 C 1264 247 1227 186 1179 136 C 1129 84 1068 45 995 17 C 922 -11 837 -25 739 -25 Z" unicode="U" />
<glyph horiz-adv-x="1397" d="M 578 -6 L 51 1516 L 311 1516 L 702 334 L 707 334 L 1104 1516 L 1346 1516 L 819 -6 L 578 -6 Z" unicode="V" />
<glyph horiz-adv-x="1933" d="M 463 0 L 59 1516 L 317 1516 L 510 731 C 525 670 539 611 553 554 C 567 497 579 439 590 379 L 594 379 C 604 437 615 495 629 552 C 642 609 656 668 672 729 L 854 1516 L 1100 1516 L 1288 725 C 1296 693 1303 662 1311 634 C 1318 606 1325 578 1332 551 C 1338 523 1345 496 1351 468 C 1357 440 1362 411 1368 379 L 1372 379 C 1378 411 1383 441 1389 469 C 1395 496 1401 523 1407 550 C 1413 576 1419 602 1425 630 C 1431 657 1438 687 1446 719 L 1634 1516 L 1874 1516 L 1475 0 L 1251 0 L 979 1161 L 975 1161 L 688 0 L 463 0 Z" unicode="W" />
<glyph horiz-adv-x="1427" d="M 66 0 L 569 805 L 119 1516 L 412 1516 L 727 1008 L 1032 1516 L 1298 1516 L 856 805 L 1362 0 L 1079 0 L 705 600 L 334 0 L 66 0 Z" unicode="X" />
<glyph horiz-adv-x="1354" d="M 547 0 L 547 653 L 31 1516 L 301 1516 L 680 870 L 1057 1516 L 1323 1516 L 805 653 L 805 0 L 547 0 Z" unicode="Y" />
<glyph horiz-adv-x="1321" d="M 72 0 L 72 178 L 909 1300 L 127 1300 L 127 1516 L 1231 1516 L 1231 1331 L 403 209 L 1231 209 L 1231 0 L 72 0 Z" unicode="Z" />
<glyph horiz-adv-x="862" d="M 158 -410 L 158 1516 L 788 1516 L 788 1335 L 412 1335 L 412 -229 L 788 -229 L 788 -410 L 158 -410 Z" unicode="[" />
<glyph horiz-adv-x="1194" d="M 907 0 L 27 1516 L 287 1516 L 1167 0 L 907 0 Z" unicode="\" />
<glyph horiz-adv-x="862" d="M 74 -410 L 74 -229 L 451 -229 L 451 1333 L 74 1333 L 74 1516 L 705 1516 L 705 -410 L 74 -410 Z" unicode="]" />
<glyph horiz-adv-x="1315" d="M 588 1516 L 735 1516 L 1206 678 L 993 678 L 662 1260 L 330 678 L 117 678 L 588 1516 Z" unicode="^" />
<glyph horiz-adv-x="1024" d="M 0 -297 L 0 -115 L 1024 -115 L 1024 -297 L 0 -297 Z" unicode="_" />
<glyph horiz-adv-x="1024" d="M 240 1542 L 512 1542 L 705 1202 L 539 1202 L 240 1542 Z" unicode="`" />
<glyph horiz-adv-x="1157" d="M 379 -16 C 335 -16 294 -10 257 2 C 219 14 187 32 160 56 C 132 79 110 108 95 142 C 79 176 72 216 72 262 C 72 320 85 374 111 423 C 137 472 178 516 236 554 C 292 592 365 624 455 651 C 544 677 652 698 780 713 L 780 745 C 780 799 765 839 736 864 C 707 888 662 901 602 901 C 564 901 528 896 494 888 C 460 880 427 869 397 855 C 366 841 337 825 310 807 C 283 789 258 772 236 754 L 113 911 C 141 937 174 963 212 987 C 249 1011 290 1032 334 1050 C 378 1068 425 1082 476 1092 C 527 1102 581 1108 637 1108 C 709 1108 771 1099 821 1082 C 871 1065 911 1040 942 1007 C 972 973 994 932 1008 883 C 1021 834 1028 778 1028 715 L 1028 266 C 1028 200 1030 146 1035 104 C 1039 62 1047 28 1059 0 L 805 0 C 801 11 798 22 795 32 C 792 42 790 52 788 64 C 785 74 783 86 782 98 C 780 110 780 123 780 139 C 724 83 664 43 598 19 C 532 -4 459 -16 379 -16 Z M 471 178 C 535 178 593 189 644 212 C 694 234 740 265 780 303 L 780 543 C 628 522 514 493 436 455 C 358 417 319 369 319 309 C 319 265 332 233 360 211 C 388 189 425 178 471 178 Z" unicode="a" />
<glyph horiz-adv-x="1251" d="M 705 -16 C 646 -16 589 -4 535 18 C 480 41 433 75 393 121 L 393 0 L 141 0 L 141 1516 L 393 1516 L 393 944 C 411 965 431 986 455 1006 C 478 1026 504 1043 533 1059 C 561 1073 593 1085 627 1094 C 661 1103 699 1108 739 1108 C 801 1108 858 1096 911 1073 C 963 1049 1009 1014 1047 968 C 1085 921 1114 862 1136 792 C 1158 721 1169 639 1169 545 C 1169 451 1157 368 1135 298 C 1113 228 1081 169 1041 123 C 1000 76 951 41 894 18 C 837 -4 774 -16 705 -16 Z M 649 184 C 744 184 813 213 855 272 C 897 331 918 421 918 543 C 918 658 894 745 848 804 C 802 863 738 893 657 893 C 631 893 605 889 580 881 C 555 873 531 863 509 851 C 485 838 464 823 444 807 C 424 791 407 774 393 756 L 393 319 C 427 275 466 241 512 218 C 558 195 603 184 649 184 Z" unicode="b" />
<glyph horiz-adv-x="1116" d="M 588 -23 C 524 -23 462 -12 402 9 C 341 31 287 65 240 111 C 192 157 153 215 124 287 C 94 358 80 443 80 543 C 80 612 87 674 102 729 C 116 783 136 832 162 874 C 186 916 216 951 250 981 C 284 1011 320 1035 359 1054 C 397 1072 437 1086 479 1095 C 520 1103 561 1108 602 1108 C 669 1108 727 1099 777 1082 C 826 1064 868 1041 904 1012 C 939 982 968 949 992 911 C 1016 873 1036 833 1053 791 L 840 715 C 818 777 788 822 748 852 C 708 882 658 897 598 897 C 562 897 528 890 496 878 C 464 865 436 845 412 817 C 388 789 369 752 355 707 C 341 662 334 607 334 543 C 334 426 356 337 401 276 C 446 214 510 184 594 184 C 622 184 649 186 673 192 C 697 197 720 207 742 221 C 762 235 781 254 799 278 C 816 302 832 334 848 373 L 1057 297 C 1037 253 1014 212 988 173 C 961 134 929 100 892 72 C 854 42 810 19 760 2 C 710 -14 653 -23 588 -23 Z" unicode="c" />
<glyph horiz-adv-x="1251" d="M 512 -16 C 450 -16 392 -4 340 18 C 287 40 242 75 204 121 C 166 167 136 225 114 295 C 92 365 82 447 82 541 C 82 635 93 717 115 788 C 137 859 169 918 210 966 C 250 1013 299 1048 356 1072 C 413 1096 477 1108 547 1108 C 605 1108 662 1096 716 1073 C 770 1050 818 1016 858 971 L 858 1516 L 1110 1516 L 1110 266 C 1110 200 1112 146 1117 104 C 1121 62 1130 28 1143 0 L 883 0 C 875 15 869 36 865 64 C 860 92 858 119 858 147 C 838 123 816 102 793 82 C 769 62 744 45 716 31 C 688 16 657 4 623 -3 C 589 -11 552 -16 512 -16 Z M 594 190 C 620 190 645 193 671 201 C 696 209 720 219 743 232 C 765 244 786 259 806 276 C 826 292 843 310 858 328 L 858 764 C 824 808 784 841 738 864 C 692 887 647 899 602 899 C 554 899 514 891 480 876 C 446 860 418 838 397 808 C 375 777 359 739 349 693 C 339 647 334 595 334 535 C 334 419 357 333 403 276 C 449 218 512 190 594 190 Z" unicode="d" />
<glyph horiz-adv-x="1155" d="M 604 -23 C 536 -23 470 -12 407 9 C 344 30 288 64 240 110 C 191 156 152 214 123 286 C 94 357 80 443 80 543 C 80 611 87 673 102 728 C 117 782 138 831 164 873 C 190 915 220 950 254 980 C 288 1010 325 1034 364 1054 C 402 1072 441 1086 481 1095 C 521 1103 560 1108 598 1108 C 638 1108 678 1103 718 1095 C 757 1086 794 1072 830 1054 C 865 1035 898 1010 928 980 C 958 950 984 913 1006 870 C 1027 826 1044 775 1056 717 C 1068 659 1075 594 1075 520 L 1075 461 L 332 461 C 334 411 343 369 359 333 C 375 297 396 268 422 246 C 447 222 477 205 511 194 C 545 183 583 178 623 178 C 658 178 690 180 718 186 C 746 192 773 200 798 212 C 822 222 844 235 865 251 C 886 267 907 285 928 305 L 1061 174 C 1004 111 938 62 863 28 C 788 -5 702 -23 604 -23 Z M 844 649 C 836 732 812 795 772 838 C 731 881 672 903 596 903 C 565 903 535 898 507 889 C 478 880 452 866 429 846 C 405 825 385 798 369 766 C 353 734 342 695 336 649 L 844 649 Z" unicode="e" />
<glyph horiz-adv-x="766" d="M 236 0 L 236 887 L 47 887 L 47 1087 L 236 1087 L 236 1198 C 236 1243 241 1285 252 1325 C 262 1365 281 1399 308 1429 C 334 1457 370 1480 416 1497 C 461 1513 518 1522 588 1522 C 600 1522 613 1521 629 1520 C 644 1519 659 1518 674 1517 C 688 1515 700 1514 712 1513 C 724 1512 732 1511 737 1511 L 737 1317 C 729 1319 716 1320 699 1322 C 681 1324 665 1325 651 1325 C 628 1325 607 1323 587 1319 C 567 1315 550 1308 536 1298 C 520 1287 508 1272 500 1254 C 491 1236 487 1212 487 1184 L 487 1087 L 725 1087 L 725 887 L 487 887 L 487 0 L 236 0 Z" unicode="f" />
<glyph horiz-adv-x="1202" d="M 551 -422 C 457 -422 376 -415 310 -402 C 244 -389 190 -371 148 -348 C 106 -324 75 -296 56 -264 C 36 -231 27 -195 27 -156 C 27 -101 42 -54 74 -16 C 105 22 149 52 205 74 C 177 88 156 107 142 129 C 128 151 121 177 121 207 C 121 227 124 247 132 266 C 140 284 150 302 164 319 C 177 335 192 350 210 365 C 228 379 247 393 268 406 C 212 440 170 484 140 538 C 110 592 96 652 96 719 C 96 775 106 826 127 874 C 148 921 178 962 218 997 C 257 1031 305 1058 361 1078 C 417 1098 481 1108 553 1108 C 627 1108 692 1097 748 1075 C 803 1053 849 1026 887 993 C 904 1007 923 1020 945 1032 C 967 1044 990 1055 1014 1065 C 1038 1074 1062 1082 1086 1088 C 1110 1094 1134 1098 1157 1100 L 1157 895 C 1132 895 1103 893 1070 889 C 1037 885 1003 877 967 866 C 979 846 988 824 995 799 C 1002 774 1006 747 1006 719 C 1006 662 995 610 975 563 C 954 515 924 475 886 441 C 846 406 799 379 743 360 C 687 341 623 332 553 332 C 537 332 523 332 511 333 C 498 334 486 336 475 338 C 463 340 451 342 439 345 C 427 347 414 350 401 354 C 385 344 371 334 361 323 C 351 311 346 299 346 285 C 346 263 354 248 372 239 C 390 229 423 223 471 219 L 664 207 C 744 201 812 192 869 178 C 925 164 972 146 1008 122 C 1044 98 1070 68 1087 33 C 1103 -1 1112 -42 1112 -90 C 1112 -146 1098 -194 1071 -236 C 1044 -277 1006 -312 958 -340 C 908 -367 849 -387 780 -401 C 711 -415 635 -422 551 -422 Z M 557 506 C 625 506 679 523 718 558 C 756 593 776 644 776 711 C 776 779 757 830 719 866 C 681 902 627 920 555 920 C 485 920 430 901 392 865 C 353 829 334 777 334 711 C 334 644 353 593 393 558 C 432 523 487 506 557 506 Z M 590 -240 C 636 -240 677 -237 714 -231 C 751 -225 783 -216 809 -206 C 834 -194 854 -181 868 -165 C 882 -149 889 -132 889 -113 C 889 -93 885 -77 877 -63 C 869 -49 854 -38 834 -29 C 813 -19 785 -11 749 -5 C 713 0 667 4 612 8 L 424 20 C 412 20 401 20 391 22 C 380 23 369 25 358 27 C 322 10 296 -10 281 -34 C 265 -58 258 -85 258 -113 C 258 -161 285 -194 340 -212 C 395 -230 478 -240 590 -240 Z" unicode="g" />
<glyph horiz-adv-x="1235" d="M 141 0 L 141 1516 L 395 1516 L 395 940 C 412 958 433 977 459 997 C 484 1017 513 1035 547 1052 C 579 1068 616 1081 657 1092 C 698 1102 743 1108 793 1108 C 840 1108 883 1101 922 1087 C 960 1073 993 1052 1021 1025 C 1048 997 1069 962 1084 922 C 1098 881 1106 834 1106 780 L 1106 0 L 852 0 L 852 717 C 852 777 839 822 813 850 C 787 878 746 893 690 893 C 634 893 583 880 535 854 C 487 828 441 794 395 752 L 395 0 L 141 0 Z" unicode="h" />
<glyph horiz-adv-x="557" d="M 152 0 L 152 1087 L 406 1087 L 406 0 L 152 0 Z M 150 1276 L 150 1495 L 408 1495 L 408 1276 L 150 1276 Z" unicode="i" />
<glyph horiz-adv-x="557" d="M 102 -414 C 90 -414 76 -413 60 -412 C 44 -411 29 -410 14 -409 C -1 -407 -15 -406 -27 -405 C -39 -403 -47 -402 -51 -401 L -51 -225 C -41 -227 -29 -228 -14 -230 C 1 -232 16 -233 31 -233 C 71 -233 101 -222 121 -202 C 141 -181 152 -146 152 -96 L 152 1087 L 406 1087 L 406 -135 C 406 -172 402 -208 394 -242 C 386 -276 371 -305 349 -331 C 326 -356 295 -376 255 -391 C 215 -406 164 -414 102 -414 Z M 150 1276 L 150 1495 L 408 1495 L 408 1276 L 150 1276 Z" unicode="j" />
<glyph horiz-adv-x="1153" d="M 141 0 L 141 1516 L 393 1516 L 393 612 L 805 1087 L 1081 1087 L 727 690 L 1112 0 L 848 0 L 567 504 L 393 313 L 393 0 L 141 0 Z" unicode="k" />
<glyph horiz-adv-x="557" d="M 152 0 L 152 1516 L 406 1516 L 406 0 L 152 0 Z" unicode="l" />
<glyph horiz-adv-x="1892" d="M 141 0 L 141 1087 L 393 1087 L 393 938 C 413 960 437 982 463 1003 C 489 1023 517 1042 549 1058 C 579 1073 613 1085 649 1094 C 685 1103 724 1108 766 1108 C 811 1108 850 1103 883 1095 C 915 1086 943 1074 967 1059 C 989 1043 1008 1024 1024 1002 C 1039 980 1052 956 1063 930 C 1084 953 1108 975 1135 997 C 1162 1019 1192 1038 1224 1055 C 1255 1071 1289 1083 1326 1093 C 1363 1103 1402 1108 1444 1108 C 1499 1108 1547 1100 1587 1084 C 1627 1068 1660 1045 1686 1017 C 1711 988 1730 953 1742 913 C 1754 873 1761 828 1761 780 L 1761 0 L 1509 0 L 1509 717 C 1509 747 1506 773 1502 795 C 1497 817 1489 836 1478 851 C 1466 865 1450 875 1430 882 C 1410 889 1386 893 1356 893 C 1304 893 1257 880 1213 854 C 1169 828 1123 794 1077 752 L 1077 0 L 825 0 L 825 717 C 825 747 822 773 818 795 C 813 817 805 836 794 851 C 782 865 766 875 746 882 C 726 889 702 893 672 893 C 646 893 622 889 599 883 C 575 876 552 866 530 854 C 507 841 484 826 462 809 C 439 791 416 772 393 752 L 393 0 L 141 0 Z" unicode="m" />
<glyph horiz-adv-x="1235" d="M 143 0 L 143 1087 L 395 1087 L 395 913 C 415 937 439 960 465 983 C 491 1006 520 1027 553 1046 C 585 1064 620 1079 658 1091 C 696 1102 738 1108 784 1108 C 834 1108 878 1101 918 1088 C 958 1075 992 1056 1020 1030 C 1047 1004 1068 971 1083 931 C 1098 891 1106 845 1106 791 L 1106 0 L 854 0 L 854 719 C 854 779 841 824 815 854 C 789 884 748 899 690 899 C 634 899 583 886 535 861 C 487 835 441 801 395 758 L 395 0 L 143 0 Z" unicode="n" />
<glyph horiz-adv-x="1221" d="M 610 -23 C 544 -23 479 -12 416 9 C 352 31 296 65 246 111 C 196 157 155 215 125 287 C 95 358 80 443 80 543 C 80 643 95 728 125 800 C 155 872 196 930 246 976 C 295 1021 351 1054 415 1076 C 478 1097 543 1108 610 1108 C 676 1108 740 1097 804 1076 C 868 1054 925 1021 975 976 C 1024 930 1064 872 1095 800 C 1125 728 1141 643 1141 543 C 1141 477 1134 417 1120 363 C 1106 309 1086 261 1062 219 C 1037 177 1008 140 974 110 C 940 80 904 55 865 36 C 825 16 784 1 741 -8 C 697 -18 654 -23 610 -23 Z M 610 188 C 701 188 770 219 817 281 C 863 343 887 431 887 543 C 887 593 881 640 870 683 C 859 725 842 762 820 794 C 797 824 768 848 734 866 C 699 884 658 893 610 893 C 564 893 524 885 490 869 C 455 853 426 830 404 800 C 380 770 363 733 351 690 C 339 646 334 597 334 543 C 334 491 339 443 350 400 C 360 356 377 319 400 288 C 422 256 451 232 486 214 C 520 196 562 188 610 188 Z" unicode="o" />
<glyph horiz-adv-x="1251" d="M 141 -410 L 141 1087 L 393 1087 L 393 944 C 411 965 431 986 455 1006 C 478 1026 504 1043 533 1059 C 561 1073 593 1085 627 1094 C 661 1103 699 1108 739 1108 C 801 1108 858 1096 911 1073 C 963 1049 1009 1014 1047 968 C 1085 921 1114 862 1136 792 C 1158 721 1169 639 1169 545 C 1169 451 1157 368 1135 298 C 1113 228 1081 169 1041 123 C 1000 76 951 41 894 18 C 837 -4 774 -16 705 -16 C 646 -16 589 -4 535 18 C 480 41 433 75 393 121 L 393 -410 L 141 -410 Z M 649 184 C 744 184 813 213 855 272 C 897 331 918 421 918 543 C 918 658 894 745 848 804 C 802 863 738 893 657 893 C 631 893 605 889 580 881 C 555 873 531 863 509 851 C 485 838 464 823 444 807 C 424 791 407 774 393 756 L 393 319 C 427 275 466 241 512 218 C 558 195 603 184 649 184 Z" unicode="p" />
<glyph horiz-adv-x="1251" d="M 858 -410 L 858 147 C 838 123 816 102 793 82 C 769 62 744 45 716 31 C 688 16 657 4 623 -3 C 589 -11 552 -16 512 -16 C 450 -16 392 -4 340 18 C 287 40 242 75 204 121 C 166 167 136 225 114 295 C 92 365 82 447 82 541 C 82 635 93 717 115 788 C 137 859 169 918 210 966 C 250 1013 299 1048 356 1072 C 413 1096 477 1108 547 1108 C 605 1108 662 1096 716 1073 C 770 1050 818 1016 858 971 L 858 1087 L 1110 1087 L 1110 -410 L 858 -410 Z M 594 190 C 620 190 645 193 671 201 C 696 209 720 219 743 232 C 765 244 786 259 806 276 C 826 292 843 310 858 328 L 858 764 C 824 808 784 841 738 864 C 692 887 647 899 602 899 C 554 899 514 891 480 876 C 446 860 418 838 397 808 C 375 777 359 739 349 693 C 339 647 334 595 334 535 C 334 419 357 333 403 276 C 449 218 512 190 594 190 Z" unicode="q" />
<glyph horiz-adv-x="844" d="M 141 0 L 141 1087 L 393 1087 L 393 909 L 397 909 C 413 936 433 962 457 986 C 481 1010 509 1031 541 1049 C 572 1067 608 1081 649 1092 C 690 1102 736 1108 788 1108 L 805 1108 L 797 877 C 793 877 789 878 783 878 C 777 878 770 879 764 880 C 756 880 749 880 743 880 C 737 880 732 881 729 881 C 688 881 651 876 618 867 C 584 858 554 845 527 829 C 499 811 475 791 453 767 C 431 743 411 717 393 688 L 393 0 L 141 0 Z" unicode="r" />
<glyph horiz-adv-x="1071" d="M 539 -23 C 489 -23 440 -18 393 -10 C 346 -1 302 10 261 26 C 219 41 181 59 147 80 C 113 101 83 124 59 150 L 197 303 C 217 285 240 269 265 253 C 290 237 317 224 347 213 C 375 201 406 191 438 184 C 470 177 503 174 539 174 C 606 174 659 183 698 202 C 736 221 756 253 756 299 C 756 321 749 339 736 354 C 723 369 706 382 684 393 C 662 403 636 413 607 421 C 577 429 546 436 514 444 C 482 451 451 459 419 467 C 387 475 355 485 325 497 C 294 508 265 522 239 538 C 212 554 189 573 169 597 C 149 619 133 646 121 678 C 109 709 104 746 104 788 C 104 836 113 879 133 919 C 153 958 180 992 216 1020 C 251 1048 293 1069 343 1085 C 393 1100 448 1108 508 1108 C 560 1108 607 1104 649 1097 C 691 1090 731 1080 767 1067 C 802 1053 835 1037 866 1018 C 896 999 926 978 954 954 L 834 791 C 814 807 791 822 766 836 C 740 850 714 863 687 874 C 659 884 632 893 604 899 C 576 905 550 909 526 909 C 491 909 462 906 438 900 C 414 894 396 887 382 877 C 367 867 357 855 351 842 C 345 828 342 814 342 799 C 342 777 348 758 361 743 C 373 728 391 715 413 705 C 434 694 459 685 488 677 C 517 669 548 662 580 655 C 610 648 642 641 675 633 C 707 625 739 615 770 605 C 800 593 829 580 856 564 C 883 548 907 528 928 506 C 948 482 963 455 975 423 C 987 391 993 355 993 313 C 993 255 981 206 957 164 C 933 122 900 87 859 60 C 817 32 769 11 714 -2 C 659 -16 601 -23 539 -23 Z" unicode="s" />
<glyph horiz-adv-x="825" d="M 563 -14 C 493 -14 437 -7 394 5 C 350 17 316 36 292 62 C 266 86 249 117 240 155 C 231 192 227 235 227 285 L 227 887 L 39 887 L 39 1087 L 227 1087 L 227 1466 L 479 1466 L 479 1087 L 760 1087 L 760 887 L 479 887 L 479 348 C 479 318 481 293 486 273 C 491 252 500 235 512 222 C 524 208 540 199 561 193 C 581 187 607 184 639 184 C 657 184 677 185 698 188 C 718 190 735 194 748 199 L 748 0 C 741 -1 731 -2 717 -4 C 703 -6 687 -7 670 -9 C 652 -10 633 -11 615 -12 C 596 -13 579 -14 563 -14 Z" unicode="t" />
<glyph horiz-adv-x="1235" d="M 442 -20 C 394 -20 351 -13 313 1 C 274 15 241 35 214 63 C 186 90 165 124 151 165 C 136 205 129 253 129 307 L 129 1087 L 383 1087 L 383 367 C 383 306 396 261 422 233 C 448 204 489 190 545 190 C 600 190 651 203 699 229 C 747 255 794 290 840 332 L 840 1087 L 1094 1087 L 1094 0 L 840 0 L 840 147 C 822 129 801 110 776 90 C 750 70 721 53 689 37 C 655 20 618 6 577 -4 C 536 -14 491 -20 442 -20 Z" unicode="u" />
<glyph horiz-adv-x="1079" d="M 412 -2 L 18 1087 L 283 1087 L 549 285 L 553 285 L 817 1087 L 1061 1087 L 668 -2 L 412 -2 Z" unicode="v" />
<glyph horiz-adv-x="1563" d="M 348 0 L 25 1087 L 281 1087 L 399 637 C 407 606 414 577 421 550 C 428 523 435 496 442 470 C 448 443 455 415 461 386 C 467 357 473 325 481 291 L 485 291 C 493 327 500 360 507 390 C 514 419 521 447 528 474 C 534 500 540 527 547 554 C 554 580 562 609 571 641 L 686 1087 L 891 1087 L 1012 633 C 1020 603 1028 574 1035 548 C 1042 521 1049 495 1056 469 C 1062 442 1068 414 1074 386 C 1080 357 1088 325 1096 291 L 1100 291 C 1108 326 1115 358 1122 386 C 1128 414 1135 442 1142 468 C 1148 494 1155 519 1162 545 C 1169 571 1177 599 1186 629 L 1309 1087 L 1538 1087 L 1214 0 L 979 0 L 782 756 L 778 756 L 582 0 L 348 0 Z" unicode="w" />
<glyph horiz-adv-x="1092" d="M 39 0 L 418 561 L 66 1087 L 334 1087 L 561 739 L 780 1087 L 1040 1087 L 684 561 L 1061 0 L 793 0 L 543 381 L 297 0 L 39 0 Z" unicode="x" />
<glyph horiz-adv-x="1120" d="M 256 -422 C 191 -422 138 -418 98 -411 C 58 -403 24 -396 -2 -389 L 55 -186 C 70 -190 94 -195 126 -201 C 158 -206 196 -209 240 -209 C 284 -209 320 -199 346 -180 C 372 -161 394 -130 412 -86 L 442 -6 L 25 1087 L 287 1087 L 567 295 L 571 295 L 850 1087 L 1100 1087 L 637 -119 C 619 -166 599 -208 577 -246 C 555 -284 530 -316 501 -342 C 471 -368 436 -387 396 -401 C 356 -415 310 -422 256 -422 Z" unicode="y" />
<glyph horiz-adv-x="1065" d="M 70 0 L 70 145 L 649 887 L 113 887 L 113 1087 L 965 1087 L 965 936 L 383 195 L 999 195 L 999 0 L 70 0 Z" unicode="z" />
<glyph horiz-adv-x="852" d="M 567 -410 C 519 -410 478 -403 443 -389 C 408 -375 379 -356 357 -331 C 333 -305 316 -274 304 -238 C 292 -202 287 -161 287 -117 L 287 217 C 287 267 282 308 273 340 C 263 372 249 397 231 416 C 211 434 187 446 159 453 C 131 459 97 463 59 463 L 59 643 C 97 643 131 646 159 653 C 187 659 211 672 231 691 C 249 709 263 734 273 766 C 282 798 287 839 287 889 L 287 1223 C 287 1267 292 1308 304 1344 C 316 1380 333 1410 357 1436 C 379 1461 408 1481 443 1495 C 478 1509 519 1516 567 1516 L 791 1516 L 791 1335 L 700 1335 C 644 1335 604 1321 579 1294 C 553 1267 541 1228 541 1176 L 541 860 C 541 810 537 767 529 733 C 521 698 510 669 496 646 C 480 622 462 604 440 590 C 418 576 394 564 367 555 L 367 551 C 394 541 418 530 440 516 C 462 502 480 483 496 460 C 510 436 521 407 529 373 C 537 338 541 296 541 246 L 541 -70 C 541 -122 553 -161 579 -188 C 604 -215 644 -229 700 -229 L 791 -229 L 791 -410 L 567 -410 Z" unicode="{" />
<glyph horiz-adv-x="772" d="M 262 -410 L 262 1516 L 510 1516 L 510 -410 L 262 -410 Z" unicode="|" />
<glyph horiz-adv-x="852" d="M 61 -410 L 61 -229 L 152 -229 C 207 -229 247 -215 273 -188 C 298 -161 311 -122 311 -70 L 311 266 C 311 316 314 357 322 390 C 330 422 341 449 357 470 C 371 490 389 507 411 519 C 433 531 457 541 485 551 L 485 555 C 457 564 433 575 411 587 C 389 599 371 615 357 636 C 341 656 330 683 322 716 C 314 748 311 790 311 840 L 311 1176 C 311 1228 299 1268 275 1296 C 251 1324 211 1339 156 1339 L 66 1339 L 61 1516 L 305 1516 C 352 1516 392 1510 425 1498 C 458 1486 485 1469 506 1447 C 526 1423 541 1395 551 1361 C 560 1327 565 1287 565 1243 L 565 889 C 565 839 569 798 579 766 C 588 734 602 709 622 691 C 640 672 664 659 692 653 C 720 646 754 643 793 643 L 793 463 C 754 463 720 459 692 453 C 664 446 640 434 622 416 C 602 397 588 372 579 340 C 569 308 565 267 565 217 L 565 -137 C 565 -181 560 -221 551 -255 C 541 -289 526 -317 506 -341 C 485 -363 458 -380 425 -392 C 392 -404 352 -410 305 -410 L 61 -410 Z" unicode="}" />
<glyph horiz-adv-x="1315" d="M 934 537 C 907 537 877 541 844 548 C 811 555 777 564 742 574 C 706 584 671 594 635 606 C 599 618 565 629 533 639 C 501 649 471 657 445 664 C 419 671 397 675 381 676 C 354 678 332 672 315 659 C 297 646 287 621 283 584 L 129 606 C 135 655 145 697 159 732 C 173 766 192 795 214 817 C 235 839 260 854 288 864 C 316 873 347 877 381 877 C 408 876 438 872 472 865 C 506 857 540 849 576 839 C 611 828 646 817 682 805 C 717 793 751 783 783 773 C 815 762 844 753 870 746 C 896 739 917 735 934 735 C 947 734 959 735 971 738 C 982 740 992 745 1001 753 C 1009 760 1016 770 1022 783 C 1028 795 1032 811 1034 831 L 1186 813 C 1180 763 1169 720 1155 685 C 1141 649 1123 621 1102 599 C 1080 576 1054 560 1026 550 C 998 540 967 535 934 537 Z" unicode="~" />
<glyph horiz-adv-x="514" d="" unicode=" " />
<glyph horiz-adv-x="694" d="M 184 0 L 252 1063 L 432 1063 L 500 0 L 184 0 Z M 201 1260 L 201 1516 L 483 1516 L 483 1260 L 201 1260 Z" unicode="¡" />
<glyph horiz-adv-x="1124" d="M 348 35 C 310 55 274 81 242 112 C 209 143 181 180 157 222 C 133 264 114 311 100 365 C 86 418 80 477 80 543 C 80 610 87 671 102 725 C 116 779 136 828 162 870 C 186 911 216 947 250 977 C 284 1007 320 1032 359 1052 C 397 1071 437 1085 479 1094 C 520 1103 561 1108 602 1108 C 611 1108 620 1108 629 1108 C 638 1108 647 1107 655 1106 L 713 1307 L 852 1307 L 786 1079 C 822 1066 855 1049 883 1029 C 911 1009 936 986 958 962 C 979 936 998 909 1014 880 C 1030 851 1045 821 1057 791 L 854 715 C 838 759 819 794 797 820 C 775 846 749 866 721 879 L 524 186 C 534 182 545 180 557 179 C 569 178 581 178 594 178 C 622 178 648 181 674 187 C 700 193 724 203 747 218 C 769 232 789 252 809 277 C 828 302 846 334 862 373 L 1061 297 C 1041 253 1018 212 991 173 C 963 134 931 100 893 72 C 855 42 810 19 760 2 C 710 -14 652 -23 588 -23 C 568 -23 549 -21 530 -19 C 511 -17 492 -14 473 -10 L 401 -264 L 260 -264 L 348 35 Z M 602 901 L 598 901 C 562 901 527 895 493 883 C 459 871 429 851 403 823 C 376 795 355 758 339 712 C 323 666 315 610 315 543 C 315 470 323 409 341 360 C 358 311 382 272 414 242 L 602 901 Z" unicode="¢" />
<glyph horiz-adv-x="1346" d="M 182 690 L 182 858 L 367 858 C 341 901 320 945 304 990 C 287 1035 279 1085 279 1139 C 279 1197 289 1250 309 1300 C 329 1349 357 1392 395 1428 C 432 1464 477 1492 531 1513 C 584 1533 644 1544 711 1544 C 791 1544 859 1532 914 1510 C 969 1487 1014 1457 1050 1421 C 1084 1383 1111 1341 1129 1294 C 1147 1246 1161 1198 1169 1149 L 942 1106 C 938 1138 931 1167 922 1195 C 912 1223 899 1247 882 1268 C 864 1288 841 1303 815 1315 C 788 1327 755 1333 717 1333 C 685 1333 657 1328 633 1318 C 609 1308 589 1295 573 1279 C 557 1261 544 1241 536 1217 C 528 1193 524 1168 524 1141 C 524 1115 527 1091 533 1067 C 539 1043 547 1020 557 998 C 566 974 577 951 590 928 C 602 905 615 882 629 858 L 987 858 L 987 690 L 709 690 C 722 656 732 620 740 583 C 748 545 752 504 752 459 C 752 419 748 382 741 347 C 734 311 724 278 711 246 C 741 226 772 210 804 196 C 835 182 868 176 903 176 C 936 176 964 180 986 188 C 1008 196 1025 209 1039 227 C 1052 244 1062 267 1068 296 C 1074 324 1077 359 1079 401 L 1303 401 C 1303 343 1297 289 1285 237 C 1273 185 1254 139 1227 100 C 1199 60 1161 29 1115 6 C 1069 -17 1011 -29 942 -29 C 906 -29 873 -25 842 -19 C 811 -12 782 -3 755 9 C 727 20 702 33 678 48 C 654 63 631 79 610 96 C 570 56 524 26 472 4 C 420 -18 361 -29 295 -29 C 264 -29 233 -24 203 -15 C 173 -6 146 7 122 26 C 98 44 78 67 63 95 C 48 123 41 157 41 197 C 41 237 47 272 61 303 C 74 334 93 361 117 383 C 141 404 169 420 202 432 C 234 443 270 449 309 449 C 351 449 389 441 425 427 C 461 413 496 395 530 375 C 531 385 532 395 532 405 C 532 415 532 426 532 438 C 532 485 525 529 512 571 C 498 612 482 652 463 690 L 182 690 Z M 479 209 C 450 233 422 254 395 271 C 368 288 340 297 311 297 C 279 297 254 288 236 271 C 218 253 209 231 209 203 C 209 176 218 154 236 137 C 254 119 279 111 309 111 C 347 111 380 119 408 136 C 436 153 460 177 479 209 Z" unicode="£" />
<glyph horiz-adv-x="1315" d="M 656 361 C 622 361 589 365 558 373 C 527 381 499 392 473 408 L 269 204 L 122 351 L 324 553 C 308 579 295 608 286 640 C 277 671 273 704 273 740 C 273 775 277 808 285 839 C 293 869 305 898 321 925 L 122 1122 L 269 1270 L 470 1071 C 496 1086 525 1098 557 1106 C 588 1114 621 1119 656 1119 C 691 1119 724 1115 756 1107 C 788 1099 817 1087 843 1072 L 1040 1270 L 1188 1122 L 992 927 C 1007 900 1019 871 1027 841 C 1035 810 1040 777 1040 742 C 1040 706 1035 673 1027 641 C 1018 609 1006 580 990 554 L 1191 354 L 1043 207 L 842 409 C 814 393 785 381 754 373 C 723 365 690 361 656 361 Z M 656 508 C 688 508 718 513 745 524 C 772 535 795 551 815 572 C 834 592 849 616 860 645 C 871 673 877 705 877 741 C 877 776 871 808 860 837 C 849 865 834 890 815 910 C 795 930 772 945 745 956 C 718 967 688 973 656 973 C 624 973 594 967 567 956 C 540 945 517 930 498 910 C 478 890 463 865 453 837 C 442 808 437 776 437 741 C 437 705 442 673 453 645 C 463 616 478 592 498 572 C 517 551 540 535 567 524 C 594 513 624 508 656 508 Z" unicode="¤" />
<glyph horiz-adv-x="1343" d="M 543 0 L 543 199 L 166 199 L 166 369 L 543 369 L 543 512 L 166 512 L 166 682 L 537 682 L 39 1516 L 307 1516 L 674 891 L 1040 1516 L 1305 1516 L 803 682 L 1180 682 L 1180 512 L 799 512 L 799 369 L 1180 369 L 1180 199 L 799 199 L 799 0 L 543 0 Z" unicode="¥" />
<glyph horiz-adv-x="772" d="M 262 678 L 262 1516 L 510 1516 L 510 678 L 262 678 Z M 262 -410 L 262 428 L 510 428 L 510 -410 L 262 -410 Z" unicode="¦" />
<glyph horiz-adv-x="1149" d="M 573 -410 C 499 -410 437 -401 386 -385 C 335 -368 293 -346 260 -319 C 226 -291 199 -260 180 -225 C 160 -190 145 -154 135 -117 L 324 -39 C 332 -67 343 -93 356 -116 C 369 -138 385 -157 404 -173 C 422 -188 445 -200 471 -208 C 497 -216 527 -221 563 -221 C 596 -221 624 -217 646 -210 C 668 -202 686 -192 700 -180 C 713 -167 722 -152 728 -135 C 734 -117 737 -99 737 -80 C 737 -57 732 -36 722 -16 C 712 3 696 23 676 43 C 654 63 628 83 596 104 C 564 124 526 147 483 172 C 428 204 378 234 332 263 C 286 292 246 323 214 356 C 180 388 154 423 136 461 C 118 499 109 542 109 592 C 109 631 115 667 129 701 C 142 734 159 764 181 792 C 202 818 226 842 253 863 C 279 884 306 902 332 918 C 302 940 276 963 256 985 C 236 1007 219 1029 207 1052 C 193 1074 184 1097 178 1122 C 172 1146 170 1173 170 1202 C 170 1247 179 1290 197 1332 C 215 1373 242 1409 277 1441 C 311 1472 353 1497 403 1516 C 453 1534 511 1544 575 1544 C 649 1544 713 1535 765 1519 C 817 1503 860 1481 895 1454 C 929 1426 956 1395 976 1360 C 996 1324 1011 1288 1022 1251 L 823 1167 C 813 1195 801 1222 786 1246 C 771 1270 754 1290 734 1308 C 714 1324 691 1337 666 1347 C 641 1357 614 1362 586 1362 C 552 1362 524 1358 501 1350 C 477 1342 458 1331 444 1318 C 428 1304 417 1288 411 1270 C 404 1252 401 1233 401 1214 C 401 1191 406 1170 417 1150 C 428 1130 445 1111 467 1092 C 489 1072 516 1051 549 1031 C 581 1010 620 987 664 963 C 720 931 770 901 816 872 C 862 842 901 812 935 780 C 967 747 993 711 1011 673 C 1029 635 1038 591 1038 543 C 1038 503 1031 467 1018 433 C 1004 399 987 369 967 342 C 945 314 921 290 895 269 C 869 247 843 229 817 215 C 846 191 870 169 890 147 C 909 125 925 104 937 82 C 948 59 956 35 961 11 C 966 -13 969 -40 969 -68 C 969 -113 960 -156 943 -198 C 925 -239 900 -275 867 -307 C 833 -338 792 -363 743 -382 C 693 -400 637 -410 573 -410 Z M 680 309 C 727 333 763 361 789 393 C 814 424 827 458 827 496 C 827 522 823 546 815 567 C 807 587 792 608 771 630 C 749 651 718 674 680 700 C 642 725 592 755 532 791 L 467 825 C 423 801 387 774 361 742 C 335 710 322 676 322 639 C 322 612 326 588 334 567 C 342 546 357 525 379 504 C 400 482 430 459 468 434 C 506 409 556 379 616 344 C 627 338 638 332 649 326 C 660 320 670 314 680 309 Z" unicode="§" />
<glyph horiz-adv-x="1065" d="M 213 1444 L 442 1444 L 442 1196 L 213 1196 L 213 1444 Z M 618 1444 L 848 1444 L 848 1196 L 618 1196 L 618 1444 Z" unicode="¨" />
<glyph horiz-adv-x="1772" d="M 885 -29 C 811 -29 740 -19 673 -1 C 605 16 543 43 485 77 C 427 110 374 150 327 198 C 280 245 240 298 207 357 C 173 415 147 477 129 545 C 111 612 102 682 102 756 C 102 829 111 899 129 967 C 147 1034 174 1097 208 1156 C 241 1214 281 1267 329 1315 C 377 1363 430 1404 489 1438 C 547 1471 609 1497 677 1516 C 744 1534 815 1544 889 1544 C 999 1544 1101 1523 1196 1483 C 1291 1443 1374 1387 1444 1317 C 1514 1246 1569 1163 1609 1068 C 1649 972 1669 870 1669 760 C 1669 686 1659 616 1641 548 C 1623 480 1597 418 1564 360 C 1530 301 1489 248 1442 200 C 1394 152 1342 111 1284 78 C 1226 44 1163 17 1096 -1 C 1028 -19 958 -29 885 -29 Z M 889 90 C 981 90 1067 107 1147 141 C 1226 175 1295 223 1354 283 C 1412 342 1457 412 1490 493 C 1523 574 1540 662 1540 756 C 1540 849 1523 936 1489 1018 C 1455 1099 1409 1170 1351 1231 C 1292 1291 1223 1338 1143 1373 C 1063 1407 977 1425 885 1425 C 791 1425 705 1408 625 1374 C 545 1340 476 1293 418 1234 C 359 1174 313 1103 280 1022 C 247 941 231 854 231 760 C 231 666 247 578 281 497 C 315 415 361 345 421 285 C 479 224 549 176 629 142 C 709 107 795 90 889 90 Z M 881 317 C 827 317 777 327 733 347 C 688 367 650 397 618 436 C 586 474 561 521 544 577 C 526 633 518 696 518 766 C 518 834 526 895 543 950 C 560 1004 585 1051 617 1090 C 648 1128 686 1158 732 1179 C 777 1199 828 1210 885 1210 C 931 1210 973 1203 1009 1191 C 1045 1178 1077 1160 1105 1137 C 1132 1113 1155 1084 1173 1050 C 1191 1016 1204 979 1214 938 L 1067 899 C 1051 953 1030 996 1003 1026 C 976 1056 937 1071 887 1071 C 855 1071 826 1063 801 1049 C 775 1034 754 1014 737 988 C 719 961 705 929 696 891 C 686 853 682 812 682 766 C 682 718 686 675 696 637 C 705 599 718 568 736 542 C 753 516 774 496 800 482 C 826 468 855 461 887 461 C 937 461 976 476 1006 506 C 1036 536 1058 583 1073 645 L 1147 625 C 1156 622 1165 619 1174 617 C 1183 615 1191 613 1199 612 C 1206 610 1212 608 1217 607 C 1221 606 1224 606 1225 606 C 1213 562 1197 522 1178 486 C 1159 450 1136 420 1108 396 C 1080 370 1047 351 1010 337 C 972 323 929 317 881 317 Z" unicode="©" />
<glyph horiz-adv-x="889" d="M 311 745 C 279 745 249 749 222 758 C 195 766 172 779 153 796 C 133 812 117 833 106 857 C 95 881 90 910 90 942 C 90 983 99 1021 117 1055 C 135 1089 165 1120 205 1147 C 245 1173 296 1195 359 1213 C 421 1231 497 1245 586 1255 L 586 1280 C 586 1316 576 1343 557 1363 C 538 1383 508 1393 467 1393 C 414 1393 367 1383 325 1365 C 283 1347 244 1322 207 1290 L 119 1395 C 139 1415 162 1433 187 1451 C 212 1468 240 1483 270 1496 C 300 1508 333 1517 370 1525 C 406 1532 447 1536 492 1536 C 588 1536 658 1512 702 1464 C 746 1416 768 1348 768 1260 L 768 948 C 768 902 769 865 773 836 C 777 806 783 781 793 760 L 604 760 C 599 776 595 793 592 811 C 589 829 587 847 586 866 C 548 828 506 798 462 777 C 417 755 367 745 311 745 Z M 375 889 C 420 889 460 897 494 914 C 528 931 558 952 586 977 L 586 1149 C 524 1141 473 1131 433 1120 C 393 1108 361 1095 337 1081 C 313 1065 296 1049 286 1031 C 276 1013 272 995 272 975 C 272 946 281 924 300 910 C 318 896 343 889 375 889 Z" unicode="ª" />
<glyph horiz-adv-x="1204" d="M 391 0 L 66 545 L 391 1087 L 637 1087 L 324 545 L 637 0 L 391 0 Z M 874 0 L 547 545 L 874 1087 L 1118 1087 L 803 545 L 1118 0 L 874 0 Z" unicode="«" />
<glyph horiz-adv-x="1309" d="M 1171 176 L 967 176 L 967 600 L 137 600 L 137 817 L 1171 817 L 1171 176 Z" unicode="¬" />
<glyph horiz-adv-x="731" d="M 113 553 L 113 733 L 618 733 L 618 553 L 113 553 Z" unicode="­" />
<glyph horiz-adv-x="1098" d="M 549 598 C 482 598 420 610 362 634 C 304 658 255 692 213 735 C 170 777 136 827 112 885 C 88 943 76 1005 76 1073 C 76 1139 88 1201 113 1259 C 137 1317 171 1367 214 1410 C 256 1452 306 1486 364 1511 C 422 1535 484 1548 551 1548 C 617 1548 679 1535 737 1511 C 794 1487 844 1453 887 1411 C 929 1368 962 1318 986 1261 C 1010 1203 1022 1141 1022 1075 C 1022 1007 1009 945 985 887 C 961 829 927 778 885 736 C 842 693 792 659 735 635 C 677 610 615 598 549 598 Z M 551 676 C 606 676 657 686 705 706 C 752 726 793 754 829 790 C 863 825 890 867 910 916 C 930 964 940 1017 940 1073 C 940 1129 930 1181 910 1229 C 890 1277 862 1320 828 1356 C 792 1391 751 1419 703 1439 C 655 1459 604 1470 549 1470 C 493 1470 442 1459 395 1439 C 347 1419 306 1391 272 1356 C 236 1320 209 1279 189 1231 C 169 1183 160 1131 160 1075 C 160 1019 170 966 190 918 C 210 869 237 827 273 791 C 307 755 348 726 396 706 C 444 686 495 676 551 676 Z M 367 1343 L 561 1343 C 623 1343 671 1329 705 1303 C 739 1277 756 1237 756 1184 C 756 1142 746 1109 728 1086 C 709 1063 684 1046 653 1036 L 766 823 L 657 823 L 553 1022 L 471 1022 L 471 823 L 367 823 L 367 1343 Z M 555 1102 C 587 1102 611 1107 628 1119 C 644 1130 653 1150 653 1178 C 653 1203 644 1221 627 1233 C 610 1245 585 1251 553 1251 L 471 1251 L 471 1102 L 555 1102 Z" unicode="®" />
<glyph horiz-adv-x="1024" d="M 193 1382 L 831 1382 L 831 1196 L 193 1196 L 193 1382 Z" unicode="¯" />
<glyph horiz-adv-x="840" d="M 420 920 C 374 920 332 927 294 943 C 256 959 223 980 195 1008 C 166 1035 144 1068 128 1106 C 112 1144 104 1185 104 1231 C 104 1275 112 1317 128 1355 C 144 1393 166 1426 195 1454 C 223 1481 256 1502 294 1518 C 332 1534 374 1542 420 1542 C 464 1542 506 1534 545 1519 C 583 1503 617 1482 645 1455 C 673 1427 695 1395 711 1357 C 727 1319 735 1277 735 1233 C 735 1187 727 1146 711 1108 C 695 1070 673 1037 645 1009 C 617 981 583 959 545 943 C 506 927 464 920 420 920 Z M 420 1051 C 444 1051 467 1055 487 1064 C 507 1072 525 1085 541 1101 C 555 1116 567 1135 575 1157 C 583 1179 588 1203 588 1231 C 588 1257 583 1282 575 1304 C 567 1326 555 1346 541 1362 C 525 1377 507 1389 487 1398 C 467 1406 444 1411 420 1411 C 395 1411 372 1406 352 1398 C 332 1389 314 1377 300 1362 C 284 1346 272 1326 264 1304 C 256 1282 252 1257 252 1231 C 252 1203 256 1179 264 1157 C 272 1135 284 1116 300 1101 C 314 1085 332 1072 352 1064 C 372 1055 395 1051 420 1051 Z" unicode="°" />
<glyph horiz-adv-x="1315" d="M 137 250 L 557 250 L 557 631 L 137 631 L 137 829 L 557 829 L 557 1262 L 760 1262 L 760 829 L 1180 829 L 1180 631 L 760 631 L 760 250 L 1180 250 L 1180 59 L 137 59 L 137 250 Z" unicode="±" />
<glyph horiz-adv-x="952" d="M 125 602 C 125 636 128 671 135 706 C 142 740 156 775 178 811 C 198 846 228 882 267 919 C 306 956 358 994 422 1034 C 458 1056 488 1075 512 1092 C 536 1108 555 1124 570 1140 C 584 1155 594 1171 600 1188 C 606 1204 610 1223 610 1245 C 610 1281 599 1309 578 1330 C 557 1351 526 1362 485 1362 C 447 1362 410 1349 374 1325 C 337 1301 304 1261 274 1206 L 129 1305 C 173 1381 224 1439 282 1478 C 340 1516 410 1536 492 1536 C 544 1536 589 1529 629 1515 C 669 1501 702 1482 730 1457 C 756 1431 776 1401 790 1366 C 804 1330 811 1291 811 1249 C 811 1219 807 1191 799 1164 C 791 1136 778 1109 760 1083 C 741 1056 716 1029 684 1003 C 652 976 611 949 563 922 C 495 882 446 845 416 813 C 386 780 367 750 360 723 L 815 723 L 815 553 L 125 553 L 125 602 Z" unicode="²" />
<glyph horiz-adv-x="952" d="M 471 537 C 392 537 320 553 256 587 C 192 621 139 670 98 735 L 227 844 C 245 818 263 796 282 778 C 301 760 321 746 341 736 C 360 725 379 717 399 713 C 418 709 437 707 457 707 C 513 707 555 719 582 745 C 609 770 623 802 623 842 C 623 890 605 927 571 951 C 537 975 479 987 399 987 L 330 987 L 330 1135 L 403 1135 C 440 1135 471 1137 497 1143 C 523 1148 544 1156 560 1167 C 575 1177 586 1189 593 1204 C 600 1219 604 1237 604 1257 C 604 1288 593 1314 572 1334 C 550 1354 517 1364 471 1364 C 435 1364 399 1355 363 1339 C 326 1322 289 1295 252 1257 L 135 1380 C 184 1432 238 1471 298 1497 C 357 1523 420 1536 487 1536 C 541 1536 588 1529 628 1516 C 668 1503 701 1485 729 1463 C 755 1439 775 1412 789 1381 C 802 1349 809 1315 809 1278 C 809 1232 797 1190 773 1152 C 749 1114 710 1086 657 1069 C 720 1049 766 1019 794 979 C 822 939 836 892 836 838 C 836 790 827 748 810 711 C 792 673 768 642 737 617 C 705 591 666 571 621 557 C 576 543 526 537 471 537 Z" unicode="³" />
<glyph horiz-adv-x="1024" d="M 514 1542 L 784 1542 L 487 1202 L 322 1202 L 514 1542 Z" unicode="´" />
<glyph horiz-adv-x="1245" d="M 141 -410 L 141 1087 L 393 1087 L 393 369 C 393 308 405 262 431 232 C 457 201 499 186 557 186 C 585 186 611 189 637 196 C 662 203 687 213 711 226 C 735 238 758 252 782 270 C 805 287 828 306 852 328 L 852 1087 L 1104 1087 L 1104 0 L 852 0 L 852 172 C 832 151 812 131 790 111 C 768 91 744 74 718 58 C 692 42 664 28 635 16 C 605 4 574 -3 541 -8 C 511 -10 483 -8 459 -4 C 434 0 412 9 393 25 L 393 -410 L 141 -410 Z" unicode="µ" />
<glyph horiz-adv-x="1290" d="M 602 -410 L 602 662 C 440 665 317 702 232 774 C 146 845 104 949 104 1085 C 104 1145 114 1202 134 1254 C 154 1306 185 1352 225 1391 C 264 1429 313 1460 371 1482 C 429 1504 497 1516 573 1516 L 1153 1516 L 1153 -410 L 973 -410 L 973 1321 L 782 1321 L 782 -410 L 602 -410 Z" unicode="¶" />
<glyph horiz-adv-x="575" d="M 141 541 L 141 807 L 434 807 L 434 541 L 141 541 Z" unicode="·" />
<glyph horiz-adv-x="1024" d="M 528 -408 C 474 -408 422 -401 373 -387 C 324 -373 282 -355 246 -332 L 297 -250 C 327 -270 361 -286 398 -296 C 434 -306 470 -311 506 -311 C 547 -311 578 -304 598 -291 C 618 -277 629 -257 629 -231 C 629 -209 622 -193 609 -183 C 595 -173 577 -168 555 -168 C 536 -168 519 -171 504 -178 C 489 -184 475 -193 461 -205 L 389 -170 L 440 0 L 557 0 L 528 -100 C 542 -90 560 -83 580 -78 C 600 -72 625 -70 653 -70 C 671 -70 689 -73 707 -79 C 725 -85 741 -94 755 -106 C 768 -118 779 -132 787 -150 C 795 -168 799 -188 799 -211 C 799 -243 791 -271 777 -296 C 763 -320 744 -341 720 -358 C 695 -374 666 -387 633 -395 C 600 -403 565 -408 528 -408 Z" unicode="¸" />
<glyph horiz-adv-x="760" d="M 143 717 L 317 717 L 317 1341 C 293 1329 266 1320 236 1313 C 205 1306 175 1303 145 1303 L 145 1454 C 185 1455 220 1460 250 1470 C 280 1480 305 1495 326 1516 L 524 1516 L 524 717 L 680 717 L 680 551 L 143 551 L 143 717 Z" unicode="¹" />
<glyph horiz-adv-x="924" d="M 463 745 C 415 745 369 752 324 767 C 279 782 239 806 204 838 C 168 870 140 911 118 961 C 96 1011 86 1071 86 1141 C 86 1211 96 1272 118 1322 C 140 1372 168 1413 204 1445 C 239 1476 279 1499 324 1514 C 369 1528 415 1536 463 1536 C 509 1536 555 1528 600 1514 C 644 1499 684 1476 720 1445 C 755 1413 783 1372 805 1322 C 827 1272 838 1211 838 1141 C 838 1071 827 1011 805 961 C 783 911 755 870 720 838 C 684 806 644 782 600 767 C 555 752 509 745 463 745 Z M 463 883 C 494 883 521 889 545 902 C 568 914 588 932 604 956 C 619 978 631 1005 639 1037 C 647 1069 651 1103 651 1141 C 651 1175 647 1208 640 1240 C 632 1271 621 1298 606 1322 C 590 1345 571 1364 547 1378 C 523 1392 495 1399 463 1399 C 431 1399 403 1392 379 1379 C 355 1366 336 1348 320 1326 C 304 1302 292 1275 284 1244 C 276 1212 272 1178 272 1141 C 272 1105 275 1072 283 1041 C 290 1010 301 983 317 960 C 332 936 352 917 376 903 C 400 889 429 883 463 883 Z" unicode="º" />
<glyph horiz-adv-x="1204" d="M 84 0 L 399 545 L 84 1087 L 330 1087 L 657 545 L 330 0 L 84 0 Z M 567 0 L 881 545 L 567 1087 L 811 1087 L 1137 545 L 811 0 L 567 0 Z" unicode="»" />
<glyph horiz-adv-x="2064" d="M 170 719 L 338 719 L 338 1309 C 315 1300 290 1293 262 1289 C 234 1284 205 1282 174 1282 L 174 1454 C 219 1456 256 1461 284 1470 C 312 1479 337 1494 358 1516 L 545 1516 L 545 719 L 692 719 L 692 551 L 170 551 L 170 719 Z M 1602 213 L 1163 213 L 1163 344 L 1591 967 L 1806 967 L 1806 377 L 1960 377 L 1960 213 L 1806 213 L 1806 0 L 1602 0 L 1602 213 Z M 1395 1516 L 1616 1516 L 709 0 L 487 0 L 1395 1516 Z M 1612 367 L 1612 735 L 1366 367 L 1612 367 Z" unicode="¼" />
<glyph horiz-adv-x="2136" d="M 1309 49 C 1309 83 1312 118 1320 152 C 1327 186 1341 221 1363 257 C 1384 291 1414 327 1454 364 C 1493 401 1544 440 1608 481 C 1639 501 1666 520 1689 536 C 1712 552 1731 569 1747 585 C 1762 601 1773 617 1781 634 C 1788 651 1792 670 1792 692 C 1792 728 1781 756 1759 777 C 1737 798 1707 809 1667 809 C 1631 809 1595 797 1559 773 C 1523 749 1489 709 1458 653 L 1313 752 C 1357 828 1408 886 1467 925 C 1525 963 1595 983 1675 983 C 1725 983 1770 976 1810 962 C 1850 948 1883 929 1911 904 C 1938 878 1959 848 1973 813 C 1987 777 1995 738 1995 696 C 1995 666 1991 638 1983 611 C 1975 583 1963 556 1945 530 C 1926 503 1901 476 1870 450 C 1838 423 1799 396 1751 369 C 1687 331 1639 295 1607 262 C 1575 228 1556 198 1550 170 L 2001 170 L 2001 0 L 1309 0 L 1309 49 Z M 1395 1516 L 1616 1516 L 709 0 L 487 0 L 1395 1516 Z M 170 719 L 338 719 L 338 1309 C 315 1300 290 1293 262 1289 C 234 1284 205 1282 174 1282 L 174 1454 C 219 1456 256 1461 284 1470 C 312 1479 337 1494 358 1516 L 545 1516 L 545 719 L 692 719 L 692 551 L 170 551 L 170 719 Z" unicode="½" />
<glyph horiz-adv-x="2134" d="M 471 537 C 392 537 320 553 256 587 C 192 621 139 670 98 735 L 227 844 C 245 818 263 796 282 778 C 301 760 321 746 341 736 C 360 725 379 717 399 713 C 418 709 437 707 457 707 C 513 707 555 719 582 745 C 609 770 623 802 623 842 C 623 890 605 927 571 951 C 537 975 479 987 399 987 L 330 987 L 330 1135 L 403 1135 C 440 1135 471 1137 497 1143 C 523 1148 544 1156 560 1167 C 575 1177 586 1189 593 1204 C 600 1219 604 1237 604 1257 C 604 1288 593 1314 572 1334 C 550 1354 517 1364 471 1364 C 435 1364 399 1355 363 1339 C 326 1322 289 1295 252 1257 L 135 1380 C 184 1432 238 1471 298 1497 C 357 1523 420 1536 487 1536 C 541 1536 588 1529 628 1516 C 668 1503 701 1485 729 1463 C 755 1439 775 1412 789 1381 C 802 1349 809 1315 809 1278 C 809 1232 797 1190 773 1152 C 749 1114 710 1086 657 1069 C 720 1049 766 1019 794 979 C 822 939 836 892 836 838 C 836 790 827 748 810 711 C 792 673 768 642 737 617 C 705 591 666 571 621 557 C 576 543 526 537 471 537 Z M 1671 213 L 1233 213 L 1233 344 L 1661 967 L 1876 967 L 1876 377 L 2030 377 L 2030 213 L 1876 213 L 1876 0 L 1671 0 L 1671 213 Z M 1464 1516 L 1686 1516 L 780 0 L 559 0 L 1464 1516 Z M 1681 367 L 1681 735 L 1436 367 L 1681 367 Z" unicode="¾" />
<glyph horiz-adv-x="1171" d="M 561 -29 C 485 -29 418 -19 360 -1 C 302 17 253 43 215 77 C 175 109 146 148 126 194 C 106 240 96 290 96 344 C 96 392 102 435 115 472 C 128 508 146 541 169 570 C 191 598 218 623 248 645 C 278 667 311 687 346 707 C 390 731 425 754 450 775 C 475 795 494 818 506 844 C 517 869 524 899 526 934 C 528 969 530 1013 530 1067 L 737 1067 C 740 1042 742 1018 742 995 C 742 972 743 948 743 924 C 743 848 725 785 690 734 C 655 683 606 640 543 604 C 509 584 480 566 456 550 C 432 534 412 517 396 499 C 380 481 368 461 360 439 C 352 417 348 392 348 362 C 348 310 368 270 409 241 C 450 211 508 197 584 197 C 622 197 658 202 693 212 C 727 222 760 235 791 252 C 821 268 848 287 873 308 C 898 329 920 351 940 373 L 1102 227 C 1072 191 1038 157 1002 126 C 966 95 926 68 882 46 C 837 22 788 4 735 -9 C 681 -22 623 -29 561 -29 Z M 494 1260 L 494 1516 L 774 1516 L 774 1260 L 494 1260 Z" unicode="¿" />
<glyph horiz-adv-x="1427" d="M 51 0 L 588 1522 L 840 1522 L 1376 0 L 1114 0 L 991 360 L 416 360 L 291 0 L 51 0 Z M 494 586 L 915 586 L 709 1200 L 705 1200 L 494 586 Z M 346 1945 L 618 1945 L 811 1605 L 645 1605 L 346 1945 Z" unicode="À" />
<glyph horiz-adv-x="1427" d="M 51 0 L 588 1522 L 840 1522 L 1376 0 L 1114 0 L 991 360 L 416 360 L 291 0 L 51 0 Z M 494 586 L 915 586 L 709 1200 L 705 1200 L 494 586 Z M 808 1945 L 1078 1945 L 781 1605 L 616 1605 L 808 1945 Z" unicode="Á" />
<glyph horiz-adv-x="1427" d="M 51 0 L 588 1522 L 840 1522 L 1376 0 L 1114 0 L 991 360 L 416 360 L 291 0 L 51 0 Z M 494 586 L 915 586 L 709 1200 L 705 1200 L 494 586 Z M 624 1945 L 798 1945 L 1062 1605 L 915 1605 L 710 1777 L 505 1605 L 360 1605 L 624 1945 Z" unicode="Â" />
<glyph horiz-adv-x="1427" d="M 51 0 L 588 1522 L 840 1522 L 1376 0 L 1114 0 L 991 360 L 416 360 L 291 0 L 51 0 Z M 494 586 L 915 586 L 709 1200 L 705 1200 L 494 586 Z M 868 1591 C 834 1591 803 1597 776 1609 C 749 1621 724 1634 701 1649 C 677 1663 655 1676 634 1688 C 613 1700 592 1706 571 1706 C 542 1706 521 1697 507 1680 C 493 1663 487 1635 487 1595 L 346 1595 C 346 1645 350 1688 360 1724 C 370 1760 384 1789 403 1813 C 421 1835 443 1852 469 1863 C 495 1874 525 1880 559 1880 C 593 1880 623 1874 650 1862 C 677 1850 702 1837 726 1823 C 749 1808 771 1795 793 1783 C 814 1771 836 1765 858 1765 C 886 1765 907 1773 921 1790 C 935 1807 942 1836 942 1876 L 1083 1876 C 1083 1776 1063 1704 1025 1659 C 987 1613 934 1591 868 1591 Z" unicode="Ã" />
<glyph horiz-adv-x="1427" d="M 51 0 L 588 1522 L 840 1522 L 1376 0 L 1114 0 L 991 360 L 416 360 L 291 0 L 51 0 Z M 494 586 L 915 586 L 709 1200 L 705 1200 L 494 586 Z M 393 1847 L 622 1847 L 622 1599 L 393 1599 L 393 1847 Z M 798 1847 L 1028 1847 L 1028 1599 L 798 1599 L 798 1847 Z" unicode="Ä" />
<glyph horiz-adv-x="1427" d="M 575 1485 C 553 1500 536 1520 523 1546 C 510 1571 504 1600 504 1632 C 504 1661 509 1688 520 1714 C 530 1739 545 1761 564 1780 C 582 1798 604 1812 630 1823 C 655 1833 683 1839 713 1839 C 743 1839 770 1833 796 1823 C 822 1812 844 1798 863 1780 C 881 1761 896 1739 906 1714 C 916 1688 922 1661 922 1632 C 922 1600 915 1571 903 1547 C 890 1522 873 1501 852 1485 L 1376 0 L 1114 0 L 991 360 L 416 360 L 291 0 L 51 0 L 575 1485 Z M 918 588 L 709 1200 L 705 1200 L 492 588 L 918 588 Z M 713 1526 C 743 1526 767 1535 785 1555 C 803 1574 813 1600 813 1632 C 813 1662 803 1686 785 1706 C 767 1725 743 1735 713 1735 C 683 1735 659 1725 640 1706 C 621 1686 612 1662 612 1632 C 612 1600 621 1574 640 1555 C 659 1535 683 1526 713 1526 Z" unicode="Å" />
<glyph horiz-adv-x="2134" d="M 41 0 L 903 1516 L 2011 1516 L 2011 1278 L 1288 1278 L 1288 901 L 1819 901 L 1819 674 L 1288 674 L 1288 233 L 2052 233 L 2052 0 L 1034 0 L 1034 426 L 539 426 L 299 0 L 41 0 Z M 666 651 L 1034 651 L 1034 1303 L 1032 1303 L 666 651 Z" unicode="Æ" />
<glyph horiz-adv-x="1468" d="M 770 -408 C 714 -408 661 -401 613 -387 C 565 -373 523 -355 487 -332 L 537 -250 C 567 -270 601 -286 639 -296 C 676 -306 712 -311 748 -311 C 788 -311 819 -304 839 -291 C 859 -277 870 -257 870 -231 C 870 -209 863 -193 850 -183 C 837 -173 819 -168 797 -168 C 777 -168 760 -171 745 -178 C 729 -184 714 -193 700 -205 L 629 -170 L 674 -25 C 588 -15 510 9 440 48 C 369 87 309 140 259 207 C 208 273 169 352 141 445 C 113 538 100 644 100 762 C 100 886 116 997 150 1094 C 183 1191 229 1273 289 1340 C 348 1406 418 1457 499 1492 C 580 1526 668 1544 764 1544 C 852 1544 929 1532 995 1509 C 1061 1486 1117 1454 1165 1413 C 1211 1371 1250 1321 1280 1263 C 1310 1205 1334 1142 1352 1073 L 1108 1006 C 1094 1056 1077 1101 1059 1141 C 1040 1181 1017 1215 990 1243 C 962 1270 930 1291 893 1306 C 855 1321 812 1329 762 1329 C 698 1329 640 1315 590 1289 C 540 1262 497 1224 463 1176 C 428 1126 401 1067 383 997 C 365 927 356 850 356 764 C 356 674 365 593 384 521 C 402 449 429 388 465 338 C 500 287 543 248 594 222 C 644 195 702 182 766 182 C 816 182 860 189 899 204 C 937 219 972 241 1002 271 C 1031 300 1056 336 1078 380 C 1099 423 1117 473 1133 530 L 1374 475 C 1356 401 1331 333 1299 273 C 1267 212 1228 160 1180 117 C 1132 73 1075 38 1011 13 C 947 -12 873 -26 791 -29 L 770 -100 C 784 -90 801 -83 821 -78 C 841 -72 865 -70 893 -70 C 912 -70 930 -73 948 -79 C 966 -85 982 -94 996 -106 C 1009 -118 1020 -132 1028 -150 C 1036 -168 1040 -188 1040 -211 C 1040 -243 1033 -271 1019 -296 C 1005 -320 986 -341 962 -358 C 937 -374 908 -387 875 -395 C 842 -403 807 -408 770 -408 Z" unicode="Ç" />
<glyph horiz-adv-x="1272" d="M 172 0 L 172 1516 L 1151 1516 L 1151 1278 L 428 1278 L 428 901 L 958 901 L 958 674 L 428 674 L 428 233 L 1192 233 L 1192 0 L 172 0 Z M 336 1945 L 608 1945 L 801 1605 L 635 1605 L 336 1945 Z" unicode="È" />
<glyph horiz-adv-x="1272" d="M 706 1945 L 976 1945 L 679 1605 L 514 1605 L 706 1945 Z M 172 0 L 172 1516 L 1151 1516 L 1151 1278 L 428 1278 L 428 901 L 958 901 L 958 674 L 428 674 L 428 233 L 1192 233 L 1192 0 L 172 0 Z" unicode="É" />
<glyph horiz-adv-x="1272" d="M 571 1945 L 745 1945 L 1009 1605 L 862 1605 L 657 1777 L 452 1605 L 307 1605 L 571 1945 Z M 172 0 L 172 1516 L 1151 1516 L 1151 1278 L 428 1278 L 428 901 L 958 901 L 958 674 L 428 674 L 428 233 L 1192 233 L 1192 0 L 172 0 Z" unicode="Ê" />
<glyph horiz-adv-x="1272" d="M 350 1847 L 579 1847 L 579 1599 L 350 1599 L 350 1847 Z M 755 1847 L 985 1847 L 985 1599 L 755 1599 L 755 1847 Z M 172 0 L 172 1516 L 1151 1516 L 1151 1278 L 428 1278 L 428 901 L 958 901 L 958 674 L 428 674 L 428 233 L 1192 233 L 1192 0 L 172 0 Z" unicode="Ë" />
<glyph horiz-adv-x="635" d="M 188 0 L 188 1516 L 446 1516 L 446 0 L 188 0 Z M -38 1945 L 234 1945 L 427 1605 L 261 1605 L -38 1945 Z" unicode="Ì" />
<glyph horiz-adv-x="635" d="M 188 0 L 188 1516 L 446 1516 L 446 0 L 188 0 Z M 418 1945 L 688 1945 L 391 1605 L 226 1605 L 418 1945 Z" unicode="Í" />
<glyph horiz-adv-x="635" d="M 188 0 L 188 1516 L 446 1516 L 446 0 L 188 0 Z M 232 1945 L 406 1945 L 670 1605 L 523 1605 L 318 1777 L 113 1605 L -32 1605 L 232 1945 Z" unicode="Î" />
<glyph horiz-adv-x="635" d="M 188 0 L 188 1516 L 446 1516 L 446 0 L 188 0 Z M -2 1847 L 227 1847 L 227 1599 L -2 1599 L -2 1847 Z M 403 1847 L 633 1847 L 633 1599 L 403 1599 L 403 1847 Z" unicode="Ï" />
<glyph horiz-adv-x="1491" d="M 172 0 L 172 686 L 23 686 L 23 883 L 172 883 L 172 1516 L 604 1516 C 722 1516 830 1501 927 1473 C 1024 1444 1107 1399 1176 1338 C 1244 1276 1297 1198 1335 1102 C 1372 1006 1391 892 1391 758 C 1391 624 1372 510 1334 414 C 1296 318 1242 240 1174 179 C 1104 117 1021 72 925 43 C 828 14 721 0 604 0 L 172 0 Z M 426 227 L 627 227 C 713 227 788 237 852 257 C 916 277 969 308 1011 352 C 1053 395 1084 450 1104 518 C 1124 586 1135 668 1135 764 C 1135 854 1124 932 1104 997 C 1083 1062 1052 1116 1010 1158 C 967 1199 913 1229 849 1249 C 785 1268 709 1278 623 1278 L 426 1278 L 426 883 L 743 883 L 743 686 L 426 686 L 426 227 Z" unicode="Ð" />
<glyph horiz-adv-x="1563" d="M 172 0 L 172 1516 L 432 1516 L 1149 434 L 1153 434 L 1153 1516 L 1391 1516 L 1391 0 L 1157 0 L 414 1104 L 410 1104 L 410 0 L 172 0 Z M 948 1591 C 914 1591 883 1597 856 1609 C 829 1621 804 1634 781 1649 C 757 1663 735 1676 714 1688 C 693 1700 672 1706 651 1706 C 622 1706 601 1697 587 1680 C 573 1663 567 1635 567 1595 L 426 1595 C 426 1645 430 1688 440 1724 C 450 1760 464 1789 483 1813 C 501 1835 523 1852 549 1863 C 575 1874 605 1880 639 1880 C 673 1880 703 1874 730 1862 C 757 1850 782 1837 806 1823 C 829 1808 851 1795 873 1783 C 894 1771 916 1765 938 1765 C 966 1765 987 1773 1001 1790 C 1015 1807 1022 1836 1022 1876 L 1163 1876 C 1163 1776 1143 1704 1105 1659 C 1067 1613 1014 1591 948 1591 Z" unicode="Ñ" />
<glyph horiz-adv-x="1565" d="M 784 -29 C 688 -29 598 -12 514 22 C 430 56 358 106 297 173 C 235 239 186 322 151 420 C 115 518 98 630 98 758 C 98 885 115 998 151 1096 C 186 1194 235 1276 297 1343 C 358 1409 430 1459 514 1493 C 598 1527 688 1544 784 1544 C 880 1544 969 1527 1052 1493 C 1135 1459 1207 1409 1269 1343 C 1330 1276 1378 1194 1413 1096 C 1448 998 1466 885 1466 758 C 1466 630 1448 518 1413 420 C 1378 322 1330 239 1269 173 C 1207 106 1135 56 1052 22 C 969 -12 880 -29 784 -29 Z M 784 203 C 847 203 905 215 957 239 C 1009 263 1054 299 1092 347 C 1128 393 1157 451 1177 520 C 1197 589 1208 668 1208 758 C 1208 846 1197 925 1177 994 C 1157 1062 1128 1120 1092 1167 C 1054 1213 1009 1249 957 1273 C 905 1297 847 1309 784 1309 C 719 1309 660 1297 608 1273 C 555 1249 510 1213 473 1167 C 435 1120 406 1062 386 994 C 366 925 356 846 356 758 C 356 668 366 589 386 520 C 406 451 435 393 473 347 C 510 299 555 263 608 239 C 660 215 719 203 784 203 Z M 442 1945 L 714 1945 L 907 1605 L 741 1605 L 442 1945 Z" unicode="Ò" />
<glyph horiz-adv-x="1565" d="M 845 1945 L 1115 1945 L 818 1605 L 653 1605 L 845 1945 Z M 784 -29 C 688 -29 598 -12 514 22 C 430 56 358 106 297 173 C 235 239 186 322 151 420 C 115 518 98 630 98 758 C 98 885 115 998 151 1096 C 186 1194 235 1276 297 1343 C 358 1409 430 1459 514 1493 C 598 1527 688 1544 784 1544 C 880 1544 969 1527 1052 1493 C 1135 1459 1207 1409 1269 1343 C 1330 1276 1378 1194 1413 1096 C 1448 998 1466 885 1466 758 C 1466 630 1448 518 1413 420 C 1378 322 1330 239 1269 173 C 1207 106 1135 56 1052 22 C 969 -12 880 -29 784 -29 Z M 784 203 C 847 203 905 215 957 239 C 1009 263 1054 299 1092 347 C 1128 393 1157 451 1177 520 C 1197 589 1208 668 1208 758 C 1208 846 1197 925 1177 994 C 1157 1062 1128 1120 1092 1167 C 1054 1213 1009 1249 957 1273 C 905 1297 847 1309 784 1309 C 719 1309 660 1297 608 1273 C 555 1249 510 1213 473 1167 C 435 1120 406 1062 386 994 C 366 925 356 846 356 758 C 356 668 366 589 386 520 C 406 451 435 393 473 347 C 510 299 555 263 608 239 C 660 215 719 203 784 203 Z" unicode="Ó" />
<glyph horiz-adv-x="1565" d="M 694 1945 L 868 1945 L 1132 1605 L 985 1605 L 780 1777 L 575 1605 L 430 1605 L 694 1945 Z M 784 -29 C 688 -29 598 -12 514 22 C 430 56 358 106 297 173 C 235 239 186 322 151 420 C 115 518 98 630 98 758 C 98 885 115 998 151 1096 C 186 1194 235 1276 297 1343 C 358 1409 430 1459 514 1493 C 598 1527 688 1544 784 1544 C 880 1544 969 1527 1052 1493 C 1135 1459 1207 1409 1269 1343 C 1330 1276 1378 1194 1413 1096 C 1448 998 1466 885 1466 758 C 1466 630 1448 518 1413 420 C 1378 322 1330 239 1269 173 C 1207 106 1135 56 1052 22 C 969 -12 880 -29 784 -29 Z M 784 203 C 847 203 905 215 957 239 C 1009 263 1054 299 1092 347 C 1128 393 1157 451 1177 520 C 1197 589 1208 668 1208 758 C 1208 846 1197 925 1177 994 C 1157 1062 1128 1120 1092 1167 C 1054 1213 1009 1249 957 1273 C 905 1297 847 1309 784 1309 C 719 1309 660 1297 608 1273 C 555 1249 510 1213 473 1167 C 435 1120 406 1062 386 994 C 366 925 356 846 356 758 C 356 668 366 589 386 520 C 406 451 435 393 473 347 C 510 299 555 263 608 239 C 660 215 719 203 784 203 Z" unicode="Ô" />
<glyph horiz-adv-x="1565" d="M 784 -29 C 688 -29 598 -12 514 22 C 430 56 358 106 297 173 C 235 239 186 322 151 420 C 115 518 98 630 98 758 C 98 885 115 998 151 1096 C 186 1194 235 1276 297 1343 C 358 1409 430 1459 514 1493 C 598 1527 688 1544 784 1544 C 880 1544 969 1527 1052 1493 C 1135 1459 1207 1409 1269 1343 C 1330 1276 1378 1194 1413 1096 C 1448 998 1466 885 1466 758 C 1466 630 1448 518 1413 420 C 1378 322 1330 239 1269 173 C 1207 106 1135 56 1052 22 C 969 -12 880 -29 784 -29 Z M 784 203 C 847 203 905 215 957 239 C 1009 263 1054 299 1092 347 C 1128 393 1157 451 1177 520 C 1197 589 1208 668 1208 758 C 1208 846 1197 925 1177 994 C 1157 1062 1128 1120 1092 1167 C 1054 1213 1009 1249 957 1273 C 905 1297 847 1309 784 1309 C 719 1309 660 1297 608 1273 C 555 1249 510 1213 473 1167 C 435 1120 406 1062 386 994 C 366 925 356 846 356 758 C 356 668 366 589 386 520 C 406 451 435 393 473 347 C 510 299 555 263 608 239 C 660 215 719 203 784 203 Z M 933 1591 C 899 1591 868 1597 841 1609 C 814 1621 789 1634 766 1649 C 742 1663 720 1676 699 1688 C 678 1700 657 1706 636 1706 C 607 1706 586 1697 572 1680 C 558 1663 552 1635 552 1595 L 411 1595 C 411 1645 415 1688 425 1724 C 435 1760 449 1789 468 1813 C 486 1835 508 1852 534 1863 C 560 1874 590 1880 624 1880 C 658 1880 688 1874 715 1862 C 742 1850 767 1837 791 1823 C 814 1808 836 1795 858 1783 C 879 1771 901 1765 923 1765 C 951 1765 972 1773 986 1790 C 1000 1807 1007 1836 1007 1876 L 1148 1876 C 1148 1776 1128 1704 1090 1659 C 1052 1613 999 1591 933 1591 Z" unicode="Õ" />
<glyph horiz-adv-x="1565" d="M 460 1847 L 689 1847 L 689 1599 L 460 1599 L 460 1847 Z M 865 1847 L 1095 1847 L 1095 1599 L 865 1599 L 865 1847 Z M 784 -29 C 688 -29 598 -12 514 22 C 430 56 358 106 297 173 C 235 239 186 322 151 420 C 115 518 98 630 98 758 C 98 885 115 998 151 1096 C 186 1194 235 1276 297 1343 C 358 1409 430 1459 514 1493 C 598 1527 688 1544 784 1544 C 880 1544 969 1527 1052 1493 C 1135 1459 1207 1409 1269 1343 C 1330 1276 1378 1194 1413 1096 C 1448 998 1466 885 1466 758 C 1466 630 1448 518 1413 420 C 1378 322 1330 239 1269 173 C 1207 106 1135 56 1052 22 C 969 -12 880 -29 784 -29 Z M 784 203 C 847 203 905 215 957 239 C 1009 263 1054 299 1092 347 C 1128 393 1157 451 1177 520 C 1197 589 1208 668 1208 758 C 1208 846 1197 925 1177 994 C 1157 1062 1128 1120 1092 1167 C 1054 1213 1009 1249 957 1273 C 905 1297 847 1309 784 1309 C 719 1309 660 1297 608 1273 C 555 1249 510 1213 473 1167 C 435 1120 406 1062 386 994 C 366 925 356 846 356 758 C 356 668 366 589 386 520 C 406 451 435 393 473 347 C 510 299 555 263 608 239 C 660 215 719 203 784 203 Z" unicode="Ö" />
<glyph horiz-adv-x="1315" d="M 322 172 L 172 322 L 508 655 L 172 989 L 322 1137 L 655 803 L 989 1137 L 1137 989 L 805 657 L 1141 324 L 991 176 L 657 510 L 322 172 Z" unicode="×" />
<glyph horiz-adv-x="1565" d="M 1317 1282 C 1364 1217 1401 1141 1427 1054 C 1453 966 1466 868 1466 758 C 1466 630 1448 518 1413 420 C 1378 322 1330 239 1269 173 C 1207 106 1135 56 1052 22 C 969 -12 880 -29 784 -29 C 704 -29 628 -17 556 7 C 484 31 420 66 362 113 L 225 -51 L 96 49 L 248 231 C 200 297 163 373 137 461 C 111 549 98 648 98 758 C 98 885 115 998 151 1096 C 186 1194 235 1276 297 1343 C 358 1409 430 1459 514 1493 C 598 1527 688 1544 784 1544 C 864 1544 940 1532 1011 1509 C 1081 1485 1145 1450 1202 1403 L 1339 1567 L 1468 1466 L 1317 1282 Z M 508 299 C 544 263 586 237 632 219 C 678 201 728 193 784 193 C 848 193 906 205 959 231 C 1011 256 1057 293 1095 341 C 1133 389 1162 448 1183 518 C 1203 588 1214 668 1214 758 C 1214 823 1208 883 1198 938 C 1187 993 1171 1043 1149 1087 L 508 299 Z M 1055 1214 C 1019 1248 978 1274 933 1291 C 887 1308 838 1317 784 1317 C 718 1317 659 1304 606 1280 C 552 1255 507 1219 469 1172 C 431 1124 401 1065 381 996 C 360 926 350 847 350 758 C 350 691 355 630 367 575 C 379 519 395 470 416 426 L 1055 1214 Z" unicode="Ø" />
<glyph horiz-adv-x="1477" d="M 739 -25 C 635 -25 545 -11 471 17 C 397 45 336 84 289 135 C 241 185 207 246 185 317 C 163 388 152 467 152 553 L 152 1516 L 408 1516 L 408 575 C 408 517 414 465 427 420 C 440 374 460 336 488 305 C 514 273 549 248 591 232 C 633 215 683 207 741 207 C 799 207 848 215 890 231 C 932 247 966 271 994 303 C 1020 333 1040 371 1053 417 C 1066 463 1073 515 1073 573 L 1073 1516 L 1325 1516 L 1325 555 C 1325 469 1312 390 1288 319 C 1264 247 1227 186 1179 136 C 1129 84 1068 45 995 17 C 922 -11 837 -25 739 -25 Z M 405 1945 L 677 1945 L 870 1605 L 704 1605 L 405 1945 Z" unicode="Ù" />
<glyph horiz-adv-x="1477" d="M 782 1945 L 1052 1945 L 755 1605 L 590 1605 L 782 1945 Z M 739 -25 C 635 -25 545 -11 471 17 C 397 45 336 84 289 135 C 241 185 207 246 185 317 C 163 388 152 467 152 553 L 152 1516 L 408 1516 L 408 575 C 408 517 414 465 427 420 C 440 374 460 336 488 305 C 514 273 549 248 591 232 C 633 215 683 207 741 207 C 799 207 848 215 890 231 C 932 247 966 271 994 303 C 1020 333 1040 371 1053 417 C 1066 463 1073 515 1073 573 L 1073 1516 L 1325 1516 L 1325 555 C 1325 469 1312 390 1288 319 C 1264 247 1227 186 1179 136 C 1129 84 1068 45 995 17 C 922 -11 837 -25 739 -25 Z" unicode="Ú" />
<glyph horiz-adv-x="1477" d="M 649 1945 L 823 1945 L 1087 1605 L 940 1605 L 735 1777 L 530 1605 L 385 1605 L 649 1945 Z M 739 -25 C 635 -25 545 -11 471 17 C 397 45 336 84 289 135 C 241 185 207 246 185 317 C 163 388 152 467 152 553 L 152 1516 L 408 1516 L 408 575 C 408 517 414 465 427 420 C 440 374 460 336 488 305 C 514 273 549 248 591 232 C 633 215 683 207 741 207 C 799 207 848 215 890 231 C 932 247 966 271 994 303 C 1020 333 1040 371 1053 417 C 1066 463 1073 515 1073 573 L 1073 1516 L 1325 1516 L 1325 555 C 1325 469 1312 390 1288 319 C 1264 247 1227 186 1179 136 C 1129 84 1068 45 995 17 C 922 -11 837 -25 739 -25 Z" unicode="Û" />
<glyph horiz-adv-x="1477" d="M 417 1847 L 646 1847 L 646 1599 L 417 1599 L 417 1847 Z M 822 1847 L 1052 1847 L 1052 1599 L 822 1599 L 822 1847 Z M 739 -25 C 635 -25 545 -11 471 17 C 397 45 336 84 289 135 C 241 185 207 246 185 317 C 163 388 152 467 152 553 L 152 1516 L 408 1516 L 408 575 C 408 517 414 465 427 420 C 440 374 460 336 488 305 C 514 273 549 248 591 232 C 633 215 683 207 741 207 C 799 207 848 215 890 231 C 932 247 966 271 994 303 C 1020 333 1040 371 1053 417 C 1066 463 1073 515 1073 573 L 1073 1516 L 1325 1516 L 1325 555 C 1325 469 1312 390 1288 319 C 1264 247 1227 186 1179 136 C 1129 84 1068 45 995 17 C 922 -11 837 -25 739 -25 Z" unicode="Ü" />
<glyph horiz-adv-x="1354" d="M 547 0 L 547 653 L 31 1516 L 301 1516 L 680 870 L 1057 1516 L 1323 1516 L 805 653 L 805 0 L 547 0 Z M 688 1955 L 958 1955 L 661 1615 L 496 1615 L 688 1955 Z" unicode="Ý" />
<glyph horiz-adv-x="1362" d="M 172 0 L 172 1516 L 428 1516 L 428 1264 L 698 1264 C 779 1263 855 1254 927 1238 C 999 1222 1061 1195 1115 1159 C 1167 1122 1209 1074 1240 1014 C 1270 954 1286 880 1286 793 C 1286 731 1278 677 1263 629 C 1248 581 1227 540 1201 505 C 1173 469 1141 438 1104 414 C 1066 389 1026 369 982 354 C 938 338 891 327 841 321 C 791 314 741 311 690 311 L 428 311 L 428 0 L 172 0 Z M 428 541 L 698 541 C 754 541 803 545 844 554 C 885 563 919 577 947 597 C 973 616 993 641 1006 672 C 1019 703 1026 740 1026 784 C 1026 868 999 929 946 967 C 893 1005 810 1024 696 1024 L 428 1024 L 428 541 Z" unicode="Þ" />
<glyph horiz-adv-x="1341" d="M 838 -23 C 794 -23 754 -19 717 -12 C 680 -5 647 4 617 16 C 586 28 559 42 535 58 C 511 74 491 91 475 109 L 606 260 C 634 234 666 214 703 198 C 740 182 781 174 827 174 C 859 174 888 179 914 191 C 940 202 962 218 980 240 C 998 260 1011 285 1021 315 C 1031 344 1036 376 1036 412 C 1036 468 1024 515 1002 553 C 980 591 949 621 909 645 C 868 667 819 684 763 695 C 707 705 645 712 578 715 L 578 897 C 636 897 686 903 726 914 C 766 925 798 941 823 961 C 847 981 864 1004 875 1032 C 885 1060 891 1090 891 1124 C 891 1182 870 1226 829 1258 C 787 1289 728 1305 651 1305 C 609 1305 571 1300 539 1290 C 507 1280 480 1265 458 1243 C 436 1221 419 1192 408 1157 C 396 1122 391 1080 391 1030 L 391 0 L 141 0 L 141 1022 C 141 1106 153 1179 178 1241 C 203 1303 238 1354 284 1395 C 329 1435 383 1466 447 1486 C 510 1506 580 1516 657 1516 C 729 1516 795 1507 853 1491 C 911 1474 960 1450 1001 1419 C 1041 1387 1071 1347 1093 1301 C 1115 1255 1126 1202 1126 1143 C 1126 1101 1119 1063 1106 1029 C 1092 995 1074 965 1051 939 C 1027 912 1000 889 968 870 C 936 851 901 836 864 825 C 916 819 966 806 1015 788 C 1064 770 1108 744 1146 712 C 1184 679 1214 639 1237 591 C 1260 543 1272 486 1272 422 C 1272 351 1261 288 1241 233 C 1221 177 1192 131 1155 93 C 1117 55 1071 26 1018 6 C 964 -13 904 -23 838 -23 Z" unicode="ß" />
<glyph horiz-adv-x="1157" d="M 379 -16 C 335 -16 294 -10 257 2 C 219 14 187 32 160 56 C 132 79 110 108 95 142 C 79 176 72 216 72 262 C 72 320 85 374 111 423 C 137 472 178 516 236 554 C 292 592 365 624 455 651 C 544 677 652 698 780 713 L 780 745 C 780 799 765 839 736 864 C 707 888 662 901 602 901 C 564 901 528 896 494 888 C 460 880 427 869 397 855 C 366 841 337 825 310 807 C 283 789 258 772 236 754 L 113 911 C 141 937 174 963 212 987 C 249 1011 290 1032 334 1050 C 378 1068 425 1082 476 1092 C 527 1102 581 1108 637 1108 C 709 1108 771 1099 821 1082 C 871 1065 911 1040 942 1007 C 972 973 994 932 1008 883 C 1021 834 1028 778 1028 715 L 1028 266 C 1028 200 1030 146 1035 104 C 1039 62 1047 28 1059 0 L 805 0 C 801 11 798 22 795 32 C 792 42 790 52 788 64 C 785 74 783 86 782 98 C 780 110 780 123 780 139 C 724 83 664 43 598 19 C 532 -4 459 -16 379 -16 Z M 471 178 C 535 178 593 189 644 212 C 694 234 740 265 780 303 L 780 543 C 628 522 514 493 436 455 C 358 417 319 369 319 309 C 319 265 332 233 360 211 C 388 189 425 178 471 178 Z M 260 1542 L 532 1542 L 725 1202 L 559 1202 L 260 1542 Z" unicode="à" />
<glyph horiz-adv-x="1157" d="M 379 -16 C 335 -16 294 -10 257 2 C 219 14 187 32 160 56 C 132 79 110 108 95 142 C 79 176 72 216 72 262 C 72 320 85 374 111 423 C 137 472 178 516 236 554 C 292 592 365 624 455 651 C 544 677 652 698 780 713 L 780 745 C 780 799 765 839 736 864 C 707 888 662 901 602 901 C 564 901 528 896 494 888 C 460 880 427 869 397 855 C 366 841 337 825 310 807 C 283 789 258 772 236 754 L 113 911 C 141 937 174 963 212 987 C 249 1011 290 1032 334 1050 C 378 1068 425 1082 476 1092 C 527 1102 581 1108 637 1108 C 709 1108 771 1099 821 1082 C 871 1065 911 1040 942 1007 C 972 973 994 932 1008 883 C 1021 834 1028 778 1028 715 L 1028 266 C 1028 200 1030 146 1035 104 C 1039 62 1047 28 1059 0 L 805 0 C 801 11 798 22 795 32 C 792 42 790 52 788 64 C 785 74 783 86 782 98 C 780 110 780 123 780 139 C 724 83 664 43 598 19 C 532 -4 459 -16 379 -16 Z M 471 178 C 535 178 593 189 644 212 C 694 234 740 265 780 303 L 780 543 C 628 522 514 493 436 455 C 358 417 319 369 319 309 C 319 265 332 233 360 211 C 388 189 425 178 471 178 Z M 649 1542 L 919 1542 L 622 1202 L 457 1202 L 649 1542 Z" unicode="á" />
<glyph horiz-adv-x="1157" d="M 379 -16 C 335 -16 294 -10 257 2 C 219 14 187 32 160 56 C 132 79 110 108 95 142 C 79 176 72 216 72 262 C 72 320 85 374 111 423 C 137 472 178 516 236 554 C 292 592 365 624 455 651 C 544 677 652 698 780 713 L 780 745 C 780 799 765 839 736 864 C 707 888 662 901 602 901 C 564 901 528 896 494 888 C 460 880 427 869 397 855 C 366 841 337 825 310 807 C 283 789 258 772 236 754 L 113 911 C 141 937 174 963 212 987 C 249 1011 290 1032 334 1050 C 378 1068 425 1082 476 1092 C 527 1102 581 1108 637 1108 C 709 1108 771 1099 821 1082 C 871 1065 911 1040 942 1007 C 972 973 994 932 1008 883 C 1021 834 1028 778 1028 715 L 1028 266 C 1028 200 1030 146 1035 104 C 1039 62 1047 28 1059 0 L 805 0 C 801 11 798 22 795 32 C 792 42 790 52 788 64 C 785 74 783 86 782 98 C 780 110 780 123 780 139 C 724 83 664 43 598 19 C 532 -4 459 -16 379 -16 Z M 471 178 C 535 178 593 189 644 212 C 694 234 740 265 780 303 L 780 543 C 628 522 514 493 436 455 C 358 417 319 369 319 309 C 319 265 332 233 360 211 C 388 189 425 178 471 178 Z M 497 1542 L 671 1542 L 935 1202 L 788 1202 L 583 1374 L 378 1202 L 233 1202 L 497 1542 Z" unicode="â" />
<glyph horiz-adv-x="1157" d="M 379 -16 C 335 -16 294 -10 257 2 C 219 14 187 32 160 56 C 132 79 110 108 95 142 C 79 176 72 216 72 262 C 72 320 85 374 111 423 C 137 472 178 516 236 554 C 292 592 365 624 455 651 C 544 677 652 698 780 713 L 780 745 C 780 799 765 839 736 864 C 707 888 662 901 602 901 C 564 901 528 896 494 888 C 460 880 427 869 397 855 C 366 841 337 825 310 807 C 283 789 258 772 236 754 L 113 911 C 141 937 174 963 212 987 C 249 1011 290 1032 334 1050 C 378 1068 425 1082 476 1092 C 527 1102 581 1108 637 1108 C 709 1108 771 1099 821 1082 C 871 1065 911 1040 942 1007 C 972 973 994 932 1008 883 C 1021 834 1028 778 1028 715 L 1028 266 C 1028 200 1030 146 1035 104 C 1039 62 1047 28 1059 0 L 805 0 C 801 11 798 22 795 32 C 792 42 790 52 788 64 C 785 74 783 86 782 98 C 780 110 780 123 780 139 C 724 83 664 43 598 19 C 532 -4 459 -16 379 -16 Z M 471 178 C 535 178 593 189 644 212 C 694 234 740 265 780 303 L 780 543 C 628 522 514 493 436 455 C 358 417 319 369 319 309 C 319 265 332 233 360 211 C 388 189 425 178 471 178 Z M 737 1188 C 703 1188 672 1194 645 1206 C 618 1218 593 1231 570 1246 C 546 1260 524 1273 503 1285 C 482 1297 461 1303 440 1303 C 411 1303 390 1294 376 1277 C 362 1260 356 1232 356 1192 L 215 1192 C 215 1242 219 1285 229 1321 C 239 1357 253 1386 272 1410 C 290 1432 312 1449 338 1460 C 364 1471 394 1477 428 1477 C 462 1477 492 1471 519 1459 C 546 1447 571 1434 595 1420 C 618 1405 640 1392 662 1380 C 683 1368 705 1362 727 1362 C 755 1362 776 1370 790 1387 C 804 1404 811 1433 811 1473 L 952 1473 C 952 1373 932 1301 894 1256 C 856 1210 803 1188 737 1188 Z" unicode="ã" />
<glyph horiz-adv-x="1157" d="M 379 -16 C 335 -16 294 -10 257 2 C 219 14 187 32 160 56 C 132 79 110 108 95 142 C 79 176 72 216 72 262 C 72 320 85 374 111 423 C 137 472 178 516 236 554 C 292 592 365 624 455 651 C 544 677 652 698 780 713 L 780 745 C 780 799 765 839 736 864 C 707 888 662 901 602 901 C 564 901 528 896 494 888 C 460 880 427 869 397 855 C 366 841 337 825 310 807 C 283 789 258 772 236 754 L 113 911 C 141 937 174 963 212 987 C 249 1011 290 1032 334 1050 C 378 1068 425 1082 476 1092 C 527 1102 581 1108 637 1108 C 709 1108 771 1099 821 1082 C 871 1065 911 1040 942 1007 C 972 973 994 932 1008 883 C 1021 834 1028 778 1028 715 L 1028 266 C 1028 200 1030 146 1035 104 C 1039 62 1047 28 1059 0 L 805 0 C 801 11 798 22 795 32 C 792 42 790 52 788 64 C 785 74 783 86 782 98 C 780 110 780 123 780 139 C 724 83 664 43 598 19 C 532 -4 459 -16 379 -16 Z M 471 178 C 535 178 593 189 644 212 C 694 234 740 265 780 303 L 780 543 C 628 522 514 493 436 455 C 358 417 319 369 319 309 C 319 265 332 233 360 211 C 388 189 425 178 471 178 Z M 272 1444 L 501 1444 L 501 1196 L 272 1196 L 272 1444 Z M 677 1444 L 907 1444 L 907 1196 L 677 1196 L 677 1444 Z" unicode="ä" />
<glyph horiz-adv-x="1157" d="M 379 -16 C 335 -16 294 -10 257 2 C 219 14 187 32 160 56 C 132 79 110 108 95 142 C 79 176 72 216 72 262 C 72 320 85 374 111 423 C 137 472 178 516 236 554 C 292 592 365 624 455 651 C 544 677 652 698 780 713 L 780 745 C 780 799 765 839 736 864 C 707 888 662 901 602 901 C 564 901 528 896 494 888 C 460 880 427 869 397 855 C 366 841 337 825 310 807 C 283 789 258 772 236 754 L 113 911 C 141 937 174 963 212 987 C 249 1011 290 1032 334 1050 C 378 1068 425 1082 476 1092 C 527 1102 581 1108 637 1108 C 709 1108 771 1099 821 1082 C 871 1065 911 1040 942 1007 C 972 973 994 932 1008 883 C 1021 834 1028 778 1028 715 L 1028 266 C 1028 200 1030 146 1035 104 C 1039 62 1047 28 1059 0 L 805 0 C 801 11 798 22 795 32 C 792 42 790 52 788 64 C 785 74 783 86 782 98 C 780 110 780 123 780 139 C 724 83 664 43 598 19 C 532 -4 459 -16 379 -16 Z M 471 178 C 535 178 593 189 644 212 C 694 234 740 265 780 303 L 780 543 C 628 522 514 493 436 455 C 358 417 319 369 319 309 C 319 265 332 233 360 211 C 388 189 425 178 471 178 Z M 593 1186 C 563 1186 535 1191 510 1202 C 484 1212 462 1227 444 1246 C 425 1264 410 1286 400 1312 C 389 1337 384 1365 384 1395 C 384 1424 389 1451 400 1477 C 410 1502 425 1524 444 1543 C 462 1561 484 1575 510 1586 C 535 1596 563 1602 593 1602 C 623 1602 650 1596 676 1586 C 702 1575 724 1561 743 1543 C 761 1524 776 1502 786 1477 C 796 1451 802 1424 802 1395 C 802 1365 796 1337 786 1312 C 776 1286 761 1264 743 1246 C 724 1227 702 1212 676 1202 C 650 1191 623 1186 593 1186 Z M 593 1290 C 623 1290 647 1299 665 1319 C 683 1338 693 1363 693 1395 C 693 1425 683 1449 665 1469 C 647 1489 623 1499 593 1499 C 564 1499 540 1489 521 1469 C 502 1449 493 1425 493 1395 C 493 1363 502 1338 521 1319 C 540 1299 564 1290 593 1290 Z" unicode="å" />
<glyph horiz-adv-x="1833" d="M 379 -23 C 334 -23 293 -16 256 -4 C 218 7 186 25 159 49 C 131 72 110 101 95 136 C 79 170 72 210 72 256 C 72 314 85 368 111 418 C 137 468 178 512 236 551 C 292 589 365 622 455 650 C 544 677 652 698 780 713 L 780 745 C 780 799 765 839 736 864 C 707 888 662 901 602 901 C 564 901 528 896 494 888 C 460 880 427 869 397 855 C 366 841 337 825 310 807 C 283 789 258 772 236 754 L 113 911 C 141 937 174 963 212 987 C 249 1011 290 1032 334 1050 C 378 1068 425 1082 476 1092 C 527 1102 581 1108 637 1108 C 684 1108 725 1103 759 1095 C 793 1087 822 1075 846 1061 C 870 1045 889 1027 905 1006 C 921 985 934 962 944 938 C 960 962 980 984 1004 1005 C 1028 1025 1054 1043 1084 1059 C 1113 1074 1144 1086 1177 1095 C 1209 1103 1242 1108 1276 1108 C 1336 1108 1395 1098 1452 1078 C 1509 1058 1560 1026 1605 980 C 1649 934 1685 873 1712 798 C 1739 723 1753 630 1753 520 L 1753 471 L 1010 471 C 1012 419 1021 374 1037 337 C 1053 300 1074 270 1100 247 C 1125 223 1155 205 1189 194 C 1223 183 1260 178 1300 178 C 1335 178 1367 180 1396 186 C 1424 192 1451 200 1476 212 C 1500 222 1522 235 1543 251 C 1564 267 1585 285 1606 305 L 1739 174 C 1681 111 1615 62 1540 28 C 1465 -5 1378 -23 1280 -23 C 1236 -23 1193 -19 1152 -11 C 1111 -3 1073 10 1037 28 C 1000 46 966 69 936 97 C 905 125 878 159 856 199 C 820 160 785 127 751 99 C 717 71 681 48 644 30 C 606 12 565 -1 522 -10 C 479 -18 431 -23 379 -23 Z M 469 172 C 531 172 590 184 644 209 C 698 234 751 274 803 328 C 795 350 790 375 787 402 C 783 429 781 458 780 489 L 780 549 C 628 528 514 497 436 455 C 358 413 319 363 319 303 C 319 259 332 227 359 205 C 386 183 423 172 469 172 Z M 1522 649 C 1514 732 1490 795 1449 838 C 1408 881 1350 903 1274 903 C 1243 903 1213 898 1185 889 C 1156 880 1130 866 1107 846 C 1083 825 1063 798 1047 766 C 1031 734 1020 695 1014 649 L 1522 649 Z" unicode="æ" />
<glyph horiz-adv-x="1126" d="M 592 -408 C 536 -408 483 -401 435 -387 C 387 -373 345 -355 309 -332 L 358 -250 C 389 -270 423 -286 461 -296 C 498 -306 534 -311 569 -311 C 610 -311 641 -304 661 -291 C 681 -277 692 -257 692 -231 C 692 -209 685 -193 672 -183 C 659 -173 641 -168 618 -168 C 598 -168 581 -171 566 -178 C 551 -184 536 -193 522 -205 L 451 -170 L 500 -12 C 444 -4 391 13 341 39 C 291 65 246 101 208 147 C 169 192 138 247 116 313 C 93 379 82 455 82 543 C 82 612 89 674 103 729 C 117 783 137 832 163 874 C 188 916 217 951 251 981 C 285 1011 321 1035 360 1054 C 398 1072 437 1086 479 1095 C 520 1103 561 1108 602 1108 C 669 1108 727 1099 777 1082 C 826 1065 868 1042 904 1014 C 939 984 968 950 992 912 C 1016 874 1036 833 1053 791 L 842 715 C 816 787 784 839 746 871 C 708 903 658 920 598 920 C 562 920 528 912 496 897 C 464 882 436 859 412 829 C 388 798 369 759 355 711 C 341 663 334 607 334 543 C 334 485 339 432 351 385 C 363 338 380 298 402 266 C 424 232 451 207 483 189 C 515 171 552 162 594 162 C 622 162 649 165 674 173 C 698 181 721 193 743 210 C 764 226 783 248 801 275 C 819 301 835 334 850 373 L 1057 297 C 1037 254 1015 214 990 177 C 964 139 934 107 899 79 C 863 50 821 27 775 10 C 728 -6 674 -16 614 -18 L 592 -100 C 606 -90 623 -83 643 -78 C 663 -72 687 -70 715 -70 C 734 -70 752 -73 770 -79 C 788 -85 804 -94 818 -106 C 831 -118 842 -132 850 -150 C 858 -168 862 -188 862 -211 C 862 -243 855 -271 841 -296 C 827 -320 807 -341 783 -358 C 758 -374 729 -387 697 -395 C 664 -403 629 -408 592 -408 Z" unicode="ç" />
<glyph horiz-adv-x="1155" d="M 604 -23 C 536 -23 470 -12 407 9 C 344 30 288 64 240 110 C 191 156 152 214 123 286 C 94 357 80 443 80 543 C 80 611 87 673 102 728 C 117 782 138 831 164 873 C 190 915 220 950 254 980 C 288 1010 325 1034 364 1054 C 402 1072 441 1086 481 1095 C 521 1103 560 1108 598 1108 C 638 1108 678 1103 718 1095 C 757 1086 794 1072 830 1054 C 865 1035 898 1010 928 980 C 958 950 984 913 1006 870 C 1027 826 1044 775 1056 717 C 1068 659 1075 594 1075 520 L 1075 461 L 332 461 C 334 411 343 369 359 333 C 375 297 396 268 422 246 C 447 222 477 205 511 194 C 545 183 583 178 623 178 C 658 178 690 180 718 186 C 746 192 773 200 798 212 C 822 222 844 235 865 251 C 886 267 907 285 928 305 L 1061 174 C 1004 111 938 62 863 28 C 788 -5 702 -23 604 -23 Z M 844 649 C 836 732 812 795 772 838 C 731 881 672 903 596 903 C 565 903 535 898 507 889 C 478 880 452 866 429 846 C 405 825 385 798 369 766 C 353 734 342 695 336 649 L 844 649 Z M 242 1542 L 514 1542 L 707 1202 L 541 1202 L 242 1542 Z" unicode="è" />
<glyph horiz-adv-x="1155" d="M 651 1542 L 921 1542 L 624 1202 L 459 1202 L 651 1542 Z M 604 -23 C 536 -23 470 -12 407 9 C 344 30 288 64 240 110 C 191 156 152 214 123 286 C 94 357 80 443 80 543 C 80 611 87 673 102 728 C 117 782 138 831 164 873 C 190 915 220 950 254 980 C 288 1010 325 1034 364 1054 C 402 1072 441 1086 481 1095 C 521 1103 560 1108 598 1108 C 638 1108 678 1103 718 1095 C 757 1086 794 1072 830 1054 C 865 1035 898 1010 928 980 C 958 950 984 913 1006 870 C 1027 826 1044 775 1056 717 C 1068 659 1075 594 1075 520 L 1075 461 L 332 461 C 334 411 343 369 359 333 C 375 297 396 268 422 246 C 447 222 477 205 511 194 C 545 183 583 178 623 178 C 658 178 690 180 718 186 C 746 192 773 200 798 212 C 822 222 844 235 865 251 C 886 267 907 285 928 305 L 1061 174 C 1004 111 938 62 863 28 C 788 -5 702 -23 604 -23 Z M 844 649 C 836 732 812 795 772 838 C 731 881 672 903 596 903 C 565 903 535 898 507 889 C 478 880 452 866 429 846 C 405 825 385 798 369 766 C 353 734 342 695 336 649 L 844 649 Z" unicode="é" />
<glyph horiz-adv-x="1155" d="M 497 1542 L 671 1542 L 935 1202 L 788 1202 L 583 1374 L 378 1202 L 233 1202 L 497 1542 Z M 604 -23 C 536 -23 470 -12 407 9 C 344 30 288 64 240 110 C 191 156 152 214 123 286 C 94 357 80 443 80 543 C 80 611 87 673 102 728 C 117 782 138 831 164 873 C 190 915 220 950 254 980 C 288 1010 325 1034 364 1054 C 402 1072 441 1086 481 1095 C 521 1103 560 1108 598 1108 C 638 1108 678 1103 718 1095 C 757 1086 794 1072 830 1054 C 865 1035 898 1010 928 980 C 958 950 984 913 1006 870 C 1027 826 1044 775 1056 717 C 1068 659 1075 594 1075 520 L 1075 461 L 332 461 C 334 411 343 369 359 333 C 375 297 396 268 422 246 C 447 222 477 205 511 194 C 545 183 583 178 623 178 C 658 178 690 180 718 186 C 746 192 773 200 798 212 C 822 222 844 235 865 251 C 886 267 907 285 928 305 L 1061 174 C 1004 111 938 62 863 28 C 788 -5 702 -23 604 -23 Z M 844 649 C 836 732 812 795 772 838 C 731 881 672 903 596 903 C 565 903 535 898 507 889 C 478 880 452 866 429 846 C 405 825 385 798 369 766 C 353 734 342 695 336 649 L 844 649 Z" unicode="ê" />
<glyph horiz-adv-x="1155" d="M 262 1444 L 491 1444 L 491 1196 L 262 1196 L 262 1444 Z M 667 1444 L 897 1444 L 897 1196 L 667 1196 L 667 1444 Z M 604 -23 C 536 -23 470 -12 407 9 C 344 30 288 64 240 110 C 191 156 152 214 123 286 C 94 357 80 443 80 543 C 80 611 87 673 102 728 C 117 782 138 831 164 873 C 190 915 220 950 254 980 C 288 1010 325 1034 364 1054 C 402 1072 441 1086 481 1095 C 521 1103 560 1108 598 1108 C 638 1108 678 1103 718 1095 C 757 1086 794 1072 830 1054 C 865 1035 898 1010 928 980 C 958 950 984 913 1006 870 C 1027 826 1044 775 1056 717 C 1068 659 1075 594 1075 520 L 1075 461 L 332 461 C 334 411 343 369 359 333 C 375 297 396 268 422 246 C 447 222 477 205 511 194 C 545 183 583 178 623 178 C 658 178 690 180 718 186 C 746 192 773 200 798 212 C 822 222 844 235 865 251 C 886 267 907 285 928 305 L 1061 174 C 1004 111 938 62 863 28 C 788 -5 702 -23 604 -23 Z M 844 649 C 836 732 812 795 772 838 C 731 881 672 903 596 903 C 565 903 535 898 507 889 C 478 880 452 866 429 846 C 405 825 385 798 369 766 C 353 734 342 695 336 649 L 844 649 Z" unicode="ë" />
<glyph horiz-adv-x="557" d="M 152 0 L 152 1087 L 406 1087 L 406 0 L 152 0 Z M -83 1542 L 189 1542 L 382 1202 L 216 1202 L -83 1542 Z" unicode="ì" />
<glyph horiz-adv-x="557" d="M 388 1542 L 658 1542 L 361 1202 L 196 1202 L 388 1542 Z M 152 0 L 152 1087 L 406 1087 L 406 0 L 152 0 Z" unicode="í" />
<glyph horiz-adv-x="557" d="M 193 1542 L 367 1542 L 631 1202 L 484 1202 L 279 1374 L 74 1202 L -71 1202 L 193 1542 Z M 152 0 L 152 1087 L 406 1087 L 406 0 L 152 0 Z" unicode="î" />
<glyph horiz-adv-x="557" d="M -40 1444 L 189 1444 L 189 1196 L -40 1196 L -40 1444 Z M 365 1444 L 595 1444 L 595 1196 L 365 1196 L 365 1444 Z M 152 0 L 152 1087 L 406 1087 L 406 0 L 152 0 Z" unicode="ï" />
<glyph horiz-adv-x="1219" d="M 610 -23 C 534 -23 463 -11 399 13 C 335 37 279 72 233 118 C 185 163 148 218 122 284 C 95 349 82 423 82 506 C 82 590 94 665 119 730 C 144 795 178 850 222 894 C 265 937 315 970 373 992 C 430 1014 491 1026 557 1026 C 583 1026 611 1022 641 1016 C 670 1009 699 999 728 987 C 756 973 782 957 808 938 C 833 919 855 897 874 872 C 862 926 844 978 822 1029 C 799 1080 769 1129 731 1176 L 549 1098 L 475 1237 L 627 1303 C 606 1323 584 1342 562 1360 C 540 1378 516 1395 492 1413 L 612 1556 C 649 1533 684 1509 718 1484 C 751 1458 783 1431 813 1401 L 995 1483 L 1069 1341 L 920 1274 C 990 1178 1043 1070 1081 950 C 1118 829 1137 692 1137 539 C 1137 451 1123 372 1097 302 C 1070 232 1033 174 987 126 C 939 77 883 40 819 15 C 755 -10 685 -23 610 -23 Z M 610 182 C 652 182 690 189 724 203 C 758 217 787 238 811 266 C 834 293 852 327 865 368 C 878 408 885 456 885 510 C 885 560 878 605 866 645 C 853 685 835 719 812 747 C 788 774 759 795 725 809 C 691 823 652 831 610 831 C 567 831 529 824 495 810 C 461 796 432 776 408 750 C 384 722 365 688 353 648 C 340 608 334 561 334 508 C 334 457 340 411 352 371 C 364 331 382 297 406 269 C 429 241 458 219 492 204 C 526 189 566 182 610 182 Z" unicode="ð" />
<glyph horiz-adv-x="1235" d="M 171 0 L 171 1087 L 423 1087 L 423 913 C 443 937 467 960 493 983 C 519 1006 548 1027 581 1046 C 613 1064 648 1079 686 1091 C 724 1102 766 1108 812 1108 C 862 1108 906 1101 946 1088 C 986 1075 1020 1056 1048 1030 C 1075 1004 1096 971 1111 931 C 1126 891 1134 845 1134 791 L 1134 0 L 882 0 L 882 719 C 882 779 869 824 843 854 C 817 884 776 899 718 899 C 662 899 611 886 563 861 C 515 835 469 801 423 758 L 423 0 L 171 0 Z M 780 1188 C 746 1188 715 1194 688 1206 C 661 1218 636 1231 613 1246 C 589 1260 567 1273 546 1285 C 525 1297 504 1303 483 1303 C 454 1303 433 1294 419 1277 C 405 1260 399 1232 399 1192 L 258 1192 C 258 1242 262 1285 272 1321 C 282 1357 296 1386 315 1410 C 333 1432 355 1449 381 1460 C 407 1471 437 1477 471 1477 C 505 1477 535 1471 562 1459 C 589 1447 614 1434 638 1420 C 661 1405 683 1392 705 1380 C 726 1368 748 1362 770 1362 C 798 1362 819 1370 833 1387 C 847 1404 854 1433 854 1473 L 995 1473 C 995 1373 975 1301 937 1256 C 899 1210 846 1188 780 1188 Z" unicode="ñ" />
<glyph horiz-adv-x="1221" d="M 610 -23 C 544 -23 479 -12 416 9 C 352 31 296 65 246 111 C 196 157 155 215 125 287 C 95 358 80 443 80 543 C 80 643 95 728 125 800 C 155 872 196 930 246 976 C 295 1021 351 1054 415 1076 C 478 1097 543 1108 610 1108 C 676 1108 740 1097 804 1076 C 868 1054 925 1021 975 976 C 1024 930 1064 872 1095 800 C 1125 728 1141 643 1141 543 C 1141 477 1134 417 1120 363 C 1106 309 1086 261 1062 219 C 1037 177 1008 140 974 110 C 940 80 904 55 865 36 C 825 16 784 1 741 -8 C 697 -18 654 -23 610 -23 Z M 610 188 C 701 188 770 219 817 281 C 863 343 887 431 887 543 C 887 593 881 640 870 683 C 859 725 842 762 820 794 C 797 824 768 848 734 866 C 699 884 658 893 610 893 C 564 893 524 885 490 869 C 455 853 426 830 404 800 C 380 770 363 733 351 690 C 339 646 334 597 334 543 C 334 491 339 443 350 400 C 360 356 377 319 400 288 C 422 256 451 232 486 214 C 520 196 562 188 610 188 Z M 270 1542 L 542 1542 L 735 1202 L 569 1202 L 270 1542 Z" unicode="ò" />
<glyph horiz-adv-x="1221" d="M 675 1542 L 945 1542 L 648 1202 L 483 1202 L 675 1542 Z M 610 -23 C 544 -23 479 -12 416 9 C 352 31 296 65 246 111 C 196 157 155 215 125 287 C 95 358 80 443 80 543 C 80 643 95 728 125 800 C 155 872 196 930 246 976 C 295 1021 351 1054 415 1076 C 478 1097 543 1108 610 1108 C 676 1108 740 1097 804 1076 C 868 1054 925 1021 975 976 C 1024 930 1064 872 1095 800 C 1125 728 1141 643 1141 543 C 1141 477 1134 417 1120 363 C 1106 309 1086 261 1062 219 C 1037 177 1008 140 974 110 C 940 80 904 55 865 36 C 825 16 784 1 741 -8 C 697 -18 654 -23 610 -23 Z M 610 188 C 701 188 770 219 817 281 C 863 343 887 431 887 543 C 887 593 881 640 870 683 C 859 725 842 762 820 794 C 797 824 768 848 734 866 C 699 884 658 893 610 893 C 564 893 524 885 490 869 C 455 853 426 830 404 800 C 380 770 363 733 351 690 C 339 646 334 597 334 543 C 334 491 339 443 350 400 C 360 356 377 319 400 288 C 422 256 451 232 486 214 C 520 196 562 188 610 188 Z" unicode="ó" />
<glyph horiz-adv-x="1221" d="M 522 1542 L 696 1542 L 960 1202 L 813 1202 L 608 1374 L 403 1202 L 258 1202 L 522 1542 Z M 610 -23 C 544 -23 479 -12 416 9 C 352 31 296 65 246 111 C 196 157 155 215 125 287 C 95 358 80 443 80 543 C 80 643 95 728 125 800 C 155 872 196 930 246 976 C 295 1021 351 1054 415 1076 C 478 1097 543 1108 610 1108 C 676 1108 740 1097 804 1076 C 868 1054 925 1021 975 976 C 1024 930 1064 872 1095 800 C 1125 728 1141 643 1141 543 C 1141 477 1134 417 1120 363 C 1106 309 1086 261 1062 219 C 1037 177 1008 140 974 110 C 940 80 904 55 865 36 C 825 16 784 1 741 -8 C 697 -18 654 -23 610 -23 Z M 610 188 C 701 188 770 219 817 281 C 863 343 887 431 887 543 C 887 593 881 640 870 683 C 859 725 842 762 820 794 C 797 824 768 848 734 866 C 699 884 658 893 610 893 C 564 893 524 885 490 869 C 455 853 426 830 404 800 C 380 770 363 733 351 690 C 339 646 334 597 334 543 C 334 491 339 443 350 400 C 360 356 377 319 400 288 C 422 256 451 232 486 214 C 520 196 562 188 610 188 Z" unicode="ô" />
<glyph horiz-adv-x="1221" d="M 610 -23 C 544 -23 479 -12 416 9 C 352 31 296 65 246 111 C 196 157 155 215 125 287 C 95 358 80 443 80 543 C 80 643 95 728 125 800 C 155 872 196 930 246 976 C 295 1021 351 1054 415 1076 C 478 1097 543 1108 610 1108 C 676 1108 740 1097 804 1076 C 868 1054 925 1021 975 976 C 1024 930 1064 872 1095 800 C 1125 728 1141 643 1141 543 C 1141 477 1134 417 1120 363 C 1106 309 1086 261 1062 219 C 1037 177 1008 140 974 110 C 940 80 904 55 865 36 C 825 16 784 1 741 -8 C 697 -18 654 -23 610 -23 Z M 610 188 C 701 188 770 219 817 281 C 863 343 887 431 887 543 C 887 593 881 640 870 683 C 859 725 842 762 820 794 C 797 824 768 848 734 866 C 699 884 658 893 610 893 C 564 893 524 885 490 869 C 455 853 426 830 404 800 C 380 770 363 733 351 690 C 339 646 334 597 334 543 C 334 491 339 443 350 400 C 360 356 377 319 400 288 C 422 256 451 232 486 214 C 520 196 562 188 610 188 Z M 765 1188 C 731 1188 700 1194 673 1206 C 646 1218 621 1231 598 1246 C 574 1260 552 1273 531 1285 C 510 1297 489 1303 468 1303 C 439 1303 418 1294 404 1277 C 390 1260 384 1232 384 1192 L 243 1192 C 243 1242 247 1285 257 1321 C 267 1357 281 1386 300 1410 C 318 1432 340 1449 366 1460 C 392 1471 422 1477 456 1477 C 490 1477 520 1471 547 1459 C 574 1447 599 1434 623 1420 C 646 1405 668 1392 690 1380 C 711 1368 733 1362 755 1362 C 783 1362 804 1370 818 1387 C 832 1404 839 1433 839 1473 L 980 1473 C 980 1373 960 1301 922 1256 C 884 1210 831 1188 765 1188 Z" unicode="õ" />
<glyph horiz-adv-x="1221" d="M 288 1444 L 517 1444 L 517 1196 L 288 1196 L 288 1444 Z M 693 1444 L 923 1444 L 923 1196 L 693 1196 L 693 1444 Z M 610 -23 C 544 -23 479 -12 416 9 C 352 31 296 65 246 111 C 196 157 155 215 125 287 C 95 358 80 443 80 543 C 80 643 95 728 125 800 C 155 872 196 930 246 976 C 295 1021 351 1054 415 1076 C 478 1097 543 1108 610 1108 C 676 1108 740 1097 804 1076 C 868 1054 925 1021 975 976 C 1024 930 1064 872 1095 800 C 1125 728 1141 643 1141 543 C 1141 477 1134 417 1120 363 C 1106 309 1086 261 1062 219 C 1037 177 1008 140 974 110 C 940 80 904 55 865 36 C 825 16 784 1 741 -8 C 697 -18 654 -23 610 -23 Z M 610 188 C 701 188 770 219 817 281 C 863 343 887 431 887 543 C 887 593 881 640 870 683 C 859 725 842 762 820 794 C 797 824 768 848 734 866 C 699 884 658 893 610 893 C 564 893 524 885 490 869 C 455 853 426 830 404 800 C 380 770 363 733 351 690 C 339 646 334 597 334 543 C 334 491 339 443 350 400 C 360 356 377 319 400 288 C 422 256 451 232 486 214 C 520 196 562 188 610 188 Z" unicode="ö" />
<glyph horiz-adv-x="1315" d="M 137 598 L 137 801 L 1180 801 L 1180 598 L 137 598 Z M 537 207 L 537 422 L 772 422 L 772 207 L 537 207 Z M 537 975 L 537 1190 L 772 1190 L 772 975 L 537 975 Z" unicode="÷" />
<glyph horiz-adv-x="1221" d="M 1026 922 C 1061 876 1089 822 1110 760 C 1130 698 1141 625 1141 543 C 1141 477 1134 417 1120 363 C 1106 309 1086 261 1062 219 C 1037 177 1008 140 974 110 C 940 80 904 55 865 36 C 825 16 784 1 741 -8 C 697 -18 654 -23 610 -23 C 556 -23 504 -16 453 -2 C 402 11 354 32 309 61 L 188 -78 L 82 20 L 201 158 C 163 204 134 258 112 322 C 90 386 80 459 80 543 C 80 643 95 728 125 800 C 155 872 196 930 246 976 C 295 1021 351 1054 415 1076 C 478 1097 543 1108 610 1108 C 664 1108 718 1101 770 1087 C 822 1073 872 1050 918 1020 L 1032 1155 L 1141 1055 L 1026 922 Z M 778 850 C 756 867 731 880 703 890 C 675 900 644 905 610 905 C 564 905 523 896 488 879 C 453 862 424 838 400 807 C 376 775 358 737 346 693 C 334 648 328 598 328 543 C 328 505 331 468 337 434 C 343 400 352 368 365 340 L 778 850 Z M 446 227 C 466 211 490 198 518 188 C 545 178 576 174 610 174 C 656 174 696 182 732 200 C 767 217 797 242 821 274 C 845 306 863 344 875 390 C 887 435 893 486 893 543 C 893 579 890 613 885 645 C 879 677 871 707 860 735 L 446 227 Z" unicode="ø" />
<glyph horiz-adv-x="1235" d="M 442 -20 C 394 -20 351 -13 313 1 C 274 15 241 35 214 63 C 186 90 165 124 151 165 C 136 205 129 253 129 307 L 129 1087 L 383 1087 L 383 367 C 383 306 396 261 422 233 C 448 204 489 190 545 190 C 600 190 651 203 699 229 C 747 255 794 290 840 332 L 840 1087 L 1094 1087 L 1094 0 L 840 0 L 840 147 C 822 129 801 110 776 90 C 750 70 721 53 689 37 C 655 20 618 6 577 -4 C 536 -14 491 -20 442 -20 Z M 280 1542 L 552 1542 L 745 1202 L 579 1202 L 280 1542 Z" unicode="ù" />
<glyph horiz-adv-x="1235" d="M 669 1542 L 939 1542 L 642 1202 L 477 1202 L 669 1542 Z M 442 -20 C 394 -20 351 -13 313 1 C 274 15 241 35 214 63 C 186 90 165 124 151 165 C 136 205 129 253 129 307 L 129 1087 L 383 1087 L 383 367 C 383 306 396 261 422 233 C 448 204 489 190 545 190 C 600 190 651 203 699 229 C 747 255 794 290 840 332 L 840 1087 L 1094 1087 L 1094 0 L 840 0 L 840 147 C 822 129 801 110 776 90 C 750 70 721 53 689 37 C 655 20 618 6 577 -4 C 536 -14 491 -20 442 -20 Z" unicode="ú" />
<glyph horiz-adv-x="1235" d="M 524 1542 L 698 1542 L 962 1202 L 815 1202 L 610 1374 L 405 1202 L 260 1202 L 524 1542 Z M 442 -20 C 394 -20 351 -13 313 1 C 274 15 241 35 214 63 C 186 90 165 124 151 165 C 136 205 129 253 129 307 L 129 1087 L 383 1087 L 383 367 C 383 306 396 261 422 233 C 448 204 489 190 545 190 C 600 190 651 203 699 229 C 747 255 794 290 840 332 L 840 1087 L 1094 1087 L 1094 0 L 840 0 L 840 147 C 822 129 801 110 776 90 C 750 70 721 53 689 37 C 655 20 618 6 577 -4 C 536 -14 491 -20 442 -20 Z" unicode="û" />
<glyph horiz-adv-x="1235" d="M 292 1444 L 521 1444 L 521 1196 L 292 1196 L 292 1444 Z M 697 1444 L 927 1444 L 927 1196 L 697 1196 L 697 1444 Z M 442 -20 C 394 -20 351 -13 313 1 C 274 15 241 35 214 63 C 186 90 165 124 151 165 C 136 205 129 253 129 307 L 129 1087 L 383 1087 L 383 367 C 383 306 396 261 422 233 C 448 204 489 190 545 190 C 600 190 651 203 699 229 C 747 255 794 290 840 332 L 840 1087 L 1094 1087 L 1094 0 L 840 0 L 840 147 C 822 129 801 110 776 90 C 750 70 721 53 689 37 C 655 20 618 6 577 -4 C 536 -14 491 -20 442 -20 Z" unicode="ü" />
<glyph horiz-adv-x="1120" d="M 256 -422 C 191 -422 138 -418 98 -411 C 58 -403 24 -396 -2 -389 L 55 -186 C 70 -190 94 -195 126 -201 C 158 -206 196 -209 240 -209 C 284 -209 320 -199 346 -180 C 372 -161 394 -130 412 -86 L 442 -6 L 25 1087 L 287 1087 L 567 295 L 571 295 L 850 1087 L 1100 1087 L 637 -119 C 619 -166 599 -208 577 -246 C 555 -284 530 -316 501 -342 C 471 -368 436 -387 396 -401 C 356 -415 310 -422 256 -422 Z M 571 1542 L 841 1542 L 544 1202 L 379 1202 L 571 1542 Z" unicode="ý" />
<glyph horiz-adv-x="1251" d="M 141 -410 L 141 1516 L 393 1516 L 393 944 C 411 965 431 986 455 1006 C 478 1026 504 1043 533 1059 C 561 1073 593 1085 627 1094 C 661 1103 699 1108 739 1108 C 801 1108 858 1096 911 1073 C 963 1049 1009 1014 1047 968 C 1085 921 1114 862 1136 792 C 1158 721 1169 639 1169 545 C 1169 451 1157 368 1135 298 C 1113 228 1081 169 1041 123 C 1000 76 951 41 894 18 C 837 -4 774 -16 705 -16 C 646 -16 589 -4 535 18 C 480 41 433 75 393 121 L 393 -410 L 141 -410 Z M 649 184 C 744 184 813 213 855 272 C 897 331 918 421 918 543 C 918 658 894 745 848 804 C 802 863 738 893 657 893 C 631 893 605 889 580 881 C 555 873 531 863 509 851 C 485 838 464 823 444 807 C 424 791 407 774 393 756 L 393 319 C 427 275 466 241 512 218 C 558 195 603 184 649 184 Z" unicode="þ" />
<glyph horiz-adv-x="1120" d="M 256 -422 C 191 -422 138 -418 98 -411 C 58 -403 24 -396 -2 -389 L 55 -186 C 70 -190 94 -195 126 -201 C 158 -206 196 -209 240 -209 C 284 -209 320 -199 346 -180 C 372 -161 394 -130 412 -86 L 442 -6 L 25 1087 L 287 1087 L 567 295 L 571 295 L 850 1087 L 1100 1087 L 637 -119 C 619 -166 599 -208 577 -246 C 555 -284 530 -316 501 -342 C 471 -368 436 -387 396 -401 C 356 -415 310 -422 256 -422 Z M 247 1444 L 476 1444 L 476 1196 L 247 1196 L 247 1444 Z M 652 1444 L 882 1444 L 882 1196 L 652 1196 L 652 1444 Z" unicode="ÿ" />
<glyph horiz-adv-x="1427" d="M 51 0 L 588 1522 L 840 1522 L 1376 0 L 1114 0 L 991 360 L 416 360 L 291 0 L 51 0 Z M 494 586 L 915 586 L 709 1200 L 705 1200 L 494 586 Z M 393 1785 L 1031 1785 L 1031 1599 L 393 1599 L 393 1785 Z" unicode="Ā" />
<glyph horiz-adv-x="1157" d="M 379 -16 C 335 -16 294 -10 257 2 C 219 14 187 32 160 56 C 132 79 110 108 95 142 C 79 176 72 216 72 262 C 72 320 85 374 111 423 C 137 472 178 516 236 554 C 292 592 365 624 455 651 C 544 677 652 698 780 713 L 780 745 C 780 799 765 839 736 864 C 707 888 662 901 602 901 C 564 901 528 896 494 888 C 460 880 427 869 397 855 C 366 841 337 825 310 807 C 283 789 258 772 236 754 L 113 911 C 141 937 174 963 212 987 C 249 1011 290 1032 334 1050 C 378 1068 425 1082 476 1092 C 527 1102 581 1108 637 1108 C 709 1108 771 1099 821 1082 C 871 1065 911 1040 942 1007 C 972 973 994 932 1008 883 C 1021 834 1028 778 1028 715 L 1028 266 C 1028 200 1030 146 1035 104 C 1039 62 1047 28 1059 0 L 805 0 C 801 11 798 22 795 32 C 792 42 790 52 788 64 C 785 74 783 86 782 98 C 780 110 780 123 780 139 C 724 83 664 43 598 19 C 532 -4 459 -16 379 -16 Z M 471 178 C 535 178 593 189 644 212 C 694 234 740 265 780 303 L 780 543 C 628 522 514 493 436 455 C 358 417 319 369 319 309 C 319 265 332 233 360 211 C 388 189 425 178 471 178 Z M 258 1382 L 896 1382 L 896 1196 L 258 1196 L 258 1382 Z" unicode="ā" />
<glyph horiz-adv-x="1427" d="M 51 0 L 588 1522 L 840 1522 L 1376 0 L 1114 0 L 991 360 L 416 360 L 291 0 L 51 0 Z M 494 586 L 915 586 L 709 1200 L 705 1200 L 494 586 Z M 712 1589 C 659 1589 612 1598 571 1616 C 530 1634 495 1659 467 1691 C 438 1723 416 1761 400 1805 C 384 1849 374 1898 372 1951 L 513 1951 C 517 1913 526 1881 538 1856 C 550 1831 566 1811 584 1797 C 601 1782 621 1772 643 1766 C 665 1760 688 1757 712 1757 C 736 1757 759 1760 781 1766 C 803 1772 823 1782 841 1797 C 859 1811 874 1831 887 1856 C 899 1881 908 1913 913 1951 L 1052 1951 C 1049 1898 1040 1849 1024 1805 C 1008 1761 985 1723 957 1691 C 928 1659 893 1634 852 1616 C 811 1598 764 1589 712 1589 Z" unicode="Ă" />
<glyph horiz-adv-x="1157" d="M 379 -16 C 335 -16 294 -10 257 2 C 219 14 187 32 160 56 C 132 79 110 108 95 142 C 79 176 72 216 72 262 C 72 320 85 374 111 423 C 137 472 178 516 236 554 C 292 592 365 624 455 651 C 544 677 652 698 780 713 L 780 745 C 780 799 765 839 736 864 C 707 888 662 901 602 901 C 564 901 528 896 494 888 C 460 880 427 869 397 855 C 366 841 337 825 310 807 C 283 789 258 772 236 754 L 113 911 C 141 937 174 963 212 987 C 249 1011 290 1032 334 1050 C 378 1068 425 1082 476 1092 C 527 1102 581 1108 637 1108 C 709 1108 771 1099 821 1082 C 871 1065 911 1040 942 1007 C 972 973 994 932 1008 883 C 1021 834 1028 778 1028 715 L 1028 266 C 1028 200 1030 146 1035 104 C 1039 62 1047 28 1059 0 L 805 0 C 801 11 798 22 795 32 C 792 42 790 52 788 64 C 785 74 783 86 782 98 C 780 110 780 123 780 139 C 724 83 664 43 598 19 C 532 -4 459 -16 379 -16 Z M 471 178 C 535 178 593 189 644 212 C 694 234 740 265 780 303 L 780 543 C 628 522 514 493 436 455 C 358 417 319 369 319 309 C 319 265 332 233 360 211 C 388 189 425 178 471 178 Z M 577 1186 C 524 1186 477 1195 436 1213 C 395 1231 360 1256 332 1288 C 303 1320 281 1358 265 1402 C 249 1446 239 1495 237 1548 L 378 1548 C 382 1510 391 1478 403 1453 C 415 1428 431 1408 449 1394 C 466 1379 486 1369 508 1363 C 530 1357 553 1354 577 1354 C 601 1354 624 1357 646 1363 C 668 1369 688 1379 706 1394 C 724 1408 739 1428 752 1453 C 764 1478 773 1510 778 1548 L 917 1548 C 914 1495 905 1446 889 1402 C 873 1358 850 1320 822 1288 C 793 1256 758 1231 717 1213 C 676 1195 629 1186 577 1186 Z" unicode="ă" />
<glyph horiz-adv-x="1427" d="M 51 0 L 588 1522 L 840 1522 L 1376 0 L 1114 0 L 991 360 L 416 360 L 291 0 L 51 0 Z M 494 586 L 915 586 L 709 1200 L 705 1200 L 494 586 Z M 1158 -383 C 1089 -383 1036 -369 1000 -341 C 963 -313 945 -275 945 -225 C 945 -203 949 -182 959 -160 C 969 -138 982 -117 999 -97 C 1015 -76 1035 -56 1057 -38 C 1079 -19 1104 -2 1130 14 L 1271 14 C 1221 -20 1184 -53 1160 -87 C 1136 -120 1124 -153 1124 -186 C 1124 -198 1125 -209 1128 -219 C 1131 -229 1137 -239 1145 -247 C 1152 -254 1162 -260 1174 -265 C 1186 -269 1202 -272 1222 -272 C 1260 -272 1293 -267 1321 -257 C 1349 -247 1376 -235 1402 -223 L 1453 -303 C 1411 -327 1365 -347 1317 -361 C 1269 -375 1216 -383 1158 -383 Z" unicode="Ą" />
<glyph horiz-adv-x="1157" d="M 379 -16 C 335 -16 294 -10 257 2 C 219 14 187 32 160 56 C 132 79 110 108 95 142 C 79 176 72 216 72 262 C 72 320 85 374 111 423 C 137 472 178 516 236 554 C 292 592 365 624 455 651 C 544 677 652 698 780 713 L 780 745 C 780 799 765 839 736 864 C 707 888 662 901 602 901 C 564 901 528 896 494 888 C 460 880 427 869 397 855 C 366 841 337 825 310 807 C 283 789 258 772 236 754 L 113 911 C 141 937 174 963 212 987 C 249 1011 290 1032 334 1050 C 378 1068 425 1082 476 1092 C 527 1102 581 1108 637 1108 C 709 1108 771 1099 821 1082 C 871 1065 911 1040 942 1007 C 972 973 994 932 1008 883 C 1021 834 1028 778 1028 715 L 1028 266 C 1028 200 1030 146 1035 104 C 1039 62 1047 28 1059 0 L 805 0 C 801 11 798 22 795 32 C 792 42 790 52 788 64 C 785 74 783 86 782 98 C 780 110 780 123 780 139 C 724 83 664 43 598 19 C 532 -4 459 -16 379 -16 Z M 471 178 C 535 178 593 189 644 212 C 694 234 740 265 780 303 L 780 543 C 628 522 514 493 436 455 C 358 417 319 369 319 309 C 319 265 332 233 360 211 C 388 189 425 178 471 178 Z M 847 -383 C 778 -383 725 -369 689 -341 C 652 -313 634 -275 634 -225 C 634 -203 638 -182 648 -160 C 658 -138 671 -117 688 -97 C 704 -76 724 -56 746 -38 C 768 -19 793 -2 819 14 L 960 14 C 910 -20 873 -53 849 -87 C 825 -120 813 -153 813 -186 C 813 -198 814 -209 817 -219 C 820 -229 826 -239 834 -247 C 841 -254 851 -260 863 -265 C 875 -269 891 -272 911 -272 C 949 -272 982 -267 1010 -257 C 1038 -247 1065 -235 1091 -223 L 1142 -303 C 1100 -327 1054 -347 1006 -361 C 958 -375 905 -383 847 -383 Z" unicode="ą" />
<glyph horiz-adv-x="1468" d="M 796 1945 L 1066 1945 L 769 1605 L 604 1605 L 796 1945 Z M 764 -29 C 666 -29 577 -12 496 21 C 414 54 344 104 286 171 C 226 237 180 319 147 418 C 114 516 98 631 98 762 C 98 888 114 1000 148 1098 C 182 1195 228 1277 288 1343 C 347 1409 417 1459 499 1493 C 580 1527 668 1544 764 1544 C 852 1544 929 1532 995 1509 C 1061 1486 1117 1454 1165 1413 C 1211 1371 1250 1321 1280 1263 C 1310 1205 1334 1142 1352 1073 L 1108 1004 C 1094 1054 1077 1097 1058 1135 C 1039 1173 1016 1205 989 1231 C 961 1256 929 1275 892 1288 C 855 1300 812 1307 762 1307 C 698 1307 640 1294 590 1270 C 540 1246 497 1211 463 1165 C 428 1118 401 1061 383 994 C 365 926 356 850 356 764 C 356 674 365 594 384 524 C 402 454 429 396 465 349 C 500 301 543 265 594 241 C 644 217 702 205 766 205 C 815 205 859 211 898 224 C 936 236 971 256 1001 283 C 1030 309 1055 342 1077 383 C 1098 424 1116 473 1130 530 L 1374 475 C 1355 399 1329 331 1296 269 C 1263 207 1222 154 1173 110 C 1123 66 1064 31 996 7 C 928 -16 851 -29 764 -29 Z" unicode="Ć" />
<glyph horiz-adv-x="1116" d="M 647 1542 L 917 1542 L 620 1202 L 455 1202 L 647 1542 Z M 588 -23 C 524 -23 462 -12 402 9 C 341 31 287 65 240 111 C 192 157 153 215 124 287 C 94 358 80 443 80 543 C 80 612 87 674 102 729 C 116 783 136 832 162 874 C 186 916 216 951 250 981 C 284 1011 320 1035 359 1054 C 397 1072 437 1086 479 1095 C 520 1103 561 1108 602 1108 C 669 1108 727 1099 777 1082 C 826 1064 868 1041 904 1012 C 939 982 968 949 992 911 C 1016 873 1036 833 1053 791 L 840 715 C 818 777 788 822 748 852 C 708 882 658 897 598 897 C 562 897 528 890 496 878 C 464 865 436 845 412 817 C 388 789 369 752 355 707 C 341 662 334 607 334 543 C 334 426 356 337 401 276 C 446 214 510 184 594 184 C 622 184 649 186 673 192 C 697 197 720 207 742 221 C 762 235 781 254 799 278 C 816 302 832 334 848 373 L 1057 297 C 1037 253 1014 212 988 173 C 961 134 929 100 892 72 C 854 42 810 19 760 2 C 710 -14 653 -23 588 -23 Z" unicode="ć" />
<glyph horiz-adv-x="1468" d="M 669 1945 L 843 1945 L 1107 1605 L 960 1605 L 755 1777 L 550 1605 L 405 1605 L 669 1945 Z M 764 -29 C 666 -29 577 -12 496 21 C 414 54 344 104 286 171 C 226 237 180 319 147 418 C 114 516 98 631 98 762 C 98 888 114 1000 148 1098 C 182 1195 228 1277 288 1343 C 347 1409 417 1459 499 1493 C 580 1527 668 1544 764 1544 C 852 1544 929 1532 995 1509 C 1061 1486 1117 1454 1165 1413 C 1211 1371 1250 1321 1280 1263 C 1310 1205 1334 1142 1352 1073 L 1108 1004 C 1094 1054 1077 1097 1058 1135 C 1039 1173 1016 1205 989 1231 C 961 1256 929 1275 892 1288 C 855 1300 812 1307 762 1307 C 698 1307 640 1294 590 1270 C 540 1246 497 1211 463 1165 C 428 1118 401 1061 383 994 C 365 926 356 850 356 764 C 356 674 365 594 384 524 C 402 454 429 396 465 349 C 500 301 543 265 594 241 C 644 217 702 205 766 205 C 815 205 859 211 898 224 C 936 236 971 256 1001 283 C 1030 309 1055 342 1077 383 C 1098 424 1116 473 1130 530 L 1374 475 C 1355 399 1329 331 1296 269 C 1263 207 1222 154 1173 110 C 1123 66 1064 31 996 7 C 928 -16 851 -29 764 -29 Z" unicode="Ĉ" />
<glyph horiz-adv-x="1116" d="M 485 1542 L 659 1542 L 923 1202 L 776 1202 L 571 1374 L 366 1202 L 221 1202 L 485 1542 Z M 588 -23 C 524 -23 462 -12 402 9 C 341 31 287 65 240 111 C 192 157 153 215 124 287 C 94 358 80 443 80 543 C 80 612 87 674 102 729 C 116 783 136 832 162 874 C 186 916 216 951 250 981 C 284 1011 320 1035 359 1054 C 397 1072 437 1086 479 1095 C 520 1103 561 1108 602 1108 C 669 1108 727 1099 777 1082 C 826 1064 868 1041 904 1012 C 939 982 968 949 992 911 C 1016 873 1036 833 1053 791 L 840 715 C 818 777 788 822 748 852 C 708 882 658 897 598 897 C 562 897 528 890 496 878 C 464 865 436 845 412 817 C 388 789 369 752 355 707 C 341 662 334 607 334 543 C 334 426 356 337 401 276 C 446 214 510 184 594 184 C 622 184 649 186 673 192 C 697 197 720 207 742 221 C 762 235 781 254 799 278 C 816 302 832 334 848 373 L 1057 297 C 1037 253 1014 212 988 173 C 961 134 929 100 892 72 C 854 42 810 19 760 2 C 710 -14 653 -23 588 -23 Z" unicode="ĉ" />
<glyph horiz-adv-x="1468" d="M 764 -29 C 666 -29 577 -12 496 21 C 414 54 344 104 286 171 C 226 237 180 319 147 418 C 114 516 98 631 98 762 C 98 888 114 1000 148 1098 C 182 1195 228 1277 288 1343 C 347 1409 417 1459 499 1493 C 580 1527 668 1544 764 1544 C 852 1544 929 1532 995 1509 C 1061 1486 1117 1454 1165 1413 C 1211 1371 1250 1321 1280 1263 C 1310 1205 1334 1142 1352 1073 L 1108 1004 C 1094 1054 1077 1097 1058 1135 C 1039 1173 1016 1205 989 1231 C 961 1256 929 1275 892 1288 C 855 1300 812 1307 762 1307 C 698 1307 640 1294 590 1270 C 540 1246 497 1211 463 1165 C 428 1118 401 1061 383 994 C 365 926 356 850 356 764 C 356 674 365 594 384 524 C 402 454 429 396 465 349 C 500 301 543 265 594 241 C 644 217 702 205 766 205 C 815 205 859 211 898 224 C 936 236 971 256 1001 283 C 1030 309 1055 342 1077 383 C 1098 424 1116 473 1130 530 L 1374 475 C 1355 399 1329 331 1296 269 C 1263 207 1222 154 1173 110 C 1123 66 1064 31 996 7 C 928 -16 851 -29 764 -29 Z M 618 1849 L 888 1849 L 888 1622 L 618 1622 L 618 1849 Z" unicode="Ċ" />
<glyph horiz-adv-x="1116" d="M 588 -23 C 524 -23 462 -12 402 9 C 341 31 287 65 240 111 C 192 157 153 215 124 287 C 94 358 80 443 80 543 C 80 612 87 674 102 729 C 116 783 136 832 162 874 C 186 916 216 951 250 981 C 284 1011 320 1035 359 1054 C 397 1072 437 1086 479 1095 C 520 1103 561 1108 602 1108 C 669 1108 727 1099 777 1082 C 826 1064 868 1041 904 1012 C 939 982 968 949 992 911 C 1016 873 1036 833 1053 791 L 840 715 C 818 777 788 822 748 852 C 708 882 658 897 598 897 C 562 897 528 890 496 878 C 464 865 436 845 412 817 C 388 789 369 752 355 707 C 341 662 334 607 334 543 C 334 426 356 337 401 276 C 446 214 510 184 594 184 C 622 184 649 186 673 192 C 697 197 720 207 742 221 C 762 235 781 254 799 278 C 816 302 832 334 848 373 L 1057 297 C 1037 253 1014 212 988 173 C 961 134 929 100 892 72 C 854 42 810 19 760 2 C 710 -14 653 -23 588 -23 Z M 442 1446 L 712 1446 L 712 1219 L 442 1219 L 442 1446 Z" unicode="ċ" />
<glyph horiz-adv-x="1468" d="M 381 1951 L 528 1951 L 733 1779 L 938 1951 L 1083 1951 L 819 1611 L 645 1611 L 381 1951 Z M 764 -29 C 666 -29 577 -12 496 21 C 414 54 344 104 286 171 C 226 237 180 319 147 418 C 114 516 98 631 98 762 C 98 888 114 1000 148 1098 C 182 1195 228 1277 288 1343 C 347 1409 417 1459 499 1493 C 580 1527 668 1544 764 1544 C 852 1544 929 1532 995 1509 C 1061 1486 1117 1454 1165 1413 C 1211 1371 1250 1321 1280 1263 C 1310 1205 1334 1142 1352 1073 L 1108 1004 C 1094 1054 1077 1097 1058 1135 C 1039 1173 1016 1205 989 1231 C 961 1256 929 1275 892 1288 C 855 1300 812 1307 762 1307 C 698 1307 640 1294 590 1270 C 540 1246 497 1211 463 1165 C 428 1118 401 1061 383 994 C 365 926 356 850 356 764 C 356 674 365 594 384 524 C 402 454 429 396 465 349 C 500 301 543 265 594 241 C 644 217 702 205 766 205 C 815 205 859 211 898 224 C 936 236 971 256 1001 283 C 1030 309 1055 342 1077 383 C 1098 424 1116 473 1130 530 L 1374 475 C 1355 399 1329 331 1296 269 C 1263 207 1222 154 1173 110 C 1123 66 1064 31 996 7 C 928 -16 851 -29 764 -29 Z" unicode="Č" />
<glyph horiz-adv-x="1116" d="M 207 1548 L 354 1548 L 559 1376 L 764 1548 L 909 1548 L 645 1208 L 471 1208 L 207 1548 Z M 588 -23 C 524 -23 462 -12 402 9 C 341 31 287 65 240 111 C 192 157 153 215 124 287 C 94 358 80 443 80 543 C 80 612 87 674 102 729 C 116 783 136 832 162 874 C 186 916 216 951 250 981 C 284 1011 320 1035 359 1054 C 397 1072 437 1086 479 1095 C 520 1103 561 1108 602 1108 C 669 1108 727 1099 777 1082 C 826 1064 868 1041 904 1012 C 939 982 968 949 992 911 C 1016 873 1036 833 1053 791 L 840 715 C 818 777 788 822 748 852 C 708 882 658 897 598 897 C 562 897 528 890 496 878 C 464 865 436 845 412 817 C 388 789 369 752 355 707 C 341 662 334 607 334 543 C 334 426 356 337 401 276 C 446 214 510 184 594 184 C 622 184 649 186 673 192 C 697 197 720 207 742 221 C 762 235 781 254 799 278 C 816 302 832 334 848 373 L 1057 297 C 1037 253 1014 212 988 173 C 961 134 929 100 892 72 C 854 42 810 19 760 2 C 710 -14 653 -23 588 -23 Z" unicode="č" />
<glyph horiz-adv-x="1491" d="M 393 1951 L 540 1951 L 745 1779 L 950 1951 L 1095 1951 L 831 1611 L 657 1611 L 393 1951 Z M 172 0 L 172 1516 L 604 1516 C 722 1516 830 1501 927 1473 C 1024 1444 1107 1399 1176 1339 C 1244 1277 1297 1199 1335 1105 C 1372 1010 1391 896 1391 764 C 1391 628 1372 512 1334 416 C 1296 320 1242 241 1174 180 C 1104 118 1021 72 925 43 C 828 14 721 0 604 0 L 172 0 Z M 428 229 L 627 229 C 713 229 788 238 852 258 C 916 278 969 309 1011 353 C 1053 395 1084 450 1104 518 C 1124 586 1135 668 1135 764 C 1135 854 1124 932 1104 997 C 1083 1062 1052 1116 1010 1158 C 967 1199 913 1229 849 1249 C 785 1268 709 1278 623 1278 L 428 1278 L 428 229 Z" unicode="Ď" />
<glyph horiz-adv-x="1251" d="M 1303 1403 L 1206 1403 L 1206 1640 L 1450 1640 L 1450 1434 L 1341 1192 L 1239 1192 L 1303 1403 Z M 512 -16 C 450 -16 392 -4 340 18 C 287 40 242 75 204 121 C 166 167 136 225 114 295 C 92 365 82 447 82 541 C 82 635 93 717 115 788 C 137 859 169 918 210 966 C 250 1013 299 1048 356 1072 C 413 1096 477 1108 547 1108 C 605 1108 662 1096 716 1073 C 770 1050 818 1016 858 971 L 858 1516 L 1110 1516 L 1110 266 C 1110 200 1112 146 1117 104 C 1121 62 1130 28 1143 0 L 883 0 C 875 15 869 36 865 64 C 860 92 858 119 858 147 C 838 123 816 102 793 82 C 769 62 744 45 716 31 C 688 16 657 4 623 -3 C 589 -11 552 -16 512 -16 Z M 594 190 C 620 190 645 193 671 201 C 696 209 720 219 743 232 C 765 244 786 259 806 276 C 826 292 843 310 858 328 L 858 764 C 824 808 784 841 738 864 C 692 887 647 899 602 899 C 554 899 514 891 480 876 C 446 860 418 838 397 808 C 375 777 359 739 349 693 C 339 647 334 595 334 535 C 334 419 357 333 403 276 C 449 218 512 190 594 190 Z" unicode="ď" />
<glyph horiz-adv-x="1491" d="M 172 0 L 172 686 L 23 686 L 23 883 L 172 883 L 172 1516 L 604 1516 C 722 1516 830 1501 927 1473 C 1024 1444 1107 1399 1176 1338 C 1244 1276 1297 1198 1335 1102 C 1372 1006 1391 892 1391 758 C 1391 624 1372 510 1334 414 C 1296 318 1242 240 1174 179 C 1104 117 1021 72 925 43 C 828 14 721 0 604 0 L 172 0 Z M 426 227 L 627 227 C 713 227 788 237 852 257 C 916 277 969 308 1011 352 C 1053 395 1084 450 1104 518 C 1124 586 1135 668 1135 764 C 1135 854 1124 932 1104 997 C 1083 1062 1052 1116 1010 1158 C 967 1199 913 1229 849 1249 C 785 1268 709 1278 623 1278 L 426 1278 L 426 883 L 743 883 L 743 686 L 426 686 L 426 227 Z" unicode="Đ" />
<glyph horiz-adv-x="1251" d="M 662 1366 L 858 1366 L 858 1516 L 1110 1516 L 1110 1366 L 1260 1366 L 1260 1198 L 1110 1198 L 1110 266 C 1110 200 1112 146 1117 104 C 1121 62 1130 28 1143 0 L 883 0 C 879 8 875 18 872 30 C 869 42 867 56 865 72 C 863 86 861 102 860 118 C 858 134 858 149 858 164 C 838 139 817 116 794 94 C 770 72 745 52 717 36 C 688 19 657 6 623 -3 C 589 -13 552 -18 512 -18 C 450 -18 392 -6 340 15 C 287 37 242 72 204 118 C 166 164 136 221 114 291 C 92 361 82 443 82 537 C 82 631 92 713 114 785 C 136 856 166 916 205 964 C 243 1011 289 1047 342 1071 C 395 1095 453 1108 516 1108 C 590 1108 656 1093 713 1063 C 769 1033 818 993 858 942 L 858 1198 L 662 1198 L 662 1366 Z M 594 176 C 646 176 693 188 736 214 C 779 240 820 273 858 313 L 858 768 C 814 811 771 844 730 866 C 688 888 642 899 590 899 C 551 899 516 891 485 877 C 453 862 427 840 405 810 C 382 780 364 742 352 697 C 340 652 334 599 334 539 C 334 481 340 430 352 385 C 364 340 381 302 404 272 C 426 240 453 216 485 200 C 517 184 553 176 594 176 Z" unicode="đ" />
<glyph horiz-adv-x="1272" d="M 172 0 L 172 1516 L 1151 1516 L 1151 1278 L 428 1278 L 428 901 L 958 901 L 958 674 L 428 674 L 428 233 L 1192 233 L 1192 0 L 172 0 Z M 356 1785 L 994 1785 L 994 1599 L 356 1599 L 356 1785 Z" unicode="Ē" />
<glyph horiz-adv-x="1155" d="M 604 -23 C 536 -23 470 -12 407 9 C 344 30 288 64 240 110 C 191 156 152 214 123 286 C 94 357 80 443 80 543 C 80 611 87 673 102 728 C 117 782 138 831 164 873 C 190 915 220 950 254 980 C 288 1010 325 1034 364 1054 C 402 1072 441 1086 481 1095 C 521 1103 560 1108 598 1108 C 638 1108 678 1103 718 1095 C 757 1086 794 1072 830 1054 C 865 1035 898 1010 928 980 C 958 950 984 913 1006 870 C 1027 826 1044 775 1056 717 C 1068 659 1075 594 1075 520 L 1075 461 L 332 461 C 334 411 343 369 359 333 C 375 297 396 268 422 246 C 447 222 477 205 511 194 C 545 183 583 178 623 178 C 658 178 690 180 718 186 C 746 192 773 200 798 212 C 822 222 844 235 865 251 C 886 267 907 285 928 305 L 1061 174 C 1004 111 938 62 863 28 C 788 -5 702 -23 604 -23 Z M 844 649 C 836 732 812 795 772 838 C 731 881 672 903 596 903 C 565 903 535 898 507 889 C 478 880 452 866 429 846 C 405 825 385 798 369 766 C 353 734 342 695 336 649 L 844 649 Z M 256 1382 L 894 1382 L 894 1196 L 256 1196 L 256 1382 Z" unicode="ē" />
<glyph horiz-adv-x="1272" d="M 172 0 L 172 1516 L 1151 1516 L 1151 1278 L 428 1278 L 428 901 L 958 901 L 958 674 L 428 674 L 428 233 L 1192 233 L 1192 0 L 172 0 Z M 645 1587 C 592 1587 545 1596 504 1614 C 463 1632 428 1657 400 1689 C 371 1721 349 1759 333 1803 C 317 1847 307 1896 305 1949 L 446 1949 C 450 1911 459 1879 471 1854 C 483 1829 499 1809 517 1795 C 534 1780 554 1770 576 1764 C 598 1758 621 1755 645 1755 C 669 1755 692 1758 714 1764 C 736 1770 756 1780 774 1795 C 792 1809 807 1829 820 1854 C 832 1879 841 1911 846 1949 L 985 1949 C 982 1896 973 1847 957 1803 C 941 1759 918 1721 890 1689 C 861 1657 826 1632 785 1614 C 744 1596 697 1587 645 1587 Z" unicode="Ĕ" />
<glyph horiz-adv-x="1155" d="M 604 -23 C 536 -23 470 -12 407 9 C 344 30 288 64 240 110 C 191 156 152 214 123 286 C 94 357 80 443 80 543 C 80 611 87 673 102 728 C 117 782 138 831 164 873 C 190 915 220 950 254 980 C 288 1010 325 1034 364 1054 C 402 1072 441 1086 481 1095 C 521 1103 560 1108 598 1108 C 638 1108 678 1103 718 1095 C 757 1086 794 1072 830 1054 C 865 1035 898 1010 928 980 C 958 950 984 913 1006 870 C 1027 826 1044 775 1056 717 C 1068 659 1075 594 1075 520 L 1075 461 L 332 461 C 334 411 343 369 359 333 C 375 297 396 268 422 246 C 447 222 477 205 511 194 C 545 183 583 178 623 178 C 658 178 690 180 718 186 C 746 192 773 200 798 212 C 822 222 844 235 865 251 C 886 267 907 285 928 305 L 1061 174 C 1004 111 938 62 863 28 C 788 -5 702 -23 604 -23 Z M 844 649 C 836 732 812 795 772 838 C 731 881 672 903 596 903 C 565 903 535 898 507 889 C 478 880 452 866 429 846 C 405 825 385 798 369 766 C 353 734 342 695 336 649 L 844 649 Z M 585 1186 C 532 1186 485 1195 444 1213 C 403 1231 368 1256 340 1288 C 311 1320 289 1358 273 1402 C 257 1446 247 1495 245 1548 L 386 1548 C 390 1510 399 1478 411 1453 C 423 1428 439 1408 457 1394 C 474 1379 494 1369 516 1363 C 538 1357 561 1354 585 1354 C 609 1354 632 1357 654 1363 C 676 1369 696 1379 714 1394 C 732 1408 747 1428 760 1453 C 772 1478 781 1510 786 1548 L 925 1548 C 922 1495 913 1446 897 1402 C 881 1358 858 1320 830 1288 C 801 1256 766 1231 725 1213 C 684 1195 637 1186 585 1186 Z" unicode="ĕ" />
<glyph horiz-adv-x="1272" d="M 172 0 L 172 1516 L 1151 1516 L 1151 1278 L 428 1278 L 428 901 L 958 901 L 958 674 L 428 674 L 428 233 L 1192 233 L 1192 0 L 172 0 Z M 540 1849 L 810 1849 L 810 1622 L 540 1622 L 540 1849 Z" unicode="Ė" />
<glyph horiz-adv-x="1155" d="M 604 -23 C 536 -23 470 -12 407 9 C 344 30 288 64 240 110 C 191 156 152 214 123 286 C 94 357 80 443 80 543 C 80 611 87 673 102 728 C 117 782 138 831 164 873 C 190 915 220 950 254 980 C 288 1010 325 1034 364 1054 C 402 1072 441 1086 481 1095 C 521 1103 560 1108 598 1108 C 638 1108 678 1103 718 1095 C 757 1086 794 1072 830 1054 C 865 1035 898 1010 928 980 C 958 950 984 913 1006 870 C 1027 826 1044 775 1056 717 C 1068 659 1075 594 1075 520 L 1075 461 L 332 461 C 334 411 343 369 359 333 C 375 297 396 268 422 246 C 447 222 477 205 511 194 C 545 183 583 178 623 178 C 658 178 690 180 718 186 C 746 192 773 200 798 212 C 822 222 844 235 865 251 C 886 267 907 285 928 305 L 1061 174 C 1004 111 938 62 863 28 C 788 -5 702 -23 604 -23 Z M 844 649 C 836 732 812 795 772 838 C 731 881 672 903 596 903 C 565 903 535 898 507 889 C 478 880 452 866 429 846 C 405 825 385 798 369 766 C 353 734 342 695 336 649 L 844 649 Z M 440 1446 L 710 1446 L 710 1219 L 440 1219 L 440 1446 Z" unicode="ė" />
<glyph horiz-adv-x="1272" d="M 937 -383 C 868 -383 815 -369 779 -341 C 742 -313 724 -275 724 -225 C 724 -203 728 -182 738 -160 C 748 -138 761 -117 778 -97 C 794 -76 814 -56 836 -38 C 858 -19 883 -2 909 14 L 1050 14 C 1000 -20 963 -53 939 -87 C 915 -120 903 -153 903 -186 C 903 -198 904 -209 907 -219 C 910 -229 916 -239 924 -247 C 931 -254 941 -260 953 -265 C 965 -269 981 -272 1001 -272 C 1039 -272 1072 -267 1100 -257 C 1128 -247 1155 -235 1181 -223 L 1232 -303 C 1190 -327 1144 -347 1096 -361 C 1048 -375 995 -383 937 -383 Z M 172 0 L 172 1516 L 1151 1516 L 1151 1278 L 428 1278 L 428 901 L 958 901 L 958 674 L 428 674 L 428 233 L 1192 233 L 1192 0 L 172 0 Z" unicode="Ę" />
<glyph horiz-adv-x="1155" d="M 646 -383 C 577 -383 524 -369 488 -341 C 451 -313 433 -275 433 -225 C 433 -203 437 -182 447 -160 C 457 -138 470 -117 487 -97 C 503 -76 523 -56 545 -38 C 567 -19 592 -2 618 14 L 759 14 C 709 -20 672 -53 648 -87 C 624 -120 612 -153 612 -186 C 612 -198 613 -209 616 -219 C 619 -229 625 -239 633 -247 C 640 -254 650 -260 662 -265 C 674 -269 690 -272 710 -272 C 748 -272 781 -267 809 -257 C 837 -247 864 -235 890 -223 L 941 -303 C 899 -327 853 -347 805 -361 C 757 -375 704 -383 646 -383 Z M 604 -23 C 536 -23 470 -12 407 9 C 344 30 288 64 240 110 C 191 156 152 214 123 286 C 94 357 80 443 80 543 C 80 611 87 673 102 728 C 117 782 138 831 164 873 C 190 915 220 950 254 980 C 288 1010 325 1034 364 1054 C 402 1072 441 1086 481 1095 C 521 1103 560 1108 598 1108 C 638 1108 678 1103 718 1095 C 757 1086 794 1072 830 1054 C 865 1035 898 1010 928 980 C 958 950 984 913 1006 870 C 1027 826 1044 775 1056 717 C 1068 659 1075 594 1075 520 L 1075 461 L 332 461 C 334 411 343 369 359 333 C 375 297 396 268 422 246 C 447 222 477 205 511 194 C 545 183 583 178 623 178 C 658 178 690 180 718 186 C 746 192 773 200 798 212 C 822 222 844 235 865 251 C 886 267 907 285 928 305 L 1061 174 C 1004 111 938 62 863 28 C 788 -5 702 -23 604 -23 Z M 844 649 C 836 732 812 795 772 838 C 731 881 672 903 596 903 C 565 903 535 898 507 889 C 478 880 452 866 429 846 C 405 825 385 798 369 766 C 353 734 342 695 336 649 L 844 649 Z" unicode="ę" />
<glyph horiz-adv-x="1272" d="M 323 1951 L 470 1951 L 675 1779 L 880 1951 L 1025 1951 L 761 1611 L 587 1611 L 323 1951 Z M 172 0 L 172 1516 L 1151 1516 L 1151 1278 L 428 1278 L 428 901 L 958 901 L 958 674 L 428 674 L 428 233 L 1192 233 L 1192 0 L 172 0 Z" unicode="Ě" />
<glyph horiz-adv-x="1155" d="M 225 1548 L 372 1548 L 577 1376 L 782 1548 L 927 1548 L 663 1208 L 489 1208 L 225 1548 Z M 604 -23 C 536 -23 470 -12 407 9 C 344 30 288 64 240 110 C 191 156 152 214 123 286 C 94 357 80 443 80 543 C 80 611 87 673 102 728 C 117 782 138 831 164 873 C 190 915 220 950 254 980 C 288 1010 325 1034 364 1054 C 402 1072 441 1086 481 1095 C 521 1103 560 1108 598 1108 C 638 1108 678 1103 718 1095 C 757 1086 794 1072 830 1054 C 865 1035 898 1010 928 980 C 958 950 984 913 1006 870 C 1027 826 1044 775 1056 717 C 1068 659 1075 594 1075 520 L 1075 461 L 332 461 C 334 411 343 369 359 333 C 375 297 396 268 422 246 C 447 222 477 205 511 194 C 545 183 583 178 623 178 C 658 178 690 180 718 186 C 746 192 773 200 798 212 C 822 222 844 235 865 251 C 886 267 907 285 928 305 L 1061 174 C 1004 111 938 62 863 28 C 788 -5 702 -23 604 -23 Z M 844 649 C 836 732 812 795 772 838 C 731 881 672 903 596 903 C 565 903 535 898 507 889 C 478 880 452 866 429 846 C 405 825 385 798 369 766 C 353 734 342 695 336 649 L 844 649 Z" unicode="ě" />
<glyph horiz-adv-x="1526" d="M 678 1945 L 852 1945 L 1116 1605 L 969 1605 L 764 1777 L 559 1605 L 414 1605 L 678 1945 Z M 745 -29 C 636 -29 541 -9 460 30 C 379 69 312 124 259 194 C 205 264 164 347 138 444 C 111 541 98 648 98 764 C 98 885 113 994 145 1090 C 177 1186 222 1268 281 1336 C 339 1403 409 1454 491 1490 C 573 1526 664 1544 766 1544 C 838 1544 904 1535 966 1518 C 1028 1500 1084 1473 1134 1435 C 1184 1396 1227 1346 1264 1286 C 1301 1226 1331 1153 1354 1067 L 1116 1004 C 1099 1060 1080 1108 1058 1147 C 1036 1185 1011 1217 983 1241 C 954 1264 921 1281 885 1291 C 849 1301 808 1307 764 1307 C 734 1307 703 1303 671 1297 C 639 1290 609 1279 579 1263 C 548 1246 519 1224 492 1198 C 465 1171 442 1138 422 1099 C 401 1059 385 1011 373 957 C 361 903 356 840 356 770 C 356 664 367 574 391 502 C 414 429 445 371 485 327 C 523 282 568 250 618 230 C 668 210 720 201 774 201 C 824 201 869 208 911 223 C 953 237 989 259 1020 288 C 1050 316 1075 352 1094 395 C 1112 437 1124 487 1128 543 L 823 543 L 823 750 L 1374 750 L 1374 0 L 1163 0 L 1163 219 L 1159 219 C 1147 191 1129 163 1107 134 C 1084 105 1056 79 1022 55 C 988 30 948 10 902 -5 C 856 -21 803 -29 745 -29 Z" unicode="Ĝ" />
<glyph horiz-adv-x="1219" d="M 473 1542 L 647 1542 L 911 1202 L 764 1202 L 559 1374 L 354 1202 L 209 1202 L 473 1542 Z M 551 -422 C 457 -422 376 -415 310 -402 C 244 -389 190 -371 148 -348 C 106 -324 75 -296 56 -264 C 36 -231 27 -195 27 -156 C 27 -101 42 -54 74 -16 C 105 22 149 52 205 74 C 177 88 156 107 142 129 C 128 151 121 177 121 207 C 121 227 124 247 132 266 C 140 284 150 302 164 319 C 177 335 192 350 210 365 C 228 379 247 393 268 406 C 212 440 170 484 140 538 C 110 592 96 652 96 719 C 96 775 106 826 127 874 C 148 921 178 962 218 997 C 257 1031 305 1058 361 1078 C 417 1098 481 1108 553 1108 C 627 1108 692 1097 748 1075 C 803 1053 849 1026 887 993 C 904 1007 923 1020 945 1032 C 967 1044 990 1055 1014 1065 C 1038 1074 1062 1082 1086 1088 C 1110 1094 1134 1098 1157 1100 L 1157 895 C 1132 895 1103 893 1070 889 C 1037 885 1003 877 967 866 C 979 846 988 824 995 799 C 1002 774 1006 747 1006 719 C 1006 662 995 610 975 563 C 954 515 924 475 886 441 C 846 406 799 379 743 360 C 687 341 623 332 553 332 C 537 332 523 332 511 333 C 498 334 486 336 475 338 C 463 340 451 342 439 345 C 427 347 414 350 401 354 C 385 344 371 334 361 323 C 351 311 346 299 346 285 C 346 263 354 248 372 239 C 390 229 423 223 471 219 L 664 207 C 744 201 812 192 869 178 C 925 164 972 146 1008 122 C 1044 98 1070 68 1087 33 C 1103 -1 1112 -42 1112 -90 C 1112 -146 1098 -194 1071 -236 C 1044 -277 1006 -312 958 -340 C 908 -367 849 -387 780 -401 C 711 -415 635 -422 551 -422 Z M 557 506 C 625 506 679 523 718 558 C 756 593 776 644 776 711 C 776 779 757 830 719 866 C 681 902 627 920 555 920 C 485 920 430 901 392 865 C 353 829 334 777 334 711 C 334 644 353 593 393 558 C 432 523 487 506 557 506 Z M 590 -240 C 636 -240 677 -237 714 -231 C 751 -225 783 -216 809 -206 C 834 -194 854 -181 868 -165 C 882 -149 889 -132 889 -113 C 889 -93 885 -77 877 -63 C 869 -49 854 -38 834 -29 C 813 -19 785 -11 749 -5 C 713 0 667 4 612 8 L 424 20 C 412 20 401 20 391 22 C 380 23 369 25 358 27 C 322 10 296 -10 281 -34 C 265 -58 258 -85 258 -113 C 258 -161 285 -194 340 -212 C 395 -230 478 -240 590 -240 Z" unicode="ĝ" />
<glyph horiz-adv-x="1526" d="M 745 -29 C 636 -29 541 -9 460 30 C 379 69 312 124 259 194 C 205 264 164 347 138 444 C 111 541 98 648 98 764 C 98 885 113 994 145 1090 C 177 1186 222 1268 281 1336 C 339 1403 409 1454 491 1490 C 573 1526 664 1544 766 1544 C 838 1544 904 1535 966 1518 C 1028 1500 1084 1473 1134 1435 C 1184 1396 1227 1346 1264 1286 C 1301 1226 1331 1153 1354 1067 L 1116 1004 C 1099 1060 1080 1108 1058 1147 C 1036 1185 1011 1217 983 1241 C 954 1264 921 1281 885 1291 C 849 1301 808 1307 764 1307 C 734 1307 703 1303 671 1297 C 639 1290 609 1279 579 1263 C 548 1246 519 1224 492 1198 C 465 1171 442 1138 422 1099 C 401 1059 385 1011 373 957 C 361 903 356 840 356 770 C 356 664 367 574 391 502 C 414 429 445 371 485 327 C 523 282 568 250 618 230 C 668 210 720 201 774 201 C 824 201 869 208 911 223 C 953 237 989 259 1020 288 C 1050 316 1075 352 1094 395 C 1112 437 1124 487 1128 543 L 823 543 L 823 750 L 1374 750 L 1374 0 L 1163 0 L 1163 219 L 1159 219 C 1147 191 1129 163 1107 134 C 1084 105 1056 79 1022 55 C 988 30 948 10 902 -5 C 856 -21 803 -29 745 -29 Z M 761 1589 C 708 1589 661 1598 620 1616 C 579 1634 544 1659 516 1691 C 487 1723 465 1761 449 1805 C 433 1849 423 1898 421 1951 L 562 1951 C 566 1913 575 1881 587 1856 C 599 1831 615 1811 633 1797 C 650 1782 670 1772 692 1766 C 714 1760 737 1757 761 1757 C 785 1757 808 1760 830 1766 C 852 1772 872 1782 890 1797 C 908 1811 923 1831 936 1856 C 948 1881 957 1913 962 1951 L 1101 1951 C 1098 1898 1089 1849 1073 1805 C 1057 1761 1034 1723 1006 1691 C 977 1659 942 1634 901 1616 C 860 1598 813 1589 761 1589 Z" unicode="Ğ" />
<glyph horiz-adv-x="1219" d="M 551 -422 C 457 -422 376 -415 310 -402 C 244 -389 190 -371 148 -348 C 106 -324 75 -296 56 -264 C 36 -231 27 -195 27 -156 C 27 -101 42 -54 74 -16 C 105 22 149 52 205 74 C 177 88 156 107 142 129 C 128 151 121 177 121 207 C 121 227 124 247 132 266 C 140 284 150 302 164 319 C 177 335 192 350 210 365 C 228 379 247 393 268 406 C 212 440 170 484 140 538 C 110 592 96 652 96 719 C 96 775 106 826 127 874 C 148 921 178 962 218 997 C 257 1031 305 1058 361 1078 C 417 1098 481 1108 553 1108 C 627 1108 692 1097 748 1075 C 803 1053 849 1026 887 993 C 904 1007 923 1020 945 1032 C 967 1044 990 1055 1014 1065 C 1038 1074 1062 1082 1086 1088 C 1110 1094 1134 1098 1157 1100 L 1157 895 C 1132 895 1103 893 1070 889 C 1037 885 1003 877 967 866 C 979 846 988 824 995 799 C 1002 774 1006 747 1006 719 C 1006 662 995 610 975 563 C 954 515 924 475 886 441 C 846 406 799 379 743 360 C 687 341 623 332 553 332 C 537 332 523 332 511 333 C 498 334 486 336 475 338 C 463 340 451 342 439 345 C 427 347 414 350 401 354 C 385 344 371 334 361 323 C 351 311 346 299 346 285 C 346 263 354 248 372 239 C 390 229 423 223 471 219 L 664 207 C 744 201 812 192 869 178 C 925 164 972 146 1008 122 C 1044 98 1070 68 1087 33 C 1103 -1 1112 -42 1112 -90 C 1112 -146 1098 -194 1071 -236 C 1044 -277 1006 -312 958 -340 C 908 -367 849 -387 780 -401 C 711 -415 635 -422 551 -422 Z M 557 506 C 625 506 679 523 718 558 C 756 593 776 644 776 711 C 776 779 757 830 719 866 C 681 902 627 920 555 920 C 485 920 430 901 392 865 C 353 829 334 777 334 711 C 334 644 353 593 393 558 C 432 523 487 506 557 506 Z M 590 -240 C 636 -240 677 -237 714 -231 C 751 -225 783 -216 809 -206 C 834 -194 854 -181 868 -165 C 882 -149 889 -132 889 -113 C 889 -93 885 -77 877 -63 C 869 -49 854 -38 834 -29 C 813 -19 785 -11 749 -5 C 713 0 667 4 612 8 L 424 20 C 412 20 401 20 391 22 C 380 23 369 25 358 27 C 322 10 296 -10 281 -34 C 265 -58 258 -85 258 -113 C 258 -161 285 -194 340 -212 C 395 -230 478 -240 590 -240 Z M 575 1186 C 522 1186 475 1195 434 1213 C 393 1231 358 1256 330 1288 C 301 1320 279 1358 263 1402 C 247 1446 237 1495 235 1548 L 376 1548 C 380 1510 389 1478 401 1453 C 413 1428 429 1408 447 1394 C 464 1379 484 1369 506 1363 C 528 1357 551 1354 575 1354 C 599 1354 622 1357 644 1363 C 666 1369 686 1379 704 1394 C 722 1408 737 1428 750 1453 C 762 1478 771 1510 776 1548 L 915 1548 C 912 1495 903 1446 887 1402 C 871 1358 848 1320 820 1288 C 791 1256 756 1231 715 1213 C 674 1195 627 1186 575 1186 Z" unicode="ğ" />
<glyph horiz-adv-x="1526" d="M 745 -29 C 636 -29 541 -9 460 30 C 379 69 312 124 259 194 C 205 264 164 347 138 444 C 111 541 98 648 98 764 C 98 885 113 994 145 1090 C 177 1186 222 1268 281 1336 C 339 1403 409 1454 491 1490 C 573 1526 664 1544 766 1544 C 838 1544 904 1535 966 1518 C 1028 1500 1084 1473 1134 1435 C 1184 1396 1227 1346 1264 1286 C 1301 1226 1331 1153 1354 1067 L 1116 1004 C 1099 1060 1080 1108 1058 1147 C 1036 1185 1011 1217 983 1241 C 954 1264 921 1281 885 1291 C 849 1301 808 1307 764 1307 C 734 1307 703 1303 671 1297 C 639 1290 609 1279 579 1263 C 548 1246 519 1224 492 1198 C 465 1171 442 1138 422 1099 C 401 1059 385 1011 373 957 C 361 903 356 840 356 770 C 356 664 367 574 391 502 C 414 429 445 371 485 327 C 523 282 568 250 618 230 C 668 210 720 201 774 201 C 824 201 869 208 911 223 C 953 237 989 259 1020 288 C 1050 316 1075 352 1094 395 C 1112 437 1124 487 1128 543 L 823 543 L 823 750 L 1374 750 L 1374 0 L 1163 0 L 1163 219 L 1159 219 C 1147 191 1129 163 1107 134 C 1084 105 1056 79 1022 55 C 988 30 948 10 902 -5 C 856 -21 803 -29 745 -29 Z M 620 1849 L 890 1849 L 890 1622 L 620 1622 L 620 1849 Z" unicode="Ġ" />
<glyph horiz-adv-x="1219" d="M 551 -422 C 457 -422 376 -415 310 -402 C 244 -389 190 -371 148 -348 C 106 -324 75 -296 56 -264 C 36 -231 27 -195 27 -156 C 27 -101 42 -54 74 -16 C 105 22 149 52 205 74 C 177 88 156 107 142 129 C 128 151 121 177 121 207 C 121 227 124 247 132 266 C 140 284 150 302 164 319 C 177 335 192 350 210 365 C 228 379 247 393 268 406 C 212 440 170 484 140 538 C 110 592 96 652 96 719 C 96 775 106 826 127 874 C 148 921 178 962 218 997 C 257 1031 305 1058 361 1078 C 417 1098 481 1108 553 1108 C 627 1108 692 1097 748 1075 C 803 1053 849 1026 887 993 C 904 1007 923 1020 945 1032 C 967 1044 990 1055 1014 1065 C 1038 1074 1062 1082 1086 1088 C 1110 1094 1134 1098 1157 1100 L 1157 895 C 1132 895 1103 893 1070 889 C 1037 885 1003 877 967 866 C 979 846 988 824 995 799 C 1002 774 1006 747 1006 719 C 1006 662 995 610 975 563 C 954 515 924 475 886 441 C 846 406 799 379 743 360 C 687 341 623 332 553 332 C 537 332 523 332 511 333 C 498 334 486 336 475 338 C 463 340 451 342 439 345 C 427 347 414 350 401 354 C 385 344 371 334 361 323 C 351 311 346 299 346 285 C 346 263 354 248 372 239 C 390 229 423 223 471 219 L 664 207 C 744 201 812 192 869 178 C 925 164 972 146 1008 122 C 1044 98 1070 68 1087 33 C 1103 -1 1112 -42 1112 -90 C 1112 -146 1098 -194 1071 -236 C 1044 -277 1006 -312 958 -340 C 908 -367 849 -387 780 -401 C 711 -415 635 -422 551 -422 Z M 557 506 C 625 506 679 523 718 558 C 756 593 776 644 776 711 C 776 779 757 830 719 866 C 681 902 627 920 555 920 C 485 920 430 901 392 865 C 353 829 334 777 334 711 C 334 644 353 593 393 558 C 432 523 487 506 557 506 Z M 590 -240 C 636 -240 677 -237 714 -231 C 751 -225 783 -216 809 -206 C 834 -194 854 -181 868 -165 C 882 -149 889 -132 889 -113 C 889 -93 885 -77 877 -63 C 869 -49 854 -38 834 -29 C 813 -19 785 -11 749 -5 C 713 0 667 4 612 8 L 424 20 C 412 20 401 20 391 22 C 380 23 369 25 358 27 C 322 10 296 -10 281 -34 C 265 -58 258 -85 258 -113 C 258 -161 285 -194 340 -212 C 395 -230 478 -240 590 -240 Z M 424 1446 L 694 1446 L 694 1219 L 424 1219 L 424 1446 Z" unicode="ġ" />
<glyph horiz-adv-x="1526" d="M 737 -338 L 639 -338 L 639 -92 L 891 -92 L 891 -307 L 778 -555 L 671 -555 L 737 -338 Z M 745 -29 C 636 -29 541 -9 460 30 C 379 69 312 124 259 194 C 205 264 164 347 138 444 C 111 541 98 648 98 764 C 98 885 113 994 145 1090 C 177 1186 222 1268 281 1336 C 339 1403 409 1454 491 1490 C 573 1526 664 1544 766 1544 C 838 1544 904 1535 966 1518 C 1028 1500 1084 1473 1134 1435 C 1184 1396 1227 1346 1264 1286 C 1301 1226 1331 1153 1354 1067 L 1116 1004 C 1099 1060 1080 1108 1058 1147 C 1036 1185 1011 1217 983 1241 C 954 1264 921 1281 885 1291 C 849 1301 808 1307 764 1307 C 734 1307 703 1303 671 1297 C 639 1290 609 1279 579 1263 C 548 1246 519 1224 492 1198 C 465 1171 442 1138 422 1099 C 401 1059 385 1011 373 957 C 361 903 356 840 356 770 C 356 664 367 574 391 502 C 414 429 445 371 485 327 C 523 282 568 250 618 230 C 668 210 720 201 774 201 C 824 201 869 208 911 223 C 953 237 989 259 1020 288 C 1050 316 1075 352 1094 395 C 1112 437 1124 487 1128 543 L 823 543 L 823 750 L 1374 750 L 1374 0 L 1163 0 L 1163 219 L 1159 219 C 1147 191 1129 163 1107 134 C 1084 105 1056 79 1022 55 C 988 30 948 10 902 -5 C 856 -21 803 -29 745 -29 Z" unicode="Ģ" />
<glyph horiz-adv-x="1219" d="M 450 1411 L 560 1659 L 667 1659 L 601 1442 L 702 1442 L 702 1196 L 450 1196 L 450 1411 Z M 551 -422 C 457 -422 376 -415 310 -402 C 244 -389 190 -371 148 -348 C 106 -324 75 -296 56 -264 C 36 -231 27 -195 27 -156 C 27 -101 42 -54 74 -16 C 105 22 149 52 205 74 C 177 88 156 107 142 129 C 128 151 121 177 121 207 C 121 227 124 247 132 266 C 140 284 150 302 164 319 C 177 335 192 350 210 365 C 228 379 247 393 268 406 C 212 440 170 484 140 538 C 110 592 96 652 96 719 C 96 775 106 826 127 874 C 148 921 178 962 218 997 C 257 1031 305 1058 361 1078 C 417 1098 481 1108 553 1108 C 627 1108 692 1097 748 1075 C 803 1053 849 1026 887 993 C 904 1007 923 1020 945 1032 C 967 1044 990 1055 1014 1065 C 1038 1074 1062 1082 1086 1088 C 1110 1094 1134 1098 1157 1100 L 1157 895 C 1132 895 1103 893 1070 889 C 1037 885 1003 877 967 866 C 979 846 988 824 995 799 C 1002 774 1006 747 1006 719 C 1006 662 995 610 975 563 C 954 515 924 475 886 441 C 846 406 799 379 743 360 C 687 341 623 332 553 332 C 537 332 523 332 511 333 C 498 334 486 336 475 338 C 463 340 451 342 439 345 C 427 347 414 350 401 354 C 385 344 371 334 361 323 C 351 311 346 299 346 285 C 346 263 354 248 372 239 C 390 229 423 223 471 219 L 664 207 C 744 201 812 192 869 178 C 925 164 972 146 1008 122 C 1044 98 1070 68 1087 33 C 1103 -1 1112 -42 1112 -90 C 1112 -146 1098 -194 1071 -236 C 1044 -277 1006 -312 958 -340 C 908 -367 849 -387 780 -401 C 711 -415 635 -422 551 -422 Z M 557 506 C 625 506 679 523 718 558 C 756 593 776 644 776 711 C 776 779 757 830 719 866 C 681 902 627 920 555 920 C 485 920 430 901 392 865 C 353 829 334 777 334 711 C 334 644 353 593 393 558 C 432 523 487 506 557 506 Z M 590 -240 C 636 -240 677 -237 714 -231 C 751 -225 783 -216 809 -206 C 834 -194 854 -181 868 -165 C 882 -149 889 -132 889 -113 C 889 -93 885 -77 877 -63 C 869 -49 854 -38 834 -29 C 813 -19 785 -11 749 -5 C 713 0 667 4 612 8 L 424 20 C 412 20 401 20 391 22 C 380 23 369 25 358 27 C 322 10 296 -10 281 -34 C 265 -58 258 -85 258 -113 C 258 -161 285 -194 340 -212 C 395 -230 478 -240 590 -240 Z" unicode="ģ" />
<glyph horiz-adv-x="1544" d="M 684 1945 L 858 1945 L 1122 1605 L 975 1605 L 770 1777 L 565 1605 L 420 1605 L 684 1945 Z M 172 0 L 172 1516 L 428 1516 L 428 911 L 1116 911 L 1116 1516 L 1372 1516 L 1372 0 L 1116 0 L 1116 674 L 428 674 L 428 0 L 172 0 Z" unicode="Ĥ" />
<glyph horiz-adv-x="1235" d="M 179 1945 L 353 1945 L 617 1605 L 470 1605 L 265 1777 L 60 1605 L -85 1605 L 179 1945 Z M 141 0 L 141 1516 L 395 1516 L 395 940 C 412 958 433 977 459 997 C 484 1017 513 1035 547 1052 C 579 1068 616 1081 657 1092 C 698 1102 743 1108 793 1108 C 840 1108 883 1101 922 1087 C 960 1073 993 1052 1021 1025 C 1048 997 1069 962 1084 922 C 1098 881 1106 834 1106 780 L 1106 0 L 852 0 L 852 717 C 852 777 839 822 813 850 C 787 878 746 893 690 893 C 634 893 583 880 535 854 C 487 828 441 794 395 752 L 395 0 L 141 0 Z" unicode="ĥ" />
<glyph horiz-adv-x="1544" d="M 23 1290 L 172 1290 L 172 1516 L 428 1516 L 428 1290 L 1116 1290 L 1116 1516 L 1372 1516 L 1372 1290 L 1522 1290 L 1522 1094 L 1372 1094 L 1372 0 L 1116 0 L 1116 674 L 428 674 L 428 0 L 172 0 L 172 1094 L 23 1094 L 23 1290 Z M 1116 911 L 1116 1094 L 428 1094 L 428 911 L 1116 911 Z" unicode="Ħ" />
<glyph horiz-adv-x="1235" d="M -8 1366 L 141 1366 L 141 1516 L 395 1516 L 395 1366 L 590 1366 L 590 1198 L 395 1198 L 395 940 C 412 958 433 977 459 997 C 484 1017 513 1035 547 1052 C 579 1068 616 1081 657 1092 C 698 1102 743 1108 793 1108 C 840 1108 883 1101 922 1087 C 960 1073 993 1052 1021 1025 C 1048 997 1069 962 1084 922 C 1098 881 1106 834 1106 780 L 1106 0 L 852 0 L 852 717 C 852 777 839 822 813 850 C 787 878 746 893 690 893 C 634 893 583 880 535 854 C 487 828 441 794 395 752 L 395 0 L 141 0 L 141 1198 L -8 1198 L -8 1366 Z" unicode="ħ" />
<glyph horiz-adv-x="635" d="M 188 0 L 188 1516 L 446 1516 L 446 0 L 188 0 Z M 474 1591 C 440 1591 409 1597 382 1609 C 355 1621 330 1634 307 1649 C 283 1663 261 1676 240 1688 C 219 1700 198 1706 177 1706 C 148 1706 127 1697 113 1680 C 99 1663 93 1635 93 1595 L -48 1595 C -48 1645 -43 1688 -33 1724 C -23 1760 -9 1789 9 1813 C 27 1835 49 1852 75 1863 C 101 1874 131 1880 165 1880 C 199 1880 229 1874 256 1862 C 283 1850 308 1837 332 1823 C 355 1808 377 1795 399 1783 C 420 1771 442 1765 464 1765 C 492 1765 513 1773 527 1790 C 541 1807 548 1836 548 1876 L 689 1876 C 689 1776 669 1704 631 1659 C 593 1613 540 1591 474 1591 Z" unicode="Ĩ" />
<glyph horiz-adv-x="557" d="M 152 0 L 152 1087 L 406 1087 L 406 0 L 152 0 Z M 435 1188 C 401 1188 370 1194 343 1206 C 316 1218 291 1231 268 1246 C 244 1260 222 1273 201 1285 C 180 1297 159 1303 138 1303 C 109 1303 88 1294 74 1277 C 60 1260 54 1232 54 1192 L -87 1192 C -87 1242 -82 1285 -72 1321 C -62 1357 -48 1386 -30 1410 C -12 1432 10 1449 36 1460 C 62 1471 92 1477 126 1477 C 160 1477 190 1471 217 1459 C 244 1447 269 1434 293 1420 C 316 1405 338 1392 360 1380 C 381 1368 403 1362 425 1362 C 453 1362 474 1370 488 1387 C 502 1404 509 1433 509 1473 L 650 1473 C 650 1373 630 1301 592 1256 C 554 1210 501 1188 435 1188 Z" unicode="ĩ" />
<glyph horiz-adv-x="635" d="M 188 0 L 188 1516 L 446 1516 L 446 0 L 188 0 Z M -1 1785 L 637 1785 L 637 1599 L -1 1599 L -1 1785 Z" unicode="Ī" />
<glyph horiz-adv-x="557" d="M 152 0 L 152 1087 L 406 1087 L 406 0 L 152 0 Z M -40 1382 L 598 1382 L 598 1196 L -40 1196 L -40 1382 Z" unicode="ī" />
<glyph horiz-adv-x="635" d="M 188 0 L 188 1516 L 446 1516 L 446 0 L 188 0 Z M 318 1587 C 265 1587 218 1596 177 1614 C 136 1632 101 1657 73 1689 C 44 1721 22 1759 6 1803 C -10 1847 -19 1896 -22 1949 L 119 1949 C 123 1911 132 1879 144 1854 C 156 1829 172 1809 190 1795 C 207 1780 227 1770 249 1764 C 271 1758 294 1755 318 1755 C 342 1755 365 1758 387 1764 C 409 1770 429 1780 447 1795 C 465 1809 480 1829 493 1854 C 505 1879 514 1911 519 1949 L 658 1949 C 655 1896 646 1847 630 1803 C 614 1759 591 1721 563 1689 C 534 1657 499 1632 458 1614 C 417 1596 370 1587 318 1587 Z" unicode="Ĭ" />
<glyph horiz-adv-x="557" d="M 152 0 L 152 1087 L 406 1087 L 406 0 L 152 0 Z M 279 1186 C 226 1186 179 1195 138 1213 C 97 1231 62 1256 34 1288 C 5 1320 -17 1358 -33 1402 C -49 1446 -58 1495 -61 1548 L 80 1548 C 84 1510 93 1478 105 1453 C 117 1428 133 1408 151 1394 C 168 1379 188 1369 210 1363 C 232 1357 255 1354 279 1354 C 303 1354 326 1357 348 1363 C 370 1369 390 1379 408 1394 C 426 1408 441 1428 454 1453 C 466 1478 475 1510 480 1548 L 619 1548 C 616 1495 607 1446 591 1402 C 575 1358 552 1320 524 1288 C 495 1256 460 1231 419 1213 C 378 1195 331 1186 279 1186 Z" unicode="ĭ" />
<glyph horiz-adv-x="635" d="M 188 0 L 188 1516 L 446 1516 L 446 0 L 188 0 Z M 233 -383 C 164 -383 111 -369 75 -341 C 38 -313 20 -275 20 -225 C 20 -203 24 -182 34 -160 C 44 -138 57 -117 74 -97 C 90 -76 110 -56 132 -38 C 154 -19 179 -2 205 14 L 346 14 C 296 -20 259 -53 235 -87 C 211 -120 199 -153 199 -186 C 199 -198 200 -209 203 -219 C 206 -229 212 -239 220 -247 C 227 -254 237 -260 249 -265 C 261 -269 277 -272 297 -272 C 335 -272 368 -267 396 -257 C 424 -247 451 -235 477 -223 L 528 -303 C 486 -327 440 -347 392 -361 C 344 -375 291 -383 233 -383 Z" unicode="Į" />
<glyph horiz-adv-x="557" d="M 152 0 L 152 1087 L 406 1087 L 406 0 L 152 0 Z M 150 1276 L 150 1495 L 408 1495 L 408 1276 L 150 1276 Z M 197 -383 C 128 -383 75 -369 39 -341 C 2 -313 -16 -275 -16 -225 C -16 -203 -11 -182 -1 -160 C 8 -138 21 -117 38 -97 C 54 -76 74 -56 96 -38 C 118 -19 143 -2 169 14 L 310 14 C 260 -20 223 -53 199 -87 C 175 -120 163 -153 163 -186 C 163 -198 164 -209 167 -219 C 170 -229 176 -239 184 -247 C 191 -254 201 -260 213 -265 C 225 -269 241 -272 261 -272 C 299 -272 332 -267 360 -257 C 388 -247 415 -235 441 -223 L 492 -303 C 450 -327 404 -347 356 -361 C 308 -375 255 -383 197 -383 Z" unicode="į" />
<glyph horiz-adv-x="635" d="M 188 0 L 188 1516 L 446 1516 L 446 0 L 188 0 Z M 183 1849 L 453 1849 L 453 1622 L 183 1622 L 183 1849 Z" unicode="İ" />
<glyph horiz-adv-x="557" d="M 152 0 L 152 1087 L 406 1087 L 406 0 L 152 0 Z" unicode="ı" />
<glyph horiz-adv-x="1618" d="M 188 0 L 188 1516 L 446 1516 L 446 0 L 188 0 Z M 1001 -23 C 909 -23 830 -7 764 23 C 698 54 639 97 589 151 L 749 309 C 762 295 777 282 794 269 C 810 256 829 245 849 235 C 868 225 889 216 912 210 C 934 204 958 201 984 201 C 1019 201 1051 205 1079 213 C 1107 221 1131 235 1151 255 C 1170 275 1185 301 1195 335 C 1205 368 1211 410 1211 461 L 1211 1522 L 1467 1522 L 1467 426 C 1467 355 1456 292 1436 236 C 1415 180 1385 134 1345 96 C 1305 57 1256 27 1198 7 C 1140 -12 1075 -23 1001 -23 Z" unicode="Ĳ" />
<glyph horiz-adv-x="1114" d="M 152 0 L 152 1087 L 406 1087 L 406 0 L 152 0 Z M 150 1276 L 150 1495 L 408 1495 L 408 1276 L 150 1276 Z M 659 -408 C 647 -408 633 -407 617 -406 C 601 -405 586 -404 571 -403 C 555 -401 542 -400 530 -399 C 518 -397 510 -396 506 -395 L 506 -219 C 515 -221 527 -222 543 -224 C 558 -226 573 -227 588 -227 C 628 -227 658 -216 678 -196 C 698 -175 709 -140 709 -90 L 709 1093 L 963 1093 L 963 -129 C 963 -166 959 -202 951 -236 C 943 -270 928 -299 906 -325 C 883 -350 852 -370 812 -385 C 772 -400 721 -408 659 -408 Z M 707 1282 L 707 1501 L 965 1501 L 965 1282 L 707 1282 Z" unicode="ĳ" />
<glyph horiz-adv-x="1065" d="M 698 1945 L 872 1945 L 1136 1605 L 989 1605 L 784 1777 L 579 1605 L 434 1605 L 698 1945 Z M 449 -29 C 357 -29 278 -13 212 17 C 146 48 87 91 37 145 L 197 303 C 210 289 225 276 242 263 C 258 250 277 239 297 229 C 316 219 337 210 360 204 C 382 198 406 195 432 195 C 467 195 499 199 527 207 C 555 215 579 229 599 249 C 618 269 633 295 643 329 C 653 362 659 404 659 455 L 659 1516 L 915 1516 L 915 420 C 915 349 904 286 884 230 C 863 174 833 128 793 90 C 753 51 704 21 646 1 C 588 -18 523 -29 449 -29 Z" unicode="Ĵ" />
<glyph horiz-adv-x="557" d="M 102 -414 C 90 -414 77 -413 61 -413 C 45 -412 30 -411 15 -411 C 0 -409 -14 -408 -26 -407 C -38 -405 -47 -404 -51 -403 L -51 -225 C -41 -228 -29 -231 -13 -233 C 3 -235 18 -236 33 -236 C 72 -236 102 -225 123 -203 C 143 -181 154 -146 154 -98 L 154 1087 L 406 1087 L 406 -137 C 406 -174 402 -209 394 -243 C 386 -277 371 -306 349 -332 C 326 -357 295 -377 255 -392 C 215 -406 164 -414 102 -414 Z M 193 1542 L 367 1542 L 631 1202 L 484 1202 L 279 1374 L 74 1202 L -71 1202 L 193 1542 Z" unicode="ĵ" />
<glyph horiz-adv-x="1430" d="M 688 -338 L 590 -338 L 590 -92 L 842 -92 L 842 -307 L 729 -555 L 622 -555 L 688 -338 Z M 172 0 L 172 1516 L 428 1516 L 428 811 L 1024 1516 L 1327 1516 L 811 932 L 1391 0 L 1098 0 L 643 735 L 428 498 L 428 0 L 172 0 Z" unicode="Ķ" />
<glyph horiz-adv-x="1153" d="M 548 -338 L 450 -338 L 450 -92 L 702 -92 L 702 -307 L 589 -555 L 482 -555 L 548 -338 Z M 141 0 L 141 1516 L 393 1516 L 393 612 L 805 1087 L 1081 1087 L 727 690 L 1112 0 L 848 0 L 567 504 L 393 313 L 393 0 L 141 0 Z" unicode="ķ" />
<glyph horiz-adv-x="1153" d="M 141 1087 L 393 1087 L 393 612 L 805 1087 L 1081 1087 L 727 690 L 1112 0 L 848 0 L 567 506 L 393 313 L 393 0 L 141 0 L 141 1087 Z" unicode="ĸ" />
<glyph horiz-adv-x="1184" d="M 410 1945 L 680 1945 L 383 1605 L 218 1605 L 410 1945 Z M 172 0 L 172 1516 L 428 1516 L 428 233 L 1126 233 L 1126 0 L 172 0 Z" unicode="Ĺ" />
<glyph horiz-adv-x="557" d="M 383 1945 L 653 1945 L 356 1605 L 191 1605 L 383 1945 Z M 152 0 L 152 1516 L 406 1516 L 406 0 L 152 0 Z" unicode="ĺ" />
<glyph horiz-adv-x="1184" d="M 565 -338 L 467 -338 L 467 -92 L 719 -92 L 719 -307 L 606 -555 L 499 -555 L 565 -338 Z M 172 0 L 172 1516 L 428 1516 L 428 233 L 1126 233 L 1126 0 L 172 0 Z" unicode="Ļ" />
<glyph horiz-adv-x="557" d="M 254 -338 L 156 -338 L 156 -92 L 408 -92 L 408 -307 L 295 -555 L 188 -555 L 254 -338 Z M 152 0 L 152 1516 L 406 1516 L 406 0 L 152 0 Z" unicode="ļ" />
<glyph horiz-adv-x="1184" d="M 737 1269 L 639 1269 L 639 1515 L 891 1515 L 891 1300 L 778 1052 L 671 1052 L 737 1269 Z M 172 0 L 172 1516 L 428 1516 L 428 233 L 1126 233 L 1126 0 L 172 0 Z" unicode="Ľ" />
<glyph horiz-adv-x="557" d="M 594 1403 L 498 1403 L 498 1640 L 741 1640 L 741 1434 L 633 1192 L 530 1192 L 594 1403 Z M 152 0 L 152 1516 L 406 1516 L 406 0 L 152 0 Z" unicode="ľ" />
<glyph horiz-adv-x="1235" d="M 788 946 L 1038 946 L 1038 719 L 788 719 L 788 946 Z M 172 0 L 172 1516 L 428 1516 L 428 233 L 1126 233 L 1126 0 L 172 0 Z" unicode="Ŀ" />
<glyph horiz-adv-x="811" d="M 559 791 L 809 791 L 809 565 L 559 565 L 559 791 Z M 152 0 L 152 1516 L 406 1516 L 406 0 L 152 0 Z" unicode="ŀ" />
<glyph horiz-adv-x="1184" d="M 172 0 L 172 680 L 2 635 L 2 831 L 172 877 L 172 1516 L 430 1516 L 430 944 L 733 1026 L 733 829 L 430 748 L 430 233 L 1126 233 L 1126 0 L 172 0 Z" unicode="Ł" />
<glyph horiz-adv-x="657" d="M 205 850 L 45 807 L 45 995 L 205 1038 L 205 1516 L 457 1516 L 457 1106 L 616 1149 L 616 961 L 457 918 L 457 0 L 205 0 L 205 850 Z" unicode="ł" />
<glyph horiz-adv-x="1563" d="M 813 1945 L 1083 1945 L 786 1605 L 621 1605 L 813 1945 Z M 172 0 L 172 1516 L 432 1516 L 1149 434 L 1153 434 L 1153 1516 L 1391 1516 L 1391 0 L 1157 0 L 414 1104 L 410 1104 L 410 0 L 172 0 Z" unicode="Ń" />
<glyph horiz-adv-x="1235" d="M 640 1542 L 910 1542 L 613 1202 L 448 1202 L 640 1542 Z M 143 0 L 143 1087 L 395 1087 L 395 913 C 415 937 439 960 465 983 C 491 1006 520 1027 553 1046 C 585 1064 620 1079 658 1091 C 696 1102 738 1108 784 1108 C 834 1108 878 1101 918 1088 C 958 1075 992 1056 1020 1030 C 1047 1004 1068 971 1083 931 C 1098 891 1106 845 1106 791 L 1106 0 L 854 0 L 854 719 C 854 779 841 824 815 854 C 789 884 748 899 690 899 C 634 899 583 886 535 861 C 487 835 441 801 395 758 L 395 0 L 143 0 Z" unicode="ń" />
<glyph horiz-adv-x="1563" d="M 753 -338 L 655 -338 L 655 -92 L 907 -92 L 907 -307 L 794 -555 L 687 -555 L 753 -338 Z M 172 0 L 172 1516 L 432 1516 L 1149 434 L 1153 434 L 1153 1516 L 1391 1516 L 1391 0 L 1157 0 L 414 1104 L 410 1104 L 410 0 L 172 0 Z" unicode="Ņ" />
<glyph horiz-adv-x="1235" d="M 593 -338 L 495 -338 L 495 -92 L 747 -92 L 747 -307 L 634 -555 L 527 -555 L 593 -338 Z M 143 0 L 143 1087 L 395 1087 L 395 913 C 415 937 439 960 465 983 C 491 1006 520 1027 553 1046 C 585 1064 620 1079 658 1091 C 696 1102 738 1108 784 1108 C 834 1108 878 1101 918 1088 C 958 1075 992 1056 1020 1030 C 1047 1004 1068 971 1083 931 C 1098 891 1106 845 1106 791 L 1106 0 L 854 0 L 854 719 C 854 779 841 824 815 854 C 789 884 748 899 690 899 C 634 899 583 886 535 861 C 487 835 441 801 395 758 L 395 0 L 143 0 Z" unicode="ņ" />
<glyph horiz-adv-x="1563" d="M 428 1951 L 575 1951 L 780 1779 L 985 1951 L 1130 1951 L 866 1611 L 692 1611 L 428 1951 Z M 172 0 L 172 1516 L 432 1516 L 1149 434 L 1153 434 L 1153 1516 L 1391 1516 L 1391 0 L 1157 0 L 414 1104 L 410 1104 L 410 0 L 172 0 Z" unicode="Ň" />
<glyph horiz-adv-x="1235" d="M 268 1548 L 415 1548 L 620 1376 L 825 1548 L 970 1548 L 706 1208 L 532 1208 L 268 1548 Z M 143 0 L 143 1087 L 395 1087 L 395 913 C 415 937 439 960 465 983 C 491 1006 520 1027 553 1046 C 585 1064 620 1079 658 1091 C 696 1102 738 1108 784 1108 C 834 1108 878 1101 918 1088 C 958 1075 992 1056 1020 1030 C 1047 1004 1068 971 1083 931 C 1098 891 1106 845 1106 791 L 1106 0 L 854 0 L 854 719 C 854 779 841 824 815 854 C 789 884 748 899 690 899 C 634 899 583 886 535 861 C 487 835 441 801 395 758 L 395 0 L 143 0 Z" unicode="ň" />
<glyph horiz-adv-x="1563" d="M 172 1516 L 432 1516 L 1151 434 L 1155 434 L 1155 1516 L 1391 1516 L 1391 10 C 1391 -56 1381 -116 1363 -168 C 1344 -220 1316 -265 1279 -302 C 1241 -338 1195 -365 1139 -385 C 1083 -404 1017 -414 942 -414 C 889 -414 842 -409 801 -400 C 759 -390 722 -377 690 -361 C 657 -344 628 -324 602 -302 C 576 -279 552 -255 530 -229 L 676 -68 C 691 -88 707 -106 725 -123 C 743 -139 762 -154 783 -167 C 803 -179 825 -189 849 -196 C 873 -203 900 -207 928 -207 C 958 -207 985 -203 1011 -195 C 1036 -187 1058 -175 1078 -159 C 1096 -141 1112 -119 1124 -92 C 1136 -64 1143 -31 1147 8 L 1147 16 L 414 1104 L 410 1104 L 410 0 L 172 0 L 172 1516 Z" unicode="Ŋ" />
<glyph horiz-adv-x="1235" d="M 143 1087 L 395 1087 L 395 913 C 415 937 439 960 465 983 C 491 1006 520 1027 553 1046 C 585 1064 620 1079 658 1091 C 696 1102 738 1108 784 1108 C 834 1108 878 1101 918 1088 C 958 1075 992 1056 1020 1030 C 1047 1004 1068 971 1083 931 C 1098 891 1106 845 1106 791 L 1106 -137 C 1106 -174 1102 -209 1094 -243 C 1086 -277 1071 -306 1049 -332 C 1027 -357 996 -377 956 -392 C 916 -406 865 -414 803 -414 C 791 -414 778 -413 762 -413 C 746 -412 731 -411 717 -411 C 701 -409 687 -408 675 -407 C 663 -405 655 -404 651 -403 L 651 -225 C 659 -228 672 -231 688 -233 C 704 -235 719 -236 733 -236 C 771 -236 800 -225 822 -205 C 843 -185 854 -152 854 -106 L 854 719 C 854 779 841 824 815 854 C 789 884 748 899 690 899 C 634 899 583 886 535 861 C 487 835 441 801 395 758 L 395 0 L 143 0 L 143 1087 Z" unicode="ŋ" />
<glyph horiz-adv-x="1565" d="M 461 1785 L 1099 1785 L 1099 1599 L 461 1599 L 461 1785 Z M 784 -29 C 688 -29 598 -12 514 22 C 430 56 358 106 297 173 C 235 239 186 322 151 420 C 115 518 98 630 98 758 C 98 885 115 998 151 1096 C 186 1194 235 1276 297 1343 C 358 1409 430 1459 514 1493 C 598 1527 688 1544 784 1544 C 880 1544 969 1527 1052 1493 C 1135 1459 1207 1409 1269 1343 C 1330 1276 1378 1194 1413 1096 C 1448 998 1466 885 1466 758 C 1466 630 1448 518 1413 420 C 1378 322 1330 239 1269 173 C 1207 106 1135 56 1052 22 C 969 -12 880 -29 784 -29 Z M 784 203 C 847 203 905 215 957 239 C 1009 263 1054 299 1092 347 C 1128 393 1157 451 1177 520 C 1197 589 1208 668 1208 758 C 1208 846 1197 925 1177 994 C 1157 1062 1128 1120 1092 1167 C 1054 1213 1009 1249 957 1273 C 905 1297 847 1309 784 1309 C 719 1309 660 1297 608 1273 C 555 1249 510 1213 473 1167 C 435 1120 406 1062 386 994 C 366 925 356 846 356 758 C 356 668 366 589 386 520 C 406 451 435 393 473 347 C 510 299 555 263 608 239 C 660 215 719 203 784 203 Z" unicode="Ō" />
<glyph horiz-adv-x="1221" d="M 291 1382 L 929 1382 L 929 1196 L 291 1196 L 291 1382 Z M 610 -23 C 544 -23 479 -12 416 9 C 352 31 296 65 246 111 C 196 157 155 215 125 287 C 95 358 80 443 80 543 C 80 643 95 728 125 800 C 155 872 196 930 246 976 C 295 1021 351 1054 415 1076 C 478 1097 543 1108 610 1108 C 676 1108 740 1097 804 1076 C 868 1054 925 1021 975 976 C 1024 930 1064 872 1095 800 C 1125 728 1141 643 1141 543 C 1141 477 1134 417 1120 363 C 1106 309 1086 261 1062 219 C 1037 177 1008 140 974 110 C 940 80 904 55 865 36 C 825 16 784 1 741 -8 C 697 -18 654 -23 610 -23 Z M 610 188 C 701 188 770 219 817 281 C 863 343 887 431 887 543 C 887 593 881 640 870 683 C 859 725 842 762 820 794 C 797 824 768 848 734 866 C 699 884 658 893 610 893 C 564 893 524 885 490 869 C 455 853 426 830 404 800 C 380 770 363 733 351 690 C 339 646 334 597 334 543 C 334 491 339 443 350 400 C 360 356 377 319 400 288 C 422 256 451 232 486 214 C 520 196 562 188 610 188 Z" unicode="ō" />
<glyph horiz-adv-x="1565" d="M 784 -29 C 688 -29 598 -12 514 22 C 430 56 358 106 297 173 C 235 239 186 322 151 420 C 115 518 98 630 98 758 C 98 885 115 998 151 1096 C 186 1194 235 1276 297 1343 C 358 1409 430 1459 514 1493 C 598 1527 688 1544 784 1544 C 880 1544 969 1527 1052 1493 C 1135 1459 1207 1409 1269 1343 C 1330 1276 1378 1194 1413 1096 C 1448 998 1466 885 1466 758 C 1466 630 1448 518 1413 420 C 1378 322 1330 239 1269 173 C 1207 106 1135 56 1052 22 C 969 -12 880 -29 784 -29 Z M 784 203 C 847 203 905 215 957 239 C 1009 263 1054 299 1092 347 C 1128 393 1157 451 1177 520 C 1197 589 1208 668 1208 758 C 1208 846 1197 925 1177 994 C 1157 1062 1128 1120 1092 1167 C 1054 1213 1009 1249 957 1273 C 905 1297 847 1309 784 1309 C 719 1309 660 1297 608 1273 C 555 1249 510 1213 473 1167 C 435 1120 406 1062 386 994 C 366 925 356 846 356 758 C 356 668 366 589 386 520 C 406 451 435 393 473 347 C 510 299 555 263 608 239 C 660 215 719 203 784 203 Z M 780 1589 C 727 1589 680 1598 639 1616 C 598 1634 563 1659 535 1691 C 506 1723 484 1761 468 1805 C 452 1849 442 1898 440 1951 L 581 1951 C 585 1913 594 1881 606 1856 C 618 1831 634 1811 652 1797 C 669 1782 689 1772 711 1766 C 733 1760 756 1757 780 1757 C 804 1757 827 1760 849 1766 C 871 1772 891 1782 909 1797 C 927 1811 942 1831 955 1856 C 967 1881 976 1913 981 1951 L 1120 1951 C 1117 1898 1108 1849 1092 1805 C 1076 1761 1053 1723 1025 1691 C 996 1659 961 1634 920 1616 C 879 1598 832 1589 780 1589 Z" unicode="Ŏ" />
<glyph horiz-adv-x="1221" d="M 610 -23 C 544 -23 479 -12 416 9 C 352 31 296 65 246 111 C 196 157 155 215 125 287 C 95 358 80 443 80 543 C 80 643 95 728 125 800 C 155 872 196 930 246 976 C 295 1021 351 1054 415 1076 C 478 1097 543 1108 610 1108 C 676 1108 740 1097 804 1076 C 868 1054 925 1021 975 976 C 1024 930 1064 872 1095 800 C 1125 728 1141 643 1141 543 C 1141 477 1134 417 1120 363 C 1106 309 1086 261 1062 219 C 1037 177 1008 140 974 110 C 940 80 904 55 865 36 C 825 16 784 1 741 -8 C 697 -18 654 -23 610 -23 Z M 610 188 C 701 188 770 219 817 281 C 863 343 887 431 887 543 C 887 593 881 640 870 683 C 859 725 842 762 820 794 C 797 824 768 848 734 866 C 699 884 658 893 610 893 C 564 893 524 885 490 869 C 455 853 426 830 404 800 C 380 770 363 733 351 690 C 339 646 334 597 334 543 C 334 491 339 443 350 400 C 360 356 377 319 400 288 C 422 256 451 232 486 214 C 520 196 562 188 610 188 Z M 610 1186 C 557 1186 510 1195 469 1213 C 428 1231 393 1256 365 1288 C 336 1320 314 1358 298 1402 C 282 1446 272 1495 270 1548 L 411 1548 C 415 1510 424 1478 436 1453 C 448 1428 464 1408 482 1394 C 499 1379 519 1369 541 1363 C 563 1357 586 1354 610 1354 C 634 1354 657 1357 679 1363 C 701 1369 721 1379 739 1394 C 757 1408 772 1428 785 1453 C 797 1478 806 1510 811 1548 L 950 1548 C 947 1495 938 1446 922 1402 C 906 1358 883 1320 855 1288 C 826 1256 791 1231 750 1213 C 709 1195 662 1186 610 1186 Z" unicode="ŏ" />
<glyph horiz-adv-x="1565" d="M 657 1945 L 931 1945 L 620 1605 L 452 1605 L 657 1945 Z M 1034 1945 L 1308 1945 L 987 1605 L 819 1605 L 1034 1945 Z M 784 -29 C 688 -29 598 -12 514 22 C 430 56 358 106 297 173 C 235 239 186 322 151 420 C 115 518 98 630 98 758 C 98 885 115 998 151 1096 C 186 1194 235 1276 297 1343 C 358 1409 430 1459 514 1493 C 598 1527 688 1544 784 1544 C 880 1544 969 1527 1052 1493 C 1135 1459 1207 1409 1269 1343 C 1330 1276 1378 1194 1413 1096 C 1448 998 1466 885 1466 758 C 1466 630 1448 518 1413 420 C 1378 322 1330 239 1269 173 C 1207 106 1135 56 1052 22 C 969 -12 880 -29 784 -29 Z M 784 203 C 847 203 905 215 957 239 C 1009 263 1054 299 1092 347 C 1128 393 1157 451 1177 520 C 1197 589 1208 668 1208 758 C 1208 846 1197 925 1177 994 C 1157 1062 1128 1120 1092 1167 C 1054 1213 1009 1249 957 1273 C 905 1297 847 1309 784 1309 C 719 1309 660 1297 608 1273 C 555 1249 510 1213 473 1167 C 435 1120 406 1062 386 994 C 366 925 356 846 356 758 C 356 668 366 589 386 520 C 406 451 435 393 473 347 C 510 299 555 263 608 239 C 660 215 719 203 784 203 Z" unicode="Ő" />
<glyph horiz-adv-x="1221" d="M 503 1542 L 777 1542 L 466 1202 L 298 1202 L 503 1542 Z M 880 1542 L 1154 1542 L 833 1202 L 665 1202 L 880 1542 Z M 610 -23 C 544 -23 479 -12 416 9 C 352 31 296 65 246 111 C 196 157 155 215 125 287 C 95 358 80 443 80 543 C 80 643 95 728 125 800 C 155 872 196 930 246 976 C 295 1021 351 1054 415 1076 C 478 1097 543 1108 610 1108 C 676 1108 740 1097 804 1076 C 868 1054 925 1021 975 976 C 1024 930 1064 872 1095 800 C 1125 728 1141 643 1141 543 C 1141 477 1134 417 1120 363 C 1106 309 1086 261 1062 219 C 1037 177 1008 140 974 110 C 940 80 904 55 865 36 C 825 16 784 1 741 -8 C 697 -18 654 -23 610 -23 Z M 610 188 C 701 188 770 219 817 281 C 863 343 887 431 887 543 C 887 593 881 640 870 683 C 859 725 842 762 820 794 C 797 824 768 848 734 866 C 699 884 658 893 610 893 C 564 893 524 885 490 869 C 455 853 426 830 404 800 C 380 770 363 733 351 690 C 339 646 334 597 334 543 C 334 491 339 443 350 400 C 360 356 377 319 400 288 C 422 256 451 232 486 214 C 520 196 562 188 610 188 Z" unicode="ő" />
<glyph horiz-adv-x="2306" d="M 782 -29 C 690 -29 603 -12 520 22 C 437 56 364 106 302 173 C 238 239 188 322 151 420 C 114 518 96 630 96 758 C 96 885 114 998 151 1096 C 188 1194 238 1276 302 1343 C 364 1409 437 1459 520 1493 C 603 1527 690 1544 782 1544 C 877 1544 963 1524 1039 1484 C 1115 1444 1178 1389 1229 1321 L 1229 1516 L 2185 1516 L 2185 1278 L 1462 1278 L 1462 901 L 1993 901 L 1993 674 L 1462 674 L 1462 233 L 2224 233 L 2224 0 L 1229 0 L 1229 197 C 1178 127 1115 72 1039 32 C 963 -8 877 -29 782 -29 Z M 782 203 C 845 203 903 215 955 239 C 1007 263 1052 299 1090 347 C 1126 393 1155 451 1175 520 C 1195 589 1206 668 1206 758 C 1206 846 1195 925 1175 994 C 1155 1062 1126 1120 1090 1167 C 1052 1213 1007 1249 955 1273 C 903 1297 845 1309 782 1309 C 717 1309 658 1297 606 1273 C 553 1249 508 1213 471 1167 C 433 1120 404 1062 384 994 C 364 925 354 846 354 758 C 354 668 364 589 384 520 C 404 451 433 393 471 347 C 508 299 553 263 606 239 C 658 215 717 203 782 203 Z" unicode="Œ" />
<glyph horiz-adv-x="1946" d="M 608 -23 C 542 -23 477 -12 414 9 C 350 31 294 65 245 111 C 195 157 155 215 125 287 C 95 358 80 443 80 543 C 80 643 95 728 125 800 C 155 872 194 930 244 976 C 293 1021 349 1054 413 1076 C 476 1097 541 1108 608 1108 C 650 1108 690 1103 730 1093 C 769 1083 806 1069 841 1051 C 875 1032 905 1009 933 982 C 961 954 984 923 1004 889 C 1021 921 1044 951 1072 978 C 1100 1005 1131 1028 1166 1048 C 1200 1066 1236 1081 1275 1092 C 1313 1102 1352 1108 1391 1108 C 1431 1108 1470 1103 1509 1095 C 1548 1086 1585 1072 1621 1054 C 1656 1035 1689 1010 1719 980 C 1749 950 1775 913 1797 870 C 1818 826 1835 775 1847 717 C 1859 659 1866 594 1866 520 L 1866 471 L 1122 471 C 1124 419 1133 374 1149 337 C 1165 300 1186 270 1212 247 C 1237 223 1267 205 1301 194 C 1335 183 1373 178 1413 178 C 1448 178 1480 180 1508 186 C 1536 192 1563 200 1588 212 C 1612 222 1634 235 1655 251 C 1676 267 1697 285 1718 305 L 1851 174 C 1794 111 1728 62 1654 28 C 1580 -5 1493 -23 1395 -23 C 1353 -23 1312 -18 1272 -8 C 1232 1 1194 15 1160 34 C 1124 52 1093 74 1065 100 C 1037 126 1015 155 999 188 C 979 156 955 127 927 101 C 899 75 869 53 836 35 C 802 16 766 2 728 -8 C 690 -18 650 -23 608 -23 Z M 1634 649 C 1626 732 1602 795 1562 838 C 1521 881 1462 903 1386 903 C 1355 903 1325 898 1297 889 C 1269 880 1243 866 1220 846 C 1196 825 1176 798 1160 766 C 1143 734 1132 695 1126 649 L 1634 649 Z M 608 186 C 699 186 768 217 814 280 C 860 343 883 431 883 543 C 883 593 877 640 867 683 C 856 725 839 762 817 794 C 794 824 765 848 731 866 C 697 884 656 893 608 893 C 562 893 522 885 488 869 C 454 853 425 830 403 800 C 379 770 362 733 351 690 C 339 646 334 597 334 543 C 334 491 339 443 350 399 C 360 355 377 318 399 287 C 421 255 449 230 484 212 C 518 194 560 186 608 186 Z" unicode="œ" />
<glyph horiz-adv-x="1415" d="M 759 1945 L 1029 1945 L 732 1605 L 567 1605 L 759 1945 Z M 172 0 L 172 1516 L 715 1516 C 805 1516 885 1506 956 1488 C 1026 1470 1086 1442 1135 1405 C 1183 1367 1219 1319 1245 1262 C 1271 1205 1284 1138 1284 1061 C 1284 1000 1276 946 1261 899 C 1245 851 1223 810 1195 775 C 1166 739 1131 709 1089 685 C 1047 661 1000 643 948 631 L 1305 0 L 1030 0 L 690 598 L 424 598 L 424 0 L 172 0 Z M 424 821 L 705 821 C 758 821 805 824 846 832 C 886 839 921 852 949 870 C 976 888 997 912 1011 942 C 1025 972 1032 1009 1032 1055 C 1032 1098 1025 1134 1011 1163 C 997 1192 976 1216 949 1234 C 921 1251 886 1263 845 1271 C 804 1278 756 1282 702 1282 L 424 1282 L 424 821 Z" unicode="Ŕ" />
<glyph horiz-adv-x="844" d="M 476 1542 L 746 1542 L 449 1202 L 284 1202 L 476 1542 Z M 141 0 L 141 1087 L 393 1087 L 393 909 L 397 909 C 413 936 433 962 457 986 C 481 1010 509 1031 541 1049 C 572 1067 608 1081 649 1092 C 690 1102 736 1108 788 1108 L 805 1108 L 797 877 C 793 877 789 878 783 878 C 777 878 770 879 764 880 C 756 880 749 880 743 880 C 737 880 732 881 729 881 C 688 881 651 876 618 867 C 584 858 554 845 527 829 C 499 811 475 791 453 767 C 431 743 411 717 393 688 L 393 0 L 141 0 Z" unicode="ŕ" />
<glyph horiz-adv-x="1415" d="M 679 -338 L 581 -338 L 581 -92 L 833 -92 L 833 -307 L 720 -555 L 613 -555 L 679 -338 Z M 172 0 L 172 1516 L 715 1516 C 805 1516 885 1506 956 1488 C 1026 1470 1086 1442 1135 1405 C 1183 1367 1219 1319 1245 1262 C 1271 1205 1284 1138 1284 1061 C 1284 1000 1276 946 1261 899 C 1245 851 1223 810 1195 775 C 1166 739 1131 709 1089 685 C 1047 661 1000 643 948 631 L 1305 0 L 1030 0 L 690 598 L 424 598 L 424 0 L 172 0 Z M 424 821 L 705 821 C 758 821 805 824 846 832 C 886 839 921 852 949 870 C 976 888 997 912 1011 942 C 1025 972 1032 1009 1032 1055 C 1032 1098 1025 1134 1011 1163 C 997 1192 976 1216 949 1234 C 921 1251 886 1263 845 1271 C 804 1278 756 1282 702 1282 L 424 1282 L 424 821 Z" unicode="Ŗ" />
<glyph horiz-adv-x="844" d="M 242 -338 L 144 -338 L 144 -92 L 396 -92 L 396 -307 L 283 -555 L 176 -555 L 242 -338 Z M 141 0 L 141 1087 L 393 1087 L 393 909 L 397 909 C 413 936 433 962 457 986 C 481 1010 509 1031 541 1049 C 572 1067 608 1081 649 1092 C 690 1102 736 1108 788 1108 L 805 1108 L 797 877 C 793 877 789 878 783 878 C 777 878 770 879 764 880 C 756 880 749 880 743 880 C 737 880 732 881 729 881 C 688 881 651 876 618 867 C 584 858 554 845 527 829 C 499 811 475 791 453 767 C 431 743 411 717 393 688 L 393 0 L 141 0 Z" unicode="ŗ" />
<glyph horiz-adv-x="1415" d="M 354 1951 L 501 1951 L 706 1779 L 911 1951 L 1056 1951 L 792 1611 L 618 1611 L 354 1951 Z M 172 0 L 172 1516 L 715 1516 C 805 1516 885 1506 956 1488 C 1026 1470 1086 1442 1135 1405 C 1183 1367 1219 1319 1245 1262 C 1271 1205 1284 1138 1284 1061 C 1284 1000 1276 946 1261 899 C 1245 851 1223 810 1195 775 C 1166 739 1131 709 1089 685 C 1047 661 1000 643 948 631 L 1305 0 L 1030 0 L 690 598 L 424 598 L 424 0 L 172 0 Z M 424 821 L 705 821 C 758 821 805 824 846 832 C 886 839 921 852 949 870 C 976 888 997 912 1011 942 C 1025 972 1032 1009 1032 1055 C 1032 1098 1025 1134 1011 1163 C 997 1192 976 1216 949 1234 C 921 1251 886 1263 845 1271 C 804 1278 756 1282 702 1282 L 424 1282 L 424 821 Z" unicode="Ř" />
<glyph horiz-adv-x="844" d="M 71 1548 L 218 1548 L 423 1376 L 628 1548 L 773 1548 L 509 1208 L 335 1208 L 71 1548 Z M 141 0 L 141 1087 L 393 1087 L 393 909 L 397 909 C 413 936 433 962 457 986 C 481 1010 509 1031 541 1049 C 572 1067 608 1081 649 1092 C 690 1102 736 1108 788 1108 L 805 1108 L 797 877 C 793 877 789 878 783 878 C 777 878 770 879 764 880 C 756 880 749 880 743 880 C 737 880 732 881 729 881 C 688 881 651 876 618 867 C 584 858 554 845 527 829 C 499 811 475 791 453 767 C 431 743 411 717 393 688 L 393 0 L 141 0 Z" unicode="ř" />
<glyph horiz-adv-x="1380" d="M 741 1945 L 1011 1945 L 714 1605 L 549 1605 L 741 1945 Z M 702 -29 C 626 -29 557 -19 493 -1 C 429 17 371 44 320 78 C 268 111 223 151 185 199 C 147 246 116 298 92 356 L 295 463 C 340 373 397 307 466 264 C 535 220 617 199 713 199 C 759 199 801 202 839 210 C 877 218 909 230 937 246 C 963 262 984 282 999 307 C 1014 331 1022 361 1022 395 C 1022 427 1015 456 1003 481 C 991 506 971 529 944 550 C 916 570 881 589 837 607 C 793 625 740 643 678 662 C 629 676 582 690 537 705 C 492 719 450 736 411 754 C 371 771 336 791 304 813 C 272 835 244 860 222 889 C 199 917 181 950 169 988 C 156 1025 150 1068 150 1116 C 150 1180 162 1239 187 1292 C 212 1344 248 1389 294 1427 C 339 1464 393 1493 457 1513 C 520 1533 590 1544 668 1544 C 742 1544 809 1535 869 1518 C 929 1500 982 1477 1029 1448 C 1075 1418 1115 1384 1149 1345 C 1183 1305 1211 1263 1235 1219 L 1049 1090 C 1003 1166 948 1221 884 1257 C 820 1293 748 1311 666 1311 C 581 1311 516 1296 470 1266 C 424 1236 401 1194 401 1139 C 401 1103 408 1073 422 1048 C 436 1023 457 1001 487 982 C 515 962 552 944 597 928 C 642 912 696 895 758 877 C 829 855 896 833 959 809 C 1021 785 1076 755 1123 721 C 1169 685 1206 643 1233 594 C 1260 544 1274 484 1274 414 C 1274 352 1261 294 1235 240 C 1209 186 1172 139 1124 100 C 1074 60 1014 28 943 5 C 872 -17 792 -29 702 -29 Z" unicode="Ś" />
<glyph horiz-adv-x="1071" d="M 587 1542 L 857 1542 L 560 1202 L 395 1202 L 587 1542 Z M 539 -23 C 489 -23 440 -18 393 -10 C 346 -1 302 10 261 26 C 219 41 181 59 147 80 C 113 101 83 124 59 150 L 197 303 C 217 285 240 269 265 253 C 290 237 317 224 347 213 C 375 201 406 191 438 184 C 470 177 503 174 539 174 C 606 174 659 183 698 202 C 736 221 756 253 756 299 C 756 321 749 339 736 354 C 723 369 706 382 684 393 C 662 403 636 413 607 421 C 577 429 546 436 514 444 C 482 451 451 459 419 467 C 387 475 355 485 325 497 C 294 508 265 522 239 538 C 212 554 189 573 169 597 C 149 619 133 646 121 678 C 109 709 104 746 104 788 C 104 836 113 879 133 919 C 153 958 180 992 216 1020 C 251 1048 293 1069 343 1085 C 393 1100 448 1108 508 1108 C 560 1108 607 1104 649 1097 C 691 1090 731 1080 767 1067 C 802 1053 835 1037 866 1018 C 896 999 926 978 954 954 L 834 791 C 814 807 791 822 766 836 C 740 850 714 863 687 874 C 659 884 632 893 604 899 C 576 905 550 909 526 909 C 491 909 462 906 438 900 C 414 894 396 887 382 877 C 367 867 357 855 351 842 C 345 828 342 814 342 799 C 342 777 348 758 361 743 C 373 728 391 715 413 705 C 434 694 459 685 488 677 C 517 669 548 662 580 655 C 610 648 642 641 675 633 C 707 625 739 615 770 605 C 800 593 829 580 856 564 C 883 548 907 528 928 506 C 948 482 963 455 975 423 C 987 391 993 355 993 313 C 993 255 981 206 957 164 C 933 122 900 87 859 60 C 817 32 769 11 714 -2 C 659 -16 601 -23 539 -23 Z" unicode="ś" />
<glyph horiz-adv-x="1380" d="M 592 1945 L 766 1945 L 1030 1605 L 883 1605 L 678 1777 L 473 1605 L 328 1605 L 592 1945 Z M 702 -29 C 626 -29 557 -19 493 -1 C 429 17 371 44 320 78 C 268 111 223 151 185 199 C 147 246 116 298 92 356 L 295 463 C 340 373 397 307 466 264 C 535 220 617 199 713 199 C 759 199 801 202 839 210 C 877 218 909 230 937 246 C 963 262 984 282 999 307 C 1014 331 1022 361 1022 395 C 1022 427 1015 456 1003 481 C 991 506 971 529 944 550 C 916 570 881 589 837 607 C 793 625 740 643 678 662 C 629 676 582 690 537 705 C 492 719 450 736 411 754 C 371 771 336 791 304 813 C 272 835 244 860 222 889 C 199 917 181 950 169 988 C 156 1025 150 1068 150 1116 C 150 1180 162 1239 187 1292 C 212 1344 248 1389 294 1427 C 339 1464 393 1493 457 1513 C 520 1533 590 1544 668 1544 C 742 1544 809 1535 869 1518 C 929 1500 982 1477 1029 1448 C 1075 1418 1115 1384 1149 1345 C 1183 1305 1211 1263 1235 1219 L 1049 1090 C 1003 1166 948 1221 884 1257 C 820 1293 748 1311 666 1311 C 581 1311 516 1296 470 1266 C 424 1236 401 1194 401 1139 C 401 1103 408 1073 422 1048 C 436 1023 457 1001 487 982 C 515 962 552 944 597 928 C 642 912 696 895 758 877 C 829 855 896 833 959 809 C 1021 785 1076 755 1123 721 C 1169 685 1206 643 1233 594 C 1260 544 1274 484 1274 414 C 1274 352 1261 294 1235 240 C 1209 186 1172 139 1124 100 C 1074 60 1014 28 943 5 C 872 -17 792 -29 702 -29 Z" unicode="Ŝ" />
<glyph horiz-adv-x="1071" d="M 431 1542 L 605 1542 L 869 1202 L 722 1202 L 517 1374 L 312 1202 L 167 1202 L 431 1542 Z M 539 -23 C 489 -23 440 -18 393 -10 C 346 -1 302 10 261 26 C 219 41 181 59 147 80 C 113 101 83 124 59 150 L 197 303 C 217 285 240 269 265 253 C 290 237 317 224 347 213 C 375 201 406 191 438 184 C 470 177 503 174 539 174 C 606 174 659 183 698 202 C 736 221 756 253 756 299 C 756 321 749 339 736 354 C 723 369 706 382 684 393 C 662 403 636 413 607 421 C 577 429 546 436 514 444 C 482 451 451 459 419 467 C 387 475 355 485 325 497 C 294 508 265 522 239 538 C 212 554 189 573 169 597 C 149 619 133 646 121 678 C 109 709 104 746 104 788 C 104 836 113 879 133 919 C 153 958 180 992 216 1020 C 251 1048 293 1069 343 1085 C 393 1100 448 1108 508 1108 C 560 1108 607 1104 649 1097 C 691 1090 731 1080 767 1067 C 802 1053 835 1037 866 1018 C 896 999 926 978 954 954 L 834 791 C 814 807 791 822 766 836 C 740 850 714 863 687 874 C 659 884 632 893 604 899 C 576 905 550 909 526 909 C 491 909 462 906 438 900 C 414 894 396 887 382 877 C 367 867 357 855 351 842 C 345 828 342 814 342 799 C 342 777 348 758 361 743 C 373 728 391 715 413 705 C 434 694 459 685 488 677 C 517 669 548 662 580 655 C 610 648 642 641 675 633 C 707 625 739 615 770 605 C 800 593 829 580 856 564 C 883 548 907 528 928 506 C 948 482 963 455 975 423 C 987 391 993 355 993 313 C 993 255 981 206 957 164 C 933 122 900 87 859 60 C 817 32 769 11 714 -2 C 659 -16 601 -23 539 -23 Z" unicode="ŝ" />
<glyph horiz-adv-x="1380" d="M 702 -29 C 626 -29 557 -19 493 -1 C 429 17 371 44 320 78 C 268 111 223 151 185 199 C 147 246 116 298 92 356 L 295 463 C 340 373 397 307 466 264 C 535 220 617 199 713 199 C 759 199 801 202 839 210 C 877 218 909 230 937 246 C 963 262 984 282 999 307 C 1014 331 1022 361 1022 395 C 1022 427 1015 456 1003 481 C 991 506 971 529 944 550 C 916 570 881 589 837 607 C 793 625 740 643 678 662 C 629 676 582 690 537 705 C 492 719 450 736 411 754 C 371 771 336 791 304 813 C 272 835 244 860 222 889 C 199 917 181 950 169 988 C 156 1025 150 1068 150 1116 C 150 1180 162 1239 187 1292 C 212 1344 248 1389 294 1427 C 339 1464 393 1493 457 1513 C 520 1533 590 1544 668 1544 C 742 1544 809 1535 869 1518 C 929 1500 982 1477 1029 1448 C 1075 1418 1115 1384 1149 1345 C 1183 1305 1211 1263 1235 1219 L 1049 1090 C 1003 1166 948 1221 884 1257 C 820 1293 748 1311 666 1311 C 581 1311 516 1296 470 1266 C 424 1236 401 1194 401 1139 C 401 1103 408 1073 422 1048 C 436 1023 457 1001 487 982 C 515 962 552 944 597 928 C 642 912 696 895 758 877 C 829 855 896 833 959 809 C 1021 785 1076 755 1123 721 C 1169 685 1206 643 1233 594 C 1260 544 1274 484 1274 414 C 1274 352 1261 294 1235 240 C 1209 186 1172 139 1124 100 C 1074 60 1014 28 943 5 C 872 -17 792 -29 702 -29 Z M 704 -408 C 650 -408 598 -401 549 -387 C 500 -373 458 -355 422 -332 L 473 -250 C 503 -270 537 -286 574 -296 C 610 -306 646 -311 682 -311 C 723 -311 754 -304 774 -291 C 794 -277 805 -257 805 -231 C 805 -209 798 -193 785 -183 C 771 -173 753 -168 731 -168 C 712 -168 695 -171 680 -178 C 665 -184 651 -193 637 -205 L 565 -170 L 616 0 L 733 0 L 704 -100 C 718 -90 736 -83 756 -78 C 776 -72 801 -70 829 -70 C 847 -70 865 -73 883 -79 C 901 -85 917 -94 931 -106 C 944 -118 955 -132 963 -150 C 971 -168 975 -188 975 -211 C 975 -243 967 -271 953 -296 C 939 -320 920 -341 896 -358 C 871 -374 842 -387 809 -395 C 776 -403 741 -408 704 -408 Z" unicode="Ş" />
<glyph horiz-adv-x="1071" d="M 539 -23 C 489 -23 440 -18 393 -10 C 346 -1 302 10 261 26 C 219 41 181 59 147 80 C 113 101 83 124 59 150 L 197 303 C 217 285 240 269 265 253 C 290 237 317 224 347 213 C 375 201 406 191 438 184 C 470 177 503 174 539 174 C 606 174 659 183 698 202 C 736 221 756 253 756 299 C 756 321 749 339 736 354 C 723 369 706 382 684 393 C 662 403 636 413 607 421 C 577 429 546 436 514 444 C 482 451 451 459 419 467 C 387 475 355 485 325 497 C 294 508 265 522 239 538 C 212 554 189 573 169 597 C 149 619 133 646 121 678 C 109 709 104 746 104 788 C 104 836 113 879 133 919 C 153 958 180 992 216 1020 C 251 1048 293 1069 343 1085 C 393 1100 448 1108 508 1108 C 560 1108 607 1104 649 1097 C 691 1090 731 1080 767 1067 C 802 1053 835 1037 866 1018 C 896 999 926 978 954 954 L 834 791 C 814 807 791 822 766 836 C 740 850 714 863 687 874 C 659 884 632 893 604 899 C 576 905 550 909 526 909 C 491 909 462 906 438 900 C 414 894 396 887 382 877 C 367 867 357 855 351 842 C 345 828 342 814 342 799 C 342 777 348 758 361 743 C 373 728 391 715 413 705 C 434 694 459 685 488 677 C 517 669 548 662 580 655 C 610 648 642 641 675 633 C 707 625 739 615 770 605 C 800 593 829 580 856 564 C 883 548 907 528 928 506 C 948 482 963 455 975 423 C 987 391 993 355 993 313 C 993 255 981 206 957 164 C 933 122 900 87 859 60 C 817 32 769 11 714 -2 C 659 -16 601 -23 539 -23 Z M 550 -408 C 496 -408 444 -401 395 -387 C 346 -373 304 -355 268 -332 L 319 -250 C 349 -270 383 -286 420 -296 C 456 -306 492 -311 528 -311 C 569 -311 600 -304 620 -291 C 640 -277 651 -257 651 -231 C 651 -209 644 -193 631 -183 C 617 -173 599 -168 577 -168 C 558 -168 541 -171 526 -178 C 511 -184 497 -193 483 -205 L 411 -170 L 462 0 L 579 0 L 550 -100 C 564 -90 582 -83 602 -78 C 622 -72 647 -70 675 -70 C 693 -70 711 -73 729 -79 C 747 -85 763 -94 777 -106 C 790 -118 801 -132 809 -150 C 817 -168 821 -188 821 -211 C 821 -243 813 -271 799 -296 C 785 -320 766 -341 742 -358 C 717 -374 688 -387 655 -395 C 622 -403 587 -408 550 -408 Z" unicode="ş" />
</font>
</defs>
</svg>
